<svg width="22" height="21" viewBox="0 0 22 21" fill="none" xmlns="http://www.w3.org/2000/svg">
<path d="M6.66309 9.95459H8.40863V11.6213H6.66309V9.95459ZM6.66309 13.2879H8.40863V14.9546H6.66309V13.2879ZM10.1542 9.95459H11.8997V11.6213H10.1542V9.95459ZM10.1542 13.2879H11.8997V14.9546H10.1542V13.2879ZM13.6453 9.95459H15.3908V11.6213H13.6453V9.95459ZM13.6453 13.2879H15.3908V14.9546H13.6453V13.2879Z" fill="#2A2A2A"/>
<path d="M4.91742 19.1213H17.1362C18.0989 19.1213 18.8818 18.3738 18.8818 17.4546V5.78792C18.8818 4.86876 18.0989 4.12126 17.1362 4.12126H15.3907V2.45459H13.6451V4.12126H8.4085V2.45459H6.66296V4.12126H4.91742C3.95475 4.12126 3.17188 4.86876 3.17188 5.78792V17.4546C3.17188 18.3738 3.95475 19.1213 4.91742 19.1213ZM17.1362 7.45459L17.1371 17.4546H4.91742V7.45459H17.1362Z" fill="#2A2A2A"/>
</svg>
