<svg width="22" height="21" viewBox="0 0 22 21" fill="none" xmlns="http://www.w3.org/2000/svg">
<path d="M6.76562 9.95459H8.51117V11.6213H6.76562V9.95459ZM6.76562 13.2879H8.51117V14.9546H6.76562V13.2879ZM10.2567 9.95459H12.0023V11.6213H10.2567V9.95459ZM10.2567 13.2879H12.0023V14.9546H10.2567V13.2879ZM13.7478 9.95459H15.4933V11.6213H13.7478V9.95459ZM13.7478 13.2879H15.4933V14.9546H13.7478V13.2879Z" fill="#2A2A2A"/>
<path d="M5.01996 19.1213H17.2388C18.2014 19.1213 18.9843 18.3738 18.9843 17.4546V5.78792C18.9843 4.86876 18.2014 4.12126 17.2388 4.12126H15.4932V2.45459H13.7477V4.12126H8.51104V2.45459H6.7655V4.12126H5.01996C4.05729 4.12126 3.27441 4.86876 3.27441 5.78792V17.4546C3.27441 18.3738 4.05729 19.1213 5.01996 19.1213ZM17.2388 7.45459L17.2396 17.4546H5.01996V7.45459H17.2388Z" fill="#2A2A2A"/>
</svg>
