<svg width="25" height="25" viewBox="0 0 25 25" fill="none" xmlns="http://www.w3.org/2000/svg">
<g clip-path="url(#clip0_21662_42829)">
<path d="M18.6685 24.3499C18.1545 24.2684 17.6218 24.2371 17.1203 24.0929C14.6946 23.3784 13.3157 21.7299 12.8769 19.2604C12.4194 16.6842 13.8422 13.9702 16.3807 12.8294C19.9346 11.2311 24.1655 13.4876 24.786 17.3298C24.8111 17.4991 24.8425 17.6683 24.8738 17.8375C24.8738 18.1321 24.8738 18.433 24.8738 18.7276C24.8425 18.9093 24.8048 19.0911 24.7798 19.2729C24.4538 21.6547 22.7678 23.5476 20.4235 24.1243C19.9534 24.2371 19.4708 24.281 18.9945 24.3562C18.8879 24.3499 18.7813 24.3499 18.6685 24.3499ZM18.8189 17.3674C18.5996 17.1355 18.4053 16.9099 18.1922 16.7093C17.9038 16.4335 17.4713 16.4398 17.2018 16.7156C16.9386 16.9788 16.926 17.4113 17.1955 17.6871C17.5716 18.082 17.9602 18.4706 18.3551 18.8467C18.6246 19.1037 19.0258 19.1225 19.289 18.8655C20.0349 18.1447 20.7683 17.405 21.4954 16.6654C21.721 16.4398 21.7273 16.1076 21.5643 15.8381C21.4076 15.5811 21.0942 15.4432 20.7934 15.5309C20.6492 15.5748 20.5113 15.6688 20.4047 15.7754C19.8845 16.2893 19.3705 16.8159 18.8189 17.3674Z" fill="#7EB1E4"/>
<path d="M0.804688 0.889105C1.09301 0.324989 1.41268 0.218434 1.98306 0.500492C4.97915 1.99226 7.97523 3.48404 10.965 4.98208C12.2813 5.64021 12.9206 6.89381 12.7765 8.36678C12.507 11.1811 9.98724 12.9549 7.79973 13.0615C5.93188 13.1555 4.45891 12.0899 3.95747 10.2158C3.87599 9.90869 3.73809 9.68931 3.49364 9.48247C2.72895 8.84314 2.35287 7.9907 2.309 7.00036C2.29646 6.71204 2.309 6.42371 2.30273 6.13538C2.30273 6.06017 2.26512 5.95988 2.21498 5.91601C1.44402 5.33309 0.98019 4.56213 0.836027 3.60313C0.829759 3.57179 0.817223 3.54672 0.804688 3.51538C0.804688 2.64413 0.804688 1.76662 0.804688 0.889105Z" fill="#EB564F"/>
<path d="M0.804688 18.2013C0.94885 18.0195 1.08048 17.8252 1.24344 17.6623C2.47196 16.4275 3.70048 15.2052 4.929 13.9767C5.01675 13.889 5.07316 13.8263 5.2236 13.9015C7.3547 14.8918 9.37925 14.5784 11.2722 13.2998C12.8392 12.2405 13.8107 10.7613 14.1366 8.88087C14.4876 6.86885 13.6916 5.00727 12.0431 3.96679C11.9052 3.87904 11.7611 3.80382 11.6232 3.72234C11.8488 2.80722 12.9457 1.97358 14.0426 1.87329C15.127 1.773 16.5874 2.21176 17.2142 3.96052C17.3458 3.83516 17.4649 3.71607 17.584 3.60325C17.9099 3.28985 18.3487 3.27731 18.6308 3.56564C18.9065 3.85396 18.894 4.28019 18.5869 4.59358C18.2233 4.96339 17.8598 5.32693 17.49 5.68421C17.3646 5.8033 17.3145 5.92239 17.3145 6.09162C17.3207 7.54579 17.3145 8.99996 17.3082 10.4541C17.3019 11.0245 17.2894 11.0182 16.7566 11.1875C14.0802 12.0399 12.3628 13.82 11.6106 16.5278C11.5605 16.7095 11.479 16.7848 11.2972 16.7848C10.8585 16.791 10.4197 16.8224 9.98097 16.8224C8.75245 16.8286 7.52394 16.8224 6.28915 16.8224C6.19513 16.8224 6.10738 16.8224 5.98829 16.8224C5.98829 16.9415 5.98829 17.0355 5.98829 17.1232C5.98829 18.7466 5.98829 20.3763 5.98829 21.9997C5.98829 22.5951 5.71876 22.8521 5.12331 22.8396C2.97967 22.7832 1.13062 21.1222 0.854831 18.9973C0.848563 18.9472 0.823491 18.8971 0.810955 18.8469C0.804688 18.6401 0.804688 18.4207 0.804688 18.2013Z" fill="#EB564F"/>
<path d="M18.8187 17.3678C19.3703 16.8163 19.8843 16.2897 20.4108 15.7758C20.5173 15.6692 20.6552 15.5752 20.7994 15.5313C21.1003 15.4373 21.4137 15.5815 21.5704 15.8385C21.7333 16.108 21.7208 16.4339 21.5014 16.6658C20.7743 17.4054 20.041 18.1451 19.2951 18.8659C19.0256 19.1229 18.6307 19.1041 18.3612 18.8471C17.9663 18.471 17.5777 18.0824 17.2016 17.6875C16.9321 17.4117 16.9446 16.9792 17.2079 16.716C17.4774 16.4402 17.9099 16.4339 18.1982 16.7097C18.405 16.9165 18.5994 17.1359 18.8187 17.3678Z" fill="white"/>
</g>
<defs>
<clipPath id="clip0_21662_42829">
<rect width="24.0689" height="24" fill="white" transform="translate(0.804688 0.350098)"/>
</clipPath>
</defs>
</svg>
