<svg width="32" height="32" viewBox="0 0 32 32" fill="none" xmlns="http://www.w3.org/2000/svg">
<g clip-path="url(#clip0_21662_5892)">
<path d="M15.6405 31.6113C24.2785 31.6113 31.281 24.6088 31.281 15.9708C31.281 7.3328 24.2785 0.330322 15.6405 0.330322C7.00248 0.330322 0 7.3328 0 15.9708C0 24.6088 7.00248 31.6113 15.6405 31.6113Z" fill="white"/>
<path d="M19.5722 16.583H16.7814V26.8074H12.553V16.583H10.542V12.9898H12.553V10.6645C12.553 9.00172 13.3429 6.39795 16.819 6.39795L19.9511 6.41105V9.89892H17.6786C17.3058 9.89892 16.7817 10.0852 16.7817 10.8784V12.9931H19.9417L19.5722 16.583Z" fill="#393E46"/>
</g>
<defs>
<clipPath id="clip0_21662_5892">
<rect width="31.281" height="31.281" fill="white" transform="translate(0 0.330322)"/>
</clipPath>
</defs>
</svg>
