<svg width="106" height="32" viewBox="0 0 106 32" fill="none" xmlns="http://www.w3.org/2000/svg">
<g clip-path="url(#clip0_21662_5851)">
<path d="M102.379 31.3303H3.79506C1.74486 31.3303 0 29.6512 0 27.6275V3.94699C0 1.92338 1.74486 0.330322 3.79506 0.330322H102.423C104.473 0.330322 106.044 1.92338 106.044 3.94699V27.6275C106.044 29.6512 104.43 31.3303 102.379 31.3303Z" fill="#646464"/>
<path d="M105.389 27.6275C105.389 29.2636 104.037 30.5983 102.379 30.5983H3.79503C2.13742 30.5983 0.785156 29.2636 0.785156 27.6275V3.94691C0.785156 2.3108 2.13742 0.976074 3.79503 0.976074H102.423C104.081 0.976074 105.433 2.3108 105.433 3.94691L105.389 27.6275Z" fill="black"/>
<path d="M23.7299 15.615C23.6863 13.1178 25.8237 11.9122 25.9109 11.8261C24.7332 10.1039 22.9011 9.88862 22.2468 9.84557C20.72 9.67335 19.1933 10.7497 18.4081 10.7497C17.6229 10.7497 16.4015 9.84557 15.0928 9.88862C13.3916 9.93168 11.8212 10.8789 10.9924 12.3858C9.20395 15.4428 10.5562 19.9206 12.2575 22.3747C13.1299 23.5803 14.0896 24.915 15.3982 24.872C16.6632 24.8289 17.143 24.0539 18.7134 24.0539C20.2402 24.0539 20.6764 24.872 22.0286 24.8289C23.3809 24.7858 24.2533 23.6233 25.0821 22.4178C26.0854 21.04 26.478 19.6622 26.478 19.6192C26.3908 19.6192 23.7735 18.6289 23.7299 15.615Z" fill="white"/>
<path d="M21.2433 8.25252C21.9412 7.39141 22.4211 6.27196 22.2902 5.06641C21.2869 5.10946 20.0655 5.7553 19.3239 6.57335C18.6696 7.3053 18.1462 8.51085 18.277 9.6303C19.3676 9.75946 20.5017 9.11363 21.2433 8.25252Z" fill="white"/>
<path d="M42.2256 24.7H40.4371L39.4774 21.6861H36.075L35.1589 24.7H33.4141L36.7729 14.3667H38.8231L42.2256 24.7ZM39.1721 20.3945L38.2997 17.682C38.2124 17.4236 38.0379 16.7778 37.7762 15.7445H37.7326C37.6453 16.175 37.4709 16.8209 37.2527 17.682L36.3803 20.3945H39.1721Z" fill="white"/>
<path d="M50.8626 20.911C50.8626 22.1597 50.5136 23.193 49.8157 23.9249C49.205 24.5708 48.4198 24.9152 47.5037 24.9152C46.5004 24.9152 45.8025 24.5708 45.3663 23.8388V27.7569H43.7087V19.7055C43.7087 18.9305 43.7087 18.1124 43.665 17.2513H45.1482L45.2354 18.4138H45.279C45.8461 17.5097 46.6749 17.0791 47.8091 17.0791C48.6815 17.0791 49.4231 17.4235 50.0338 18.1124C50.6008 18.8444 50.8626 19.7485 50.8626 20.911ZM49.1613 20.9541C49.1613 20.2222 48.9869 19.6194 48.6815 19.1458C48.3325 18.6722 47.8527 18.4138 47.242 18.4138C46.8494 18.4138 46.4568 18.543 46.1078 18.8013C45.7589 19.0597 45.5408 19.4472 45.4535 19.8777C45.4099 20.093 45.3663 20.2652 45.3663 20.3944V21.643C45.3663 22.2027 45.5408 22.6333 45.8897 23.0208C46.2387 23.4083 46.6749 23.5805 47.1984 23.5805C47.8091 23.5805 48.3325 23.3222 48.6815 22.8485C48.9869 22.3749 49.1613 21.7291 49.1613 20.9541Z" fill="white"/>
<path d="M59.5434 20.911C59.5434 22.1597 59.1944 23.193 58.4965 23.9249C57.8858 24.5708 57.1006 24.9152 56.1846 24.9152C55.1813 24.9152 54.4833 24.5708 54.0471 23.8388H54.0035V27.7569H52.3459V19.7055C52.3459 18.9305 52.3459 18.1124 52.3022 17.2513H53.7854L53.8726 18.4138H53.9162C54.4833 17.5097 55.3121 17.0791 56.4463 17.0791C57.3187 17.0791 58.0603 17.4235 58.671 18.1124C59.2381 18.8444 59.5434 19.7485 59.5434 20.911ZM57.8422 20.9541C57.8422 20.2222 57.6677 19.6194 57.3623 19.1458C57.0134 18.6722 56.5335 18.4138 55.9228 18.4138C55.4866 18.4138 55.1376 18.543 54.7887 18.8013C54.4397 19.0597 54.2216 19.4472 54.1343 19.8777C54.0907 20.093 54.0471 20.2652 54.0471 20.3944V21.643C54.0471 22.2027 54.2216 22.6333 54.5706 23.0208C54.9195 23.4083 55.3557 23.5805 55.8792 23.5805C56.4899 23.5805 57.0134 23.3222 57.3623 22.8485C57.6677 22.3749 57.8422 21.7291 57.8422 20.9541Z" fill="white"/>
<path d="M69.2709 21.8152C69.2709 22.6763 68.9656 23.4082 68.3549 23.9679C67.6569 24.5707 66.7409 24.8721 65.5195 24.8721C64.3853 24.8721 63.5129 24.6568 62.8149 24.2263L63.2075 22.8485C63.9491 23.2791 64.7343 23.4943 65.6503 23.4943C66.261 23.4943 66.7845 23.3652 67.1335 23.0638C67.4824 22.7624 67.6569 22.4179 67.6569 21.9443C67.6569 21.5138 67.5261 21.1693 67.2207 20.8679C66.9154 20.5666 66.4355 20.3082 65.7812 20.0499C63.9491 19.361 63.033 18.3707 63.033 17.0791C63.033 16.2179 63.3384 15.5291 63.9927 15.0124C64.647 14.4527 65.4758 14.1943 66.5664 14.1943C67.5261 14.1943 68.3112 14.3666 68.9219 14.6679L68.4857 16.0027C67.875 15.7013 67.2207 15.5291 66.4791 15.5291C65.8684 15.5291 65.4322 15.6582 65.0833 15.9596C64.8215 16.2179 64.647 16.5193 64.647 16.9068C64.647 17.2943 64.8215 17.6388 65.1269 17.8971C65.3886 18.1554 65.9121 18.4138 66.6536 18.7152C67.5697 19.0596 68.224 19.4902 68.6602 19.9638C69.0528 20.5235 69.2709 21.1263 69.2709 21.8152Z" fill="white"/>
<path d="M74.8109 18.5H72.9788V22.1167C72.9788 23.0208 73.2841 23.4944 73.9385 23.4944C74.2438 23.4944 74.5055 23.4514 74.68 23.4083L74.7236 24.6569C74.3747 24.7861 73.9385 24.8292 73.415 24.8292C72.7607 24.8292 72.2372 24.6139 71.8446 24.2264C71.452 23.8389 71.2775 23.15 71.2775 22.2028V18.4569H70.187V17.2083H71.2775V15.8305L72.9352 15.3569V17.2083H74.7673V18.5H74.8109Z" fill="white"/>
<path d="M83.1427 20.9541C83.1427 22.1166 82.7937 23.0208 82.1394 23.7527C81.4414 24.5277 80.5254 24.8722 79.3912 24.8722C78.3007 24.8722 77.3847 24.5277 76.7303 23.7958C76.076 23.0638 75.7271 22.1597 75.7271 21.0402C75.7271 19.8777 76.076 18.9305 76.7303 18.1985C77.4283 17.4666 78.3007 17.0791 79.4785 17.0791C80.569 17.0791 81.4851 17.4235 82.1394 18.1555C82.7937 18.9305 83.1427 19.8347 83.1427 20.9541ZM81.3978 20.9972C81.3978 20.3083 81.267 19.7055 80.9616 19.2319C80.6126 18.6291 80.0892 18.3277 79.4785 18.3277C78.8242 18.3277 78.3007 18.6291 77.9517 19.2319C77.6464 19.7055 77.5155 20.3083 77.5155 21.0402C77.5155 21.7291 77.6464 22.3319 77.9517 22.8055C78.3007 23.4083 78.8242 23.7097 79.4785 23.7097C80.1328 23.7097 80.6126 23.4083 80.9616 22.8055C81.2233 22.2458 81.3978 21.686 81.3978 20.9972Z" fill="white"/>
<path d="M88.5952 18.7153C88.4207 18.6722 88.2462 18.6722 88.0717 18.6722C87.461 18.6722 87.0248 18.8875 86.7195 19.3181C86.4578 19.7056 86.2833 20.1792 86.2833 20.7819V24.7H84.6257V19.6194C84.6257 18.7583 84.6257 17.9833 84.582 17.2945H86.0215L86.0652 18.7153H86.1088C86.2833 18.2417 86.545 17.8111 86.9376 17.5528C87.3302 17.2945 87.7228 17.1653 88.159 17.1653C88.3335 17.1653 88.4643 17.1653 88.5952 17.2083V18.7153Z" fill="white"/>
<path d="M96.0543 20.6527C96.0543 20.9541 96.0543 21.2124 96.0107 21.3847H90.9942C90.9942 22.1166 91.2559 22.6763 91.7358 23.0638C92.172 23.4083 92.6954 23.5805 93.3934 23.5805C94.1349 23.5805 94.8329 23.4513 95.4436 23.236L95.7053 24.3985C95.0074 24.6999 94.1349 24.8722 93.1753 24.8722C91.9975 24.8722 91.0814 24.5277 90.4271 23.8388C89.7728 23.1499 89.4238 22.2458 89.4238 21.0833C89.4238 19.9638 89.7292 19.0166 90.3399 18.2847C90.9942 17.5097 91.8666 17.0791 92.9572 17.0791C94.0477 17.0791 94.8765 17.4666 95.4436 18.2847C95.8362 18.9305 96.0543 19.7055 96.0543 20.6527ZM94.4839 20.2222C94.4839 19.7485 94.3967 19.318 94.1786 18.9305C93.8732 18.4569 93.437 18.2416 92.8263 18.2416C92.2592 18.2416 91.823 18.4569 91.474 18.9305C91.2123 19.2749 91.0378 19.7055 90.9942 20.2222H94.4839Z" fill="white"/>
<path d="M38.6048 8.03733C38.6048 8.9415 38.3431 9.63039 37.776 10.104C37.2525 10.5346 36.5546 10.7498 35.5949 10.7498C35.1151 10.7498 34.7225 10.7498 34.3735 10.7068V5.71233C34.8097 5.62622 35.2896 5.62622 35.813 5.62622C36.7291 5.62622 37.3834 5.79844 37.8632 6.18594C38.3431 6.6165 38.6048 7.21928 38.6048 8.03733ZM37.7324 8.08039C37.7324 7.47761 37.5579 7.04705 37.2525 6.70261C36.9472 6.40122 36.4674 6.229 35.8567 6.229C35.5949 6.229 35.3768 6.229 35.2023 6.27205V10.0609C35.2896 10.0609 35.5077 10.104 35.7694 10.104C36.3801 10.104 36.9036 9.93178 37.2089 9.58733C37.5579 9.24289 37.7324 8.72622 37.7324 8.08039Z" fill="white"/>
<path d="M43.2285 8.85529C43.2285 9.41502 43.054 9.88863 42.7487 10.2331C42.3997 10.6206 41.9635 10.7928 41.3964 10.7928C40.8729 10.7928 40.4367 10.6206 40.0877 10.2761C39.7824 9.93168 39.6079 9.45807 39.6079 8.94141C39.6079 8.38168 39.7824 7.90807 40.0877 7.56363C40.4367 7.21918 40.8729 7.00391 41.44 7.00391C41.9635 7.00391 42.3997 7.17613 42.7487 7.52057C43.054 7.86502 43.2285 8.29557 43.2285 8.85529ZM42.3561 8.85529C42.3561 8.51085 42.2688 8.20946 42.1379 7.99418C41.9635 7.69279 41.7017 7.56363 41.3964 7.56363C41.0474 7.56363 40.8293 7.69279 40.6548 7.99418C40.524 8.25252 40.4367 8.51085 40.4367 8.85529C40.4367 9.19974 40.524 9.50113 40.6548 9.71641C40.8293 10.0178 41.091 10.147 41.3964 10.147C41.7017 10.147 41.9635 10.0178 42.1379 9.71641C42.2688 9.50113 42.3561 9.19974 42.3561 8.85529Z" fill="white"/>
<path d="M49.3791 7.04696L48.2013 10.7067H47.4598L46.9799 9.11363C46.8491 8.72613 46.7618 8.33863 46.6746 7.95113C46.5873 8.33863 46.5001 8.72613 46.3692 9.11363L45.8458 10.7067H45.1042L44.0137 7.04696H44.8425L45.2787 8.76918C45.3659 9.19974 45.4532 9.58724 45.5404 9.93168C45.584 9.63029 45.7149 9.24279 45.8458 8.76918L46.3692 7.00391H47.0236L47.547 8.72613C47.6779 9.15668 47.7651 9.54418 47.8524 9.93168H47.896C47.9396 9.54418 48.0268 9.15668 48.1577 8.72613L48.5939 7.00391H49.3791V7.04696Z" fill="white"/>
<path d="M53.6544 10.7068H52.8256V8.59705C52.8256 7.95122 52.5639 7.64983 52.084 7.64983C51.8223 7.64983 51.6478 7.73594 51.4733 7.90816C51.3425 8.08038 51.2552 8.29566 51.2552 8.55399V10.7068H50.4264V8.08038C50.4264 7.77899 50.4264 7.39149 50.3828 7.04705H51.1244L51.168 7.60677H51.2116C51.2989 7.43455 51.4297 7.26233 51.6478 7.17622C51.8659 7.04705 52.1277 6.96094 52.3894 6.96094C52.7384 6.96094 53.0437 7.0901 53.2618 7.30538C53.5672 7.56372 53.698 7.99427 53.698 8.51094V10.7068H53.6544Z" fill="white"/>
<path d="M55.9226 10.7068H55.0938V5.36792H55.9226V10.7068Z" fill="white"/>
<path d="M60.7646 8.85529C60.7646 9.41502 60.5901 9.88863 60.2848 10.2331C59.9358 10.6206 59.4996 10.7928 58.9325 10.7928C58.4091 10.7928 57.9729 10.6206 57.6239 10.2761C57.3185 9.93168 57.144 9.45807 57.144 8.94141C57.144 8.38168 57.3185 7.90807 57.6239 7.56363C57.9292 7.21918 58.4091 7.00391 58.9761 7.00391C59.4996 7.00391 59.9358 7.17613 60.2848 7.52057C60.6338 7.86502 60.7646 8.29557 60.7646 8.85529ZM59.9358 8.85529C59.9358 8.51085 59.8486 8.20946 59.7177 7.99418C59.5432 7.69279 59.2815 7.56363 58.9761 7.56363C58.6272 7.56363 58.4091 7.69279 58.2346 7.99418C58.1037 8.25252 58.0165 8.51085 58.0165 8.85529C58.0165 9.19974 58.1037 9.50113 58.2346 9.71641C58.4091 10.0178 58.6708 10.147 58.9761 10.147C59.2815 10.147 59.5432 10.0178 59.7177 9.71641C59.8486 9.50113 59.9358 9.19974 59.9358 8.85529Z" fill="white"/>
<path d="M64.7776 10.7068H64.0361L63.9924 10.2762H63.9488C63.6871 10.6207 63.3381 10.7929 62.8583 10.7929C62.5093 10.7929 62.2476 10.6637 62.0295 10.4484C61.855 10.2332 61.7241 10.0179 61.7241 9.71649C61.7241 9.28594 61.8986 8.94149 62.2912 8.68316C62.6838 8.46788 63.2072 8.33872 63.9052 8.33872V8.2526C63.9052 7.77899 63.6435 7.52066 63.12 7.52066C62.771 7.52066 62.4221 7.60677 62.1603 7.77899L61.9859 7.26233C62.3348 7.04705 62.771 6.96094 63.2509 6.96094C64.2105 6.96094 64.6904 7.4776 64.6904 8.46788V9.8026C64.734 10.1901 64.734 10.4915 64.7776 10.7068ZM63.9052 9.45816V8.89844C62.9891 8.89844 62.5529 9.11372 62.5529 9.63038C62.5529 9.8026 62.5966 9.97483 62.7274 10.0609C62.8147 10.147 62.9891 10.1901 63.12 10.1901C63.2945 10.1901 63.469 10.147 63.6435 10.0179C63.8179 9.88872 63.9052 9.75955 63.9488 9.58733C63.9052 9.54427 63.9052 9.50122 63.9052 9.45816Z" fill="white"/>
<path d="M69.4451 10.7067H68.7036L68.6599 10.1039H68.6163C68.3982 10.5345 68.0056 10.7928 67.4385 10.7928C67.0023 10.7928 66.6097 10.6206 66.3044 10.2762C65.999 9.93172 65.8682 9.50117 65.8682 8.94144C65.8682 8.33867 66.0427 7.86506 66.348 7.52061C66.6534 7.17617 67.0459 7.00394 67.4822 7.00394C67.962 7.00394 68.311 7.17617 68.5291 7.52061V5.41089H69.3579V9.7595C69.4015 10.0609 69.4451 10.4053 69.4451 10.7067ZM68.6163 9.15672V8.55394C68.6163 8.46783 68.6163 8.38172 68.5727 8.29561C68.5291 8.08033 68.4418 7.95117 68.2673 7.822C68.0929 7.69283 67.9184 7.60672 67.7003 7.60672C67.3949 7.60672 67.1332 7.73589 66.9587 7.95117C66.7842 8.2095 66.697 8.51089 66.697 8.85533C66.697 9.19978 66.7842 9.50117 66.9587 9.71644C67.1332 9.97478 67.3949 10.0609 67.7003 10.0609C67.962 10.0609 68.1801 9.97478 68.3546 9.7595C68.5291 9.63033 68.6163 9.41506 68.6163 9.15672Z" fill="white"/>
<path d="M76.5117 8.85529C76.5117 9.41502 76.3372 9.88863 76.0319 10.2331C75.6829 10.6206 75.2467 10.7928 74.6796 10.7928C74.1561 10.7928 73.7199 10.6206 73.3709 10.2761C73.0656 9.93168 72.8911 9.45807 72.8911 8.94141C72.8911 8.38168 73.0656 7.90807 73.3709 7.56363C73.7199 7.21918 74.1561 7.00391 74.7232 7.00391C75.2467 7.00391 75.6829 7.17613 76.0319 7.52057C76.3372 7.86502 76.5117 8.29557 76.5117 8.85529ZM75.6393 8.85529C75.6393 8.51085 75.552 8.20946 75.4212 7.99418C75.2467 7.69279 74.9849 7.56363 74.6796 7.56363C74.3306 7.56363 74.1125 7.69279 73.938 7.99418C73.8072 8.25252 73.7199 8.51085 73.7199 8.85529C73.7199 9.19974 73.8072 9.50113 73.938 9.71641C74.1125 10.0178 74.3742 10.147 74.6796 10.147C74.9849 10.147 75.2467 10.0178 75.4212 9.71641C75.552 9.50113 75.6393 9.19974 75.6393 8.85529Z" fill="white"/>
<path d="M80.9176 10.7068H80.0888V8.59705C80.0888 7.95122 79.8271 7.64983 79.3472 7.64983C79.0855 7.64983 78.911 7.73594 78.7365 7.90816C78.6057 8.08038 78.5184 8.29566 78.5184 8.55399V10.7068H77.6896V8.08038C77.6896 7.77899 77.6896 7.39149 77.646 7.04705H78.3876L78.4312 7.60677H78.4748C78.562 7.43455 78.6929 7.26233 78.911 7.17622C79.1291 7.04705 79.3909 6.96094 79.6526 6.96094C80.0016 6.96094 80.2633 7.0901 80.525 7.30538C80.8304 7.56372 80.9612 7.99427 80.9612 8.51094V10.7068H80.9176Z" fill="white"/>
<path d="M86.4573 7.64985H85.5412V9.41513C85.5412 9.84569 85.7157 10.104 86.0211 10.104C86.1519 10.104 86.2828 10.104 86.37 10.061V10.6637C86.1955 10.7068 85.9774 10.7499 85.7157 10.7499C85.4104 10.7499 85.1486 10.6637 84.9742 10.4485C84.7997 10.2332 84.7124 9.9318 84.7124 9.45819V7.64985H84.189V7.04708H84.7124V6.35819L85.5412 6.09985V7.00402H86.4573V7.64985Z" fill="white"/>
<path d="M90.8198 10.7068H89.991V8.64014C89.991 7.99431 89.7292 7.64986 89.2494 7.64986C88.8568 7.64986 88.5951 7.82209 88.4642 8.20959C88.4206 8.2957 88.4206 8.38181 88.4206 8.51098V10.7068H87.5918V5.36792H88.4206V7.56375C88.6823 7.17625 89.0313 6.96098 89.5548 6.96098C89.9037 6.96098 90.1655 7.09014 90.3836 7.30542C90.6453 7.56375 90.8198 7.99431 90.8198 8.51098V10.7068Z" fill="white"/>
<path d="M95.3128 8.68325C95.3128 8.81241 95.3128 8.94158 95.2692 9.07075H92.7827C92.7827 9.41519 92.9136 9.71658 93.1317 9.8888C93.3498 10.061 93.6116 10.1471 93.9605 10.1471C94.3095 10.1471 94.6585 10.1041 94.9638 9.97491L95.0947 10.5346C94.7457 10.6638 94.3095 10.7499 93.8297 10.7499C93.2626 10.7499 92.7827 10.5777 92.4774 10.2332C92.1284 9.8888 91.9976 9.45825 91.9976 8.89852C91.9976 8.3388 92.1284 7.90825 92.4338 7.52075C92.7391 7.13325 93.1753 6.91797 93.7424 6.91797C94.2659 6.91797 94.7021 7.13325 94.9638 7.52075C95.2255 7.86519 95.3128 8.25269 95.3128 8.68325ZM94.5276 8.46797C94.5276 8.20964 94.484 8.03741 94.3531 7.82214C94.2223 7.60686 94.0041 7.47769 93.6988 7.47769C93.4371 7.47769 93.219 7.60686 93.0445 7.82214C92.9136 7.99436 92.8264 8.20964 92.7827 8.46797H94.5276Z" fill="white"/>
</g>
<defs>
<clipPath id="clip0_21662_5851">
<rect width="106" height="31" fill="white" transform="translate(0 0.330322)"/>
</clipPath>
</defs>
</svg>
