<svg width="93" height="33" viewBox="0 0 93 33" fill="none" xmlns="http://www.w3.org/2000/svg">
<g clip-path="url(#clip0_21662_5818)">
<path d="M92.7392 27.5736C92.7392 30.3844 90.6532 32.1142 87.8719 32.1142H5.34532C2.52055 32.1142 0.260742 29.8655 0.260742 27.0547V5.6493C0.260742 2.83849 2.52055 0.589844 5.34532 0.589844H87.8719C90.6967 0.589844 92.7392 2.83849 92.7392 5.6493V27.5736Z" fill="#010101" stroke="#646464" stroke-width="1.1758" stroke-miterlimit="10"/>
<path d="M92.7392 27.5736C92.7392 30.3844 90.6532 32.1142 87.8719 32.1142H5.34532C2.52055 32.1142 0.260742 29.8655 0.260742 27.0547V5.6493C0.260742 2.83849 2.52055 0.589844 5.34532 0.589844H87.8719C90.6967 0.589844 92.7392 2.83849 92.7392 5.6493V27.5736Z" fill="#010101" stroke="#646464" stroke-width="1.1758" stroke-miterlimit="10"/>
<path d="M63.4488 23.2062L62.7535 23.8548C62.5797 23.9413 62.4493 24.0278 62.2755 24.1143C61.7974 24.3305 61.3194 24.3738 60.8848 24.3738C60.4068 24.3738 59.7115 24.3305 58.9727 23.8116C57.9297 23.0765 57.4951 21.8656 57.4951 20.7846C57.4951 18.5359 59.3203 17.4548 60.8414 17.4548C61.3629 17.4548 61.8844 17.5846 62.3189 17.844C63.0577 18.3197 63.2316 18.9251 63.3185 19.2711L59.8853 20.6548L58.7554 20.7413C59.1031 22.5575 60.3633 23.6386 61.754 23.6386C62.4493 23.6386 62.9708 23.4224 63.4488 23.2062C63.5358 23.1197 63.4488 23.2062 63.4488 23.2062ZM61.4063 19.5305C61.6671 19.444 61.8409 19.3575 61.8409 19.1413C61.8409 18.5792 61.189 17.8873 60.4068 17.8873C59.8418 17.8873 58.7554 18.3197 58.7554 19.8765C58.7554 20.1359 58.7989 20.3954 58.7989 20.6548L61.4063 19.5305Z" fill="#A6A6A6"/>
<path d="M56.3213 23.0765C56.3213 23.6386 56.4083 23.7251 56.8863 23.7684C57.147 23.8116 57.3643 23.8116 57.6251 23.8549L57.1036 24.1576H54.5396C54.8872 23.7251 54.9307 23.6819 54.9307 23.3792V23.0765V14.4711H53.8008L54.8872 13.9521H56.9732C56.5386 14.2116 56.4083 14.3846 56.3213 14.8603V23.0765Z" fill="#A6A6A6"/>
<path d="M52.3668 18.1469C52.7145 18.4063 53.4098 19.0117 53.4098 20.0928C53.4098 21.1739 52.8014 21.6496 52.193 22.1253C52.0191 22.2982 51.8019 22.5144 51.8019 22.8171C51.8019 23.1199 52.0191 23.2928 52.193 23.4226L52.7145 23.8117C53.3663 24.3307 53.9313 24.8496 53.9313 25.8442C53.9313 27.1847 52.6276 28.5685 50.107 28.5685C48.021 28.5685 46.978 27.5739 46.978 26.4928C46.978 25.9739 47.2388 25.2388 48.1079 24.7199C49.0205 24.1577 50.2374 24.1144 50.8892 24.0712C50.6719 23.8117 50.4547 23.5523 50.4547 23.0766C50.4547 22.8171 50.5416 22.6874 50.585 22.5144C50.4112 22.5144 50.2808 22.5577 50.107 22.5577C48.586 22.5577 47.7168 21.4334 47.7168 20.309C47.7168 19.6604 48.021 18.9253 48.6294 18.3631C49.4551 17.6712 50.4547 17.5847 51.2369 17.5847H54.2355L53.3229 18.1036L52.3668 18.1469ZM51.3238 24.5469C51.1934 24.5469 51.15 24.5469 50.9762 24.5469C50.8458 24.5469 50.0635 24.5901 49.4551 24.7631C49.1509 24.8928 48.1949 25.2388 48.1949 26.2334C48.1949 27.2712 49.1944 28.0063 50.7589 28.0063C52.1495 28.0063 52.8883 27.3577 52.8883 26.4496C52.8883 25.7144 52.4103 25.3253 51.3238 24.5469ZM51.7584 21.8226C52.1061 21.4766 52.1061 21.0442 52.1061 20.7847C52.1061 19.7469 51.4976 18.1469 50.2808 18.1469C49.8897 18.1469 49.4986 18.3199 49.2813 18.6226C49.0206 18.9253 48.9771 19.3144 48.9771 19.7036C48.9771 20.655 49.542 22.255 50.8023 22.255C51.1065 22.2117 51.4977 22.0388 51.7584 21.8226Z" fill="#A6A6A6"/>
<path d="M43.3712 24.3738C41.0679 24.3738 39.8076 22.6008 39.8076 20.9575C39.8076 19.0548 41.3721 17.4548 43.5885 17.4548C45.7179 17.4548 47.0651 19.0981 47.0651 20.8711C47.0216 22.5575 45.7179 24.3738 43.3712 24.3738ZM45.1529 23.2062C45.5006 22.7305 45.5875 22.1683 45.5875 21.6062C45.5875 20.3521 44.9791 17.8873 43.1973 17.8873C42.7193 17.8873 42.2413 18.0602 41.8936 18.3629C41.3286 18.8819 41.2417 19.4873 41.2417 20.1359C41.2417 21.5629 41.9371 23.8981 43.7188 23.8981C44.2403 23.9413 44.8487 23.6386 45.1529 23.2062Z" fill="#A6A6A6"/>
<path d="M35.6353 24.3738C33.3321 24.3738 32.1152 22.6008 32.1152 20.9575C32.1152 19.0548 33.6797 17.4548 35.8961 17.4548C38.0255 17.4548 39.3727 19.0981 39.3727 20.8711C39.3293 22.5575 37.9821 24.3738 35.6353 24.3738ZM37.4606 23.2062C37.8082 22.7305 37.8951 22.1683 37.8951 21.6062C37.8951 20.3521 37.2867 17.8873 35.505 17.8873C35.0269 17.8873 34.5489 18.0602 34.2012 18.3629C33.6363 18.8819 33.5493 19.4873 33.5493 20.1359C33.5493 21.5629 34.2447 23.8981 36.0265 23.8981C36.5479 23.9413 37.1129 23.6386 37.4606 23.2062Z" fill="#A6A6A6"/>
<path d="M31.1594 23.8549L29.2038 24.2873C28.4215 24.4171 27.7262 24.5036 26.944 24.5036C23.2066 24.5036 21.7725 21.736 21.7725 19.6171C21.7725 16.9792 23.815 14.5576 27.2916 14.5576C28.0304 14.5576 28.7257 14.6441 29.3776 14.8603C30.3771 15.163 30.8552 15.509 31.1594 15.7252L30.0295 16.763L29.5514 16.8495L29.8991 16.3306C29.4211 15.8982 28.5954 15.0765 26.9874 15.0765C24.858 15.0765 23.2066 16.7198 23.2066 19.0549C23.2066 21.6063 25.0753 23.9846 28.0304 23.9846C28.8996 23.9846 29.3341 23.8117 29.7687 23.6387V21.4765L27.7262 21.6063L28.8127 21.0441H31.6809L31.3332 21.39C31.2463 21.4765 31.2463 21.4765 31.2028 21.6063C31.2028 21.736 31.1594 22.1252 31.1594 22.2549V23.8549Z" fill="#A6A6A6"/>
<path d="M67.6641 23.2495V26.9251H66.9253V17.5846H67.6641V18.6657C68.1421 17.9738 69.0113 17.4116 70.0108 17.4116C71.836 17.4116 73.0529 18.7954 73.0529 20.9576C73.0529 23.1197 71.836 24.5035 70.0108 24.5035C69.0547 24.5468 68.1856 24.0278 67.6641 23.2495ZM72.2706 20.9576C72.2706 19.3143 71.4015 18.0603 69.8804 18.0603C68.9244 18.0603 68.0117 18.7954 67.6206 19.4441V22.4278C68.0117 23.0765 68.9244 23.8549 69.8804 23.8549C71.4015 23.8549 72.2706 22.6008 72.2706 20.9576Z" fill="#A6A6A6"/>
<path d="M74.0522 24.3738V14.99H74.791V24.3738H74.0522Z" fill="#A6A6A6"/>
<path d="M83.0484 26.3196C83.2222 26.4061 83.4829 26.4493 83.6568 26.4493C84.0913 26.4493 84.439 26.2764 84.6998 25.6277L85.2213 24.4169L82.3096 17.5845H83.1353L85.6124 23.5088L88.0895 17.5845H88.9152L85.3951 25.8439C85.0474 26.7088 84.439 27.098 83.6568 27.098C83.4395 27.098 83.0918 27.0547 82.918 27.0115L83.0484 26.3196Z" fill="#A6A6A6"/>
<path d="M80.8751 24.3305C80.8316 24.1143 80.7882 23.8981 80.7447 23.7251C80.7013 23.5521 80.7013 23.3792 80.7013 23.2062C80.4405 23.5954 80.0929 23.8981 79.6583 24.1143C79.2237 24.3738 78.7891 24.4602 78.1807 24.4602C77.4854 24.4602 76.9204 24.2873 76.5293 23.9413C76.1382 23.5954 75.9209 23.1197 75.9209 22.5143C75.9209 21.9089 76.2251 21.4332 76.7901 21.044C77.355 20.6548 78.0938 20.4819 79.0064 20.4819H80.7013V19.617C80.7013 19.1413 80.5274 18.7521 80.2232 18.4927C79.8756 18.2332 79.441 18.0602 78.8326 18.0602C78.2676 18.0602 77.833 18.19 77.4854 18.4494C77.1377 18.7089 76.9639 19.0116 76.9639 19.4008H76.2251V19.3575C76.1816 18.8386 76.4424 18.4062 76.9204 18.017C77.3985 17.6278 78.0503 17.4548 78.876 17.4548C79.6583 17.4548 80.3101 17.6278 80.8316 18.017C81.3097 18.4062 81.5704 18.9251 81.5704 19.6602V22.99C81.5704 23.2494 81.5704 23.4656 81.6139 23.6819C81.6573 23.8981 81.7008 24.1143 81.7443 24.3738L80.8751 24.3305ZM78.2676 23.8116C78.876 23.8116 79.3541 23.6819 79.7887 23.3792C80.2232 23.1197 80.5709 22.7305 80.7013 22.3413V21.044H78.963C78.3111 21.044 77.7461 21.1738 77.3116 21.4765C76.877 21.7792 76.6597 22.1251 76.6597 22.5143C76.6597 22.9035 76.7901 23.2062 77.0508 23.4224C77.4419 23.6819 77.7896 23.8116 78.2676 23.8116Z" fill="#A6A6A6"/>
<path d="M21.8159 7.33565C21.8159 5.90863 22.9024 4.95728 24.2061 4.95728C25.1187 4.95728 25.6837 5.38971 26.0313 5.90863L25.3795 6.29782C25.1187 5.95187 24.6841 5.69241 24.2061 5.69241C23.2935 5.69241 22.6416 6.3843 22.6416 7.33565C22.6416 8.28701 23.3369 8.9789 24.2061 8.9789C24.6841 8.9789 25.0753 8.76268 25.2926 8.58971V7.89782H23.9019V7.20592H26.0748V8.89241C25.6402 9.41133 24.9883 9.71403 24.2061 9.71403C22.9024 9.67079 21.8159 8.76268 21.8159 7.33565Z" fill="#A6A6A6"/>
<path d="M27.1177 9.58424V5.0437H30.2466V5.73559H27.8999V6.90316H30.2032V7.59505H27.8999V8.84911H30.2466V9.541L27.1177 9.58424Z" fill="#A6A6A6"/>
<path d="M32.5064 9.58424V5.73559H31.1157V5.0437H34.7227V5.73559H33.3321V9.58424H32.5064Z" fill="#A6A6A6"/>
<path d="M37.5044 9.58424V5.0437H38.3301V9.62749H37.5044V9.58424Z" fill="#A6A6A6"/>
<path d="M40.5464 9.58424V5.73559H39.1558V5.0437H42.7628V5.73559H41.3721V9.58424H40.5464Z" fill="#A6A6A6"/>
<path d="M45.3267 7.33565C45.3267 5.95187 46.2827 4.95728 47.6734 4.95728C49.064 4.95728 50.0201 5.95187 50.0201 7.33565C50.0201 8.71944 49.064 9.71403 47.6734 9.71403C46.2827 9.67079 45.3267 8.6762 45.3267 7.33565ZM49.1944 7.33565C49.1944 6.3843 48.586 5.69241 47.6734 5.69241C46.7608 5.69241 46.1524 6.3843 46.1524 7.33565C46.1524 8.28701 46.7608 8.9789 47.6734 8.9789C48.586 8.9789 49.1944 8.24376 49.1944 7.33565Z" fill="#A6A6A6"/>
<path d="M54.1485 9.58424L51.7583 6.29776V9.58424H50.9326V5.0437H51.7583L54.105 8.20046V5.0437H54.9308V9.62749H54.1485V9.58424Z" fill="#A6A6A6"/>
<path d="M14.5583 18.233L5.38869 13.2167C5.12794 13.087 4.86719 13.0438 4.69336 13.087L12.2116 20.5681L14.5583 18.233Z" fill="url(#paint0_linear_21662_5818)"/>
<path d="M14.5582 22.9464L17.6871 21.2167C18.339 20.8707 18.339 20.3086 17.6871 19.9626L14.5582 18.2329L12.2114 20.568L14.5582 22.9464Z" fill="url(#paint1_linear_21662_5818)"/>
<path d="M4.69337 13.0869C4.43262 13.1734 4.21533 13.4761 4.21533 13.8653V27.2707C4.21533 27.7031 4.38916 27.9626 4.64991 28.0491L12.1681 20.568L4.69337 13.0869Z" fill="url(#paint2_linear_21662_5818)"/>
<path d="M4.6499 28.0924C4.86719 28.1789 5.08448 28.1357 5.34523 27.9627L14.5583 22.9465L12.2116 20.6113L4.6499 28.0924Z" fill="url(#paint3_linear_21662_5818)"/>
</g>
<defs>
<linearGradient id="paint0_linear_21662_5818" x1="10.6092" y1="19.9798" x2="8.00719" y2="8.61702" gradientUnits="userSpaceOnUse">
<stop stop-color="#D6E59D"/>
<stop offset="0.4456" stop-color="#94C3A9"/>
<stop offset="1" stop-color="#00A3B6"/>
</linearGradient>
<linearGradient id="paint1_linear_21662_5818" x1="10.2811" y1="12.1845" x2="16.9538" y2="23.6372" gradientUnits="userSpaceOnUse">
<stop stop-color="#EC297B"/>
<stop offset="0.0192" stop-color="#ED327C"/>
<stop offset="0.7039" stop-color="#F5BB80"/>
<stop offset="1" stop-color="#FCE974"/>
</linearGradient>
<linearGradient id="paint2_linear_21662_5818" x1="8.27621" y1="24.29" x2="4.25076" y2="8.68108" gradientUnits="userSpaceOnUse">
<stop stop-color="#88CEBC"/>
<stop offset="0.0907" stop-color="#7DBDBA"/>
<stop offset="0.5396" stop-color="#467CAC"/>
<stop offset="0.8523" stop-color="#1D5AA1"/>
<stop offset="1" stop-color="#094F9C"/>
</linearGradient>
<linearGradient id="paint3_linear_21662_5818" x1="16.4713" y1="23.2678" x2="2.38894" y2="25.2064" gradientUnits="userSpaceOnUse">
<stop stop-color="#EF4B29"/>
<stop offset="0.4704" stop-color="#B4506B"/>
<stop offset="0.8353" stop-color="#8B5191"/>
<stop offset="1" stop-color="#7951A0"/>
</linearGradient>
<clipPath id="clip0_21662_5818">
<rect width="93" height="32" fill="white" transform="translate(0 0.330322)"/>
</clipPath>
</defs>
</svg>
