<svg width="200" height="21" viewBox="0 0 200 21" fill="none" xmlns="http://www.w3.org/2000/svg">
<g clip-path="url(#clip0_21662_43020)">
<path d="M4.00391 11.3083C5.58667 9.93635 7.58142 9.18506 9.64131 9.18506C11.7012 9.18506 13.6959 9.93635 15.2787 11.3083" stroke="#6D6E70" stroke-width="2" stroke-linecap="round" stroke-linejoin="round"/>
<path d="M1.13721 8.35017C3.47739 6.20347 6.48977 5.01904 9.60932 5.01904C12.7289 5.01904 15.7413 6.20347 18.0814 8.35017" stroke="#6D6E70" stroke-width="2" stroke-linecap="round" stroke-linejoin="round"/>
<path d="M6.83057 14.275C7.64351 13.674 8.61602 13.3511 9.61323 13.3511C10.6104 13.3511 11.583 13.674 12.3959 14.275" stroke="#6D6E70" stroke-width="2" stroke-linecap="round" stroke-linejoin="round"/>
<path d="M9.60938 17.5166H9.61738" stroke="#6D6E70" stroke-width="2" stroke-linecap="round" stroke-linejoin="round"/>
</g>
<g clip-path="url(#clip1_21662_43020)">
<path d="M106.145 6.20026C106.05 5.80477 105.856 5.4424 105.583 5.14977C105.311 4.85713 104.968 4.64458 104.591 4.53359C103.214 4.18359 97.7049 4.18359 97.7049 4.18359C97.7049 4.18359 92.1956 4.18359 90.8183 4.56693C90.4413 4.67791 90.0992 4.89046 89.8264 5.1831C89.5537 5.47574 89.3599 5.8381 89.2648 6.23359C89.0127 7.68822 88.8894 9.16385 88.8965 10.6419C88.8875 12.1311 89.0108 13.618 89.2648 15.0836C89.3697 15.4668 89.5677 15.8154 89.8399 16.0957C90.112 16.3759 90.449 16.5784 90.8183 16.6836C92.1956 17.0669 97.7049 17.0669 97.7049 17.0669C97.7049 17.0669 103.214 17.0669 104.591 16.6836C104.968 16.5726 105.311 16.3601 105.583 16.0674C105.856 15.7748 106.05 15.4124 106.145 15.0169C106.395 13.5733 106.518 12.1089 106.513 10.6419C106.522 9.15272 106.399 7.66584 106.145 6.20026V6.20026Z" stroke="#CDCFD3" stroke-width="2" stroke-linecap="round" stroke-linejoin="round"/>
<path d="M95.9033 13.367L100.508 10.642L95.9033 7.91699V13.367Z" stroke="#CDCFD3" stroke-width="2" stroke-linecap="round" stroke-linejoin="round"/>
</g>
<g clip-path="url(#clip2_21662_43020)">
<path d="M148.852 7.5166H149.653C150.502 7.5166 151.317 7.86779 151.918 8.49291C152.518 9.11803 152.856 9.96588 152.856 10.8499C152.856 11.734 152.518 12.5818 151.918 13.207C151.317 13.8321 150.502 14.1833 149.653 14.1833H148.852" stroke="#CDCFD3" stroke-width="2" stroke-linecap="round" stroke-linejoin="round"/>
<path d="M136.04 7.5166H148.852V15.0166C148.852 15.9007 148.515 16.7485 147.914 17.3736C147.313 17.9987 146.499 18.3499 145.649 18.3499H139.243C138.394 18.3499 137.579 17.9987 136.978 17.3736C136.378 16.7485 136.04 15.9007 136.04 15.0166V7.5166Z" stroke="#CDCFD3" stroke-width="2" stroke-linecap="round" stroke-linejoin="round"/>
<path d="M139.243 1.68359V4.18359" stroke="#CDCFD3" stroke-width="2" stroke-linecap="round" stroke-linejoin="round"/>
<path d="M142.446 1.68359V4.18359" stroke="#CDCFD3" stroke-width="2" stroke-linecap="round" stroke-linejoin="round"/>
<path d="M145.649 1.68359V4.18359" stroke="#CDCFD3" stroke-width="2" stroke-linecap="round" stroke-linejoin="round"/>
</g>
<g clip-path="url(#clip3_21662_43020)">
<path d="M198.398 9.18343C198.362 10.7671 197.984 12.322 197.291 13.7324C196.597 15.1427 195.607 16.3722 194.394 17.3293V20.0168C194.394 20.2378 194.31 20.4497 194.16 20.606C194.01 20.7623 193.806 20.8501 193.594 20.8501C193.381 20.8501 193.177 20.7623 193.027 20.606C192.877 20.4497 192.793 20.2378 192.793 20.0168V2.51676C192.786 2.20365 192.868 1.89535 193.029 1.63087C193.19 1.36639 193.423 1.15761 193.698 1.03093C194.015 0.897069 194.361 0.861956 194.696 0.929884C195.032 0.997813 195.34 1.16584 195.585 1.41343C197.442 3.53423 198.449 6.31451 198.398 9.18343ZM189.59 0.850098C189.377 0.850098 189.174 0.937895 189.023 1.09418C188.873 1.25046 188.789 1.46242 188.789 1.68343V6.68343C188.787 7.19865 188.632 7.70062 188.345 8.12068C188.059 8.54074 187.654 8.85836 187.187 9.0301V1.68343C187.187 1.46242 187.103 1.25046 186.953 1.09418C186.803 0.937895 186.599 0.850098 186.387 0.850098C186.174 0.850098 185.971 0.937895 185.82 1.09418C185.67 1.25046 185.586 1.46242 185.586 1.68343V9.0301C185.119 8.85836 184.715 8.54074 184.428 8.12068C184.141 7.70062 183.986 7.19865 183.984 6.68343V1.68343C183.984 1.46242 183.9 1.25046 183.75 1.09418C183.6 0.937895 183.396 0.850098 183.184 0.850098C182.971 0.850098 182.768 0.937895 182.617 1.09418C182.467 1.25046 182.383 1.46242 182.383 1.68343V6.68343C182.384 7.6436 182.703 8.574 183.287 9.31781C183.87 10.0616 184.682 10.5733 185.586 10.7668V20.0168C185.586 20.2378 185.67 20.4497 185.82 20.606C185.971 20.7623 186.174 20.8501 186.387 20.8501C186.599 20.8501 186.803 20.7623 186.953 20.606C187.103 20.4497 187.187 20.2378 187.187 20.0168V10.7668C188.091 10.5733 188.903 10.0616 189.487 9.31781C190.07 8.574 190.389 7.6436 190.39 6.68343V1.68343C190.39 1.46242 190.306 1.25046 190.156 1.09418C190.006 0.937895 189.802 0.850098 189.59 0.850098V0.850098Z" fill="#CDCFD3"/>
</g>
<g clip-path="url(#clip4_21662_43020)">
<path d="M47.9832 7.22047C47.74 7.22047 47.5226 7.22585 47.3001 7.22047C46.7568 7.2097 46.3376 6.78428 46.3428 6.24578C46.348 5.70189 46.762 5.28724 47.3105 5.28724C47.9521 5.28724 48.5886 5.28724 49.2302 5.28724C49.2975 5.28724 49.37 5.28724 49.4579 5.28724C49.4579 5.18493 49.4579 5.10953 49.4579 5.02876C49.4579 3.97329 49.4527 2.91783 49.4579 1.86236C49.4631 1.26462 49.8719 0.839206 50.41 0.849976C50.8602 0.860746 51.238 1.21077 51.2949 1.67927C51.3052 1.7762 51.3104 1.87852 51.3104 1.98083C51.3104 2.99322 51.3104 4.01099 51.3104 5.02337C51.3104 5.10415 51.3104 5.17954 51.3104 5.27109C52.8783 5.27109 54.4203 5.27109 55.9882 5.27109C55.9882 5.18492 55.9882 5.10415 55.9882 5.02337C55.9882 3.97329 55.9831 2.9286 55.9882 1.87852C55.9882 1.3077 56.3505 0.882286 56.8472 0.849976C57.4061 0.812281 57.8407 1.2377 57.8407 1.85698C57.8459 2.84244 57.8407 3.83328 57.8407 4.81874C57.8407 4.96414 57.8407 5.10953 57.8407 5.28186C57.9287 5.28186 57.996 5.28186 58.0684 5.28186C58.7101 5.28186 59.3466 5.28186 59.9882 5.28186C60.5367 5.28186 60.9507 5.6965 60.961 6.24039C60.9662 6.78428 60.5471 7.2097 59.9882 7.22047C59.776 7.22047 59.5639 7.22047 59.3207 7.22047C59.3207 7.31201 59.3207 7.39279 59.3207 7.46818C59.3155 8.3944 59.3414 9.32601 59.3052 10.2469C59.2017 12.7347 57.5406 14.8995 55.2431 15.5942C55.0827 15.6427 54.9223 15.6965 54.7567 15.718C54.6015 15.7342 54.5756 15.8042 54.5756 15.9496C54.5808 17.2528 54.5808 18.556 54.5756 19.8591C54.5756 20.5376 53.9805 21.0008 53.3699 20.8069C52.9715 20.683 52.7179 20.3061 52.7179 19.843C52.7179 18.5506 52.7127 17.2635 52.7231 15.9711C52.7231 15.8096 52.692 15.7504 52.5265 15.7127C50.0789 15.1903 48.2315 13.0794 48.009 10.5161C47.9418 9.7622 47.9832 8.99753 47.978 8.23824C47.978 7.90436 47.9832 7.57588 47.9832 7.22047ZM49.8512 7.23124C49.8512 8.22747 49.8512 9.20754 49.8512 10.1876C49.8512 10.2738 49.8564 10.3599 49.8719 10.4461C50.172 12.6109 51.9624 14.0756 54.0581 13.8764C55.8589 13.7094 57.3699 12.1047 57.4527 10.2307C57.4941 9.26678 57.4682 8.29747 57.4734 7.32817C57.4734 7.29586 57.4682 7.26355 57.4578 7.22047C54.9275 7.23124 52.3971 7.23124 49.8512 7.23124Z" fill="#6D6E70"/>
<path d="M53.8095 10.9577C53.4628 10.78 53.1161 10.5969 52.7642 10.4138C52.5934 10.3223 52.4175 10.2415 52.2467 10.1446C51.869 9.93456 51.7965 9.48222 52.0915 9.1645C52.4692 8.76062 52.8522 8.36213 53.2403 7.96902C53.4886 7.71593 53.8095 7.71593 54.0527 7.95825C54.301 8.20596 54.3114 8.55061 54.063 8.81447C53.8767 9.0191 53.6749 9.20219 53.4524 9.4176C53.8043 9.60069 54.1148 9.76224 54.4252 9.92379C54.6374 10.0369 54.8547 10.1392 55.0617 10.2577C55.4395 10.4677 55.5119 10.9146 55.2169 11.2377C54.8392 11.6416 54.4563 12.0401 54.0682 12.4332C53.8146 12.6917 53.4835 12.6809 53.2403 12.4278C53.0022 12.1747 53.0074 11.8409 53.2558 11.5716C53.4369 11.3777 53.618 11.1893 53.7991 10.9954C53.8095 10.9954 53.8043 10.9846 53.8095 10.9577Z" fill="#6D6E70"/>
</g>
<defs>
<clipPath id="clip0_21662_43020">
<rect width="19.2184" height="20" fill="white" transform="translate(0 0.850098)"/>
</clipPath>
<clipPath id="clip1_21662_43020">
<rect width="19.2184" height="20" fill="white" transform="translate(88.0957 0.850098)"/>
</clipPath>
<clipPath id="clip2_21662_43020">
<rect width="19.2184" height="20" fill="white" transform="translate(134.438 0.850098)"/>
</clipPath>
<clipPath id="clip3_21662_43020">
<rect width="19.2184" height="20" fill="white" transform="translate(180.781 0.850098)"/>
</clipPath>
<clipPath id="clip4_21662_43020">
<rect width="14.6286" height="20" fill="white" transform="translate(46.3428 0.850098)"/>
</clipPath>
</defs>
</svg>
