<svg width="18" height="18" viewBox="0 0 18 18" fill="none" xmlns="http://www.w3.org/2000/svg">
<path d="M9.05545 4.09277C6.27363 4.09277 4.03271 6.33369 4.03271 9.11549C4.03271 11.8973 6.27363 14.1382 9.05545 14.1382C11.8373 14.1382 14.0782 11.8973 14.0782 9.11549C14.0782 6.33369 11.8373 4.09277 9.05545 4.09277ZM9.05545 12.5155C7.12363 12.5155 5.57817 10.97 5.57817 9.03821C5.57817 7.10639 7.12363 5.56096 9.05545 5.56096C10.9873 5.56096 12.5327 7.10639 12.5327 9.03821C12.5327 10.97 10.9873 12.5155 9.05545 12.5155Z" fill="#6D6E70"/>
<path d="M9.05544 3.62899C9.51908 3.62899 9.82817 3.3199 9.82817 2.85626V1.6199C9.82817 1.15626 9.51908 0.847168 9.05544 0.847168C8.59181 0.847168 8.28271 1.15626 8.28271 1.6199V2.85626C8.28271 3.24263 8.59181 3.62899 9.05544 3.62899Z" fill="#6D6E70"/>
<path d="M3.87821 5.25153C4.03275 5.40608 4.26457 5.48335 4.41912 5.48335C4.57366 5.48335 4.80548 5.40608 4.96003 5.25153C5.26912 4.94244 5.26912 4.4788 4.96003 4.16971L4.11003 3.31971C3.80093 3.01062 3.3373 3.01062 3.02821 3.31971C2.71911 3.6288 2.71911 4.09244 3.02821 4.40153L3.87821 5.25153Z" fill="#6D6E70"/>
<path d="M3.33749 9.34695C3.33749 8.88331 3.0284 8.57422 2.56476 8.57422H1.32839C0.864755 8.57422 0.555664 8.88331 0.555664 9.34695C0.555664 9.81058 0.864755 10.1197 1.32839 10.1197H2.56476C2.95112 10.1197 3.33749 9.81058 3.33749 9.34695Z" fill="#6D6E70"/>
<path d="M3.87821 13.4428L3.02821 14.2928C2.71911 14.6018 2.71911 15.0655 3.02821 15.3746C3.18275 15.5291 3.41457 15.6064 3.56912 15.6064C3.72366 15.6064 3.95548 15.5291 4.11003 15.3746L4.96003 14.5246C5.26912 14.2155 5.26912 13.7518 4.96003 13.4428C4.65094 13.1337 4.1873 13.1337 3.87821 13.4428Z" fill="#6D6E70"/>
<path d="M9.05544 15.0654C8.59181 15.0654 8.28271 15.3745 8.28271 15.8382V17.0745C8.28271 17.5382 8.59181 17.8473 9.05544 17.8473C9.51908 17.8473 9.82817 17.5382 9.82817 17.0745V15.8382C9.82817 15.4518 9.51908 15.0654 9.05544 15.0654Z" fill="#6D6E70"/>
<path d="M14.2331 13.4428C13.924 13.1337 13.4603 13.1337 13.1513 13.4428C12.8422 13.7518 12.8422 14.2155 13.1513 14.5246L14.0013 15.3746C14.1558 15.5291 14.3876 15.6064 14.5422 15.6064C14.6967 15.6064 14.9285 15.5291 15.0831 15.3746C15.3922 15.0655 15.3922 14.6018 15.0831 14.2928L14.2331 13.4428Z" fill="#6D6E70"/>
<path d="M16.783 8.57422H15.5467C15.083 8.57422 14.7739 8.88331 14.7739 9.34695C14.7739 9.81058 15.083 10.1197 15.5467 10.1197H16.783C17.2467 10.1197 17.5557 9.81058 17.5557 9.34695C17.5557 8.88331 17.2467 8.57422 16.783 8.57422Z" fill="#6D6E70"/>
<path d="M13.6922 5.48335C13.924 5.48335 14.0785 5.40608 14.2331 5.25153L15.0831 4.40153C15.3922 4.09244 15.3922 3.6288 15.0831 3.31971C14.774 3.01062 14.3103 3.01062 14.0013 3.31971L13.1513 4.16971C12.8422 4.4788 12.8422 4.94244 13.1513 5.25153C13.3058 5.40608 13.4603 5.48335 13.6922 5.48335Z" fill="#6D6E70"/>
</svg>
