<svg width="16" height="17" viewBox="0 0 16 17" fill="none" xmlns="http://www.w3.org/2000/svg">
<path d="M13.8936 3.18148C13.5531 2.84082 13.1488 2.57058 12.7038 2.38621C12.2588 2.20183 11.7819 2.10693 11.3002 2.10693C10.8186 2.10693 10.3416 2.20183 9.89667 2.38621C9.4517 2.57058 9.04741 2.84082 8.70691 3.18148L8.00024 3.88815L7.29357 3.18148C6.60578 2.49369 5.67293 2.10729 4.70024 2.10729C3.72755 2.10729 2.7947 2.49369 2.10691 3.18148C1.41911 3.86928 1.03271 4.80213 1.03271 5.77482C1.03271 6.74751 1.41911 7.68036 2.10691 8.36815L2.81358 9.07482L8.00024 14.2615L13.1869 9.07482L13.8936 8.36815C14.2342 8.02765 14.5045 7.62336 14.6889 7.17839C14.8732 6.73341 14.9681 6.25648 14.9681 5.77482C14.9681 5.29316 14.8732 4.81622 14.6889 4.37125C14.5045 3.92627 14.2342 3.52199 13.8936 3.18148V3.18148Z" stroke="#2A2A2A" stroke-linecap="round" stroke-linejoin="round"/>
</svg>
