<svg width="201" height="21" viewBox="0 0 201 21" fill="none" xmlns="http://www.w3.org/2000/svg">
<g clip-path="url(#clip0_21662_43103)">
<path d="M4.79639 10.8083C6.38061 9.43635 8.3772 8.68506 10.439 8.68506C12.5008 8.68506 14.4974 9.43635 16.0816 10.8083" stroke="#6D6E70" stroke-width="2" stroke-linecap="round" stroke-linejoin="round"/>
<path d="M1.92725 7.85017C4.26958 5.70347 7.28475 4.51904 10.4072 4.51904C13.5296 4.51904 16.5448 5.70347 18.8871 7.85017" stroke="#6D6E70" stroke-width="2" stroke-linecap="round" stroke-linejoin="round"/>
<path d="M7.62598 13.775C8.43967 13.174 9.41307 12.8511 10.4112 12.8511C11.4093 12.8511 12.3827 13.174 13.1964 13.775" stroke="#6D6E70" stroke-width="2" stroke-linecap="round" stroke-linejoin="round"/>
<path d="M10.4072 17.0166H10.4152" stroke="#6D6E70" stroke-width="2" stroke-linecap="round" stroke-linejoin="round"/>
</g>
<g clip-path="url(#clip1_21662_43103)">
<path d="M107.032 5.70026C106.937 5.30477 106.743 4.9424 106.47 4.64977C106.197 4.35713 105.855 4.14458 105.478 4.03359C104.099 3.68359 98.5846 3.68359 98.5846 3.68359C98.5846 3.68359 93.0702 3.68359 91.6916 4.06693C91.3143 4.17791 90.9719 4.39046 90.6989 4.6831C90.4258 4.97574 90.2319 5.3381 90.1367 5.73359C89.8844 7.18822 89.761 8.66385 89.768 10.1419C89.759 11.6311 89.8825 13.118 90.1367 14.5836C90.2417 14.9668 90.4399 15.3154 90.7123 15.5957C90.9847 15.8759 91.322 16.0784 91.6916 16.1836C93.0702 16.5669 98.5846 16.5669 98.5846 16.5669C98.5846 16.5669 104.099 16.5669 105.478 16.1836C105.855 16.0726 106.197 15.8601 106.47 15.5674C106.743 15.2748 106.937 14.9124 107.032 14.5169C107.283 13.0733 107.406 11.6089 107.401 10.1419C107.41 8.65272 107.287 7.16584 107.032 5.70026V5.70026Z" stroke="#CDCFD3" stroke-width="2" stroke-linecap="round" stroke-linejoin="round"/>
<path d="M96.7808 12.867L101.389 10.142L96.7808 7.41699V12.867Z" stroke="#CDCFD3" stroke-width="2" stroke-linecap="round" stroke-linejoin="round"/>
</g>
<g clip-path="url(#clip2_21662_43103)">
<path d="M149.779 7.0166H150.58C151.431 7.0166 152.246 7.36779 152.847 7.99291C153.449 8.61803 153.786 9.46588 153.786 10.3499C153.786 11.234 153.449 12.0818 152.847 12.707C152.246 13.3321 151.431 13.6833 150.58 13.6833H149.779" stroke="#CDCFD3" stroke-width="2" stroke-linecap="round" stroke-linejoin="round"/>
<path d="M136.955 7.0166H149.779V14.5166C149.779 15.4007 149.441 16.2485 148.84 16.8736C148.238 17.4987 147.423 17.8499 146.573 17.8499H140.161C139.31 17.8499 138.495 17.4987 137.894 16.8736C137.292 16.2485 136.955 15.4007 136.955 14.5166V7.0166Z" stroke="#CDCFD3" stroke-width="2" stroke-linecap="round" stroke-linejoin="round"/>
<path d="M140.161 1.18359V3.68359" stroke="#CDCFD3" stroke-width="2" stroke-linecap="round" stroke-linejoin="round"/>
<path d="M143.367 1.18359V3.68359" stroke="#CDCFD3" stroke-width="2" stroke-linecap="round" stroke-linejoin="round"/>
<path d="M146.573 1.18359V3.68359" stroke="#CDCFD3" stroke-width="2" stroke-linecap="round" stroke-linejoin="round"/>
</g>
<g clip-path="url(#clip3_21662_43103)">
<path d="M199.37 8.68343C199.335 10.2671 198.956 11.822 198.262 13.2324C197.568 14.6427 196.577 15.8722 195.363 16.8293V19.5168C195.363 19.7378 195.278 19.9497 195.128 20.106C194.978 20.2623 194.774 20.3501 194.561 20.3501C194.349 20.3501 194.145 20.2623 193.995 20.106C193.844 19.9497 193.76 19.7378 193.76 19.5168V2.01676C193.753 1.70365 193.835 1.39535 193.996 1.13087C194.158 0.86639 194.391 0.657607 194.666 0.530931C194.983 0.397069 195.33 0.361956 195.665 0.429884C196.001 0.497813 196.31 0.66584 196.555 0.913431C198.414 3.03423 199.421 5.81451 199.37 8.68343ZM190.554 0.350098C190.341 0.350098 190.137 0.437895 189.987 0.594175C189.837 0.750456 189.752 0.962417 189.752 1.18343V6.18343C189.75 6.69865 189.595 7.20062 189.308 7.62068C189.021 8.04074 188.617 8.35836 188.149 8.5301V1.18343C188.149 0.962417 188.065 0.750456 187.915 0.594175C187.764 0.437895 187.56 0.350098 187.348 0.350098C187.135 0.350098 186.931 0.437895 186.781 0.594175C186.631 0.750456 186.546 0.962417 186.546 1.18343V8.5301C186.079 8.35836 185.674 8.04074 185.387 7.62068C185.101 7.20062 184.945 6.69865 184.943 6.18343V1.18343C184.943 0.962417 184.859 0.750456 184.709 0.594175C184.558 0.437895 184.354 0.350098 184.142 0.350098C183.929 0.350098 183.725 0.437895 183.575 0.594175C183.425 0.750456 183.34 0.962417 183.34 1.18343V6.18343C183.341 7.1436 183.661 8.074 184.245 8.81781C184.829 9.56161 185.642 10.0733 186.546 10.2668V19.5168C186.546 19.7378 186.631 19.9497 186.781 20.106C186.931 20.2623 187.135 20.3501 187.348 20.3501C187.56 20.3501 187.764 20.2623 187.915 20.106C188.065 19.9497 188.149 19.7378 188.149 19.5168V10.2668C189.054 10.0733 189.867 9.56161 190.451 8.81781C191.035 8.074 191.354 7.1436 191.355 6.18343V1.18343C191.355 0.962417 191.271 0.750456 191.121 0.594175C190.97 0.437895 190.766 0.350098 190.554 0.350098V0.350098Z" fill="#CDCFD3"/>
</g>
<g clip-path="url(#clip4_21662_43103)">
<path d="M48.8172 6.72047C48.5738 6.72047 48.3562 6.72585 48.1335 6.72047C47.5897 6.7097 47.1702 6.28428 47.1753 5.74578C47.1805 5.20189 47.5949 4.78724 48.1439 4.78724C48.7861 4.78724 49.4232 4.78724 50.0654 4.78724C50.1328 4.78724 50.2053 4.78724 50.2933 4.78724C50.2933 4.68493 50.2933 4.60953 50.2933 4.52876C50.2933 3.47329 50.2881 2.41783 50.2933 1.36236C50.2985 0.764623 50.7077 0.339206 51.2463 0.349976C51.6969 0.360746 52.075 0.710773 52.132 1.17927C52.1423 1.2762 52.1475 1.37852 52.1475 1.48083C52.1475 2.49322 52.1475 3.51099 52.1475 4.52337C52.1475 4.60415 52.1475 4.67954 52.1475 4.77109C53.7169 4.77109 55.2603 4.77109 56.8297 4.77109C56.8297 4.68492 56.8297 4.60415 56.8297 4.52337C56.8297 3.47329 56.8245 2.4286 56.8297 1.37852C56.8297 0.807703 57.1922 0.382286 57.6894 0.349976C58.2488 0.312281 58.6839 0.737698 58.6839 1.35698C58.6891 2.34244 58.6839 3.33328 58.6839 4.31874C58.6839 4.46414 58.6839 4.60953 58.6839 4.78186C58.7719 4.78186 58.8393 4.78186 58.9118 4.78186C59.554 4.78186 60.1911 4.78186 60.8333 4.78186C61.3823 4.78186 61.7967 5.1965 61.807 5.74039C61.8122 6.28428 61.3927 6.7097 60.8333 6.72047C60.621 6.72047 60.4086 6.72047 60.1652 6.72047C60.1652 6.81201 60.1652 6.89279 60.1652 6.96818C60.16 7.8944 60.1859 8.82601 60.1496 9.74685C60.046 12.2347 58.3835 14.3995 56.0838 15.0942C55.9233 15.1427 55.7627 15.1965 55.597 15.218C55.4416 15.2342 55.4157 15.3042 55.4157 15.4496C55.4209 16.7528 55.4209 18.056 55.4157 19.3591C55.4157 20.0376 54.8201 20.5008 54.2089 20.3069C53.8101 20.183 53.5563 19.8061 53.5563 19.343C53.5563 18.0506 53.5511 16.7635 53.5615 15.4711C53.5615 15.3096 53.5304 15.2504 53.3647 15.2127C50.9148 14.6903 49.0658 12.5794 48.8431 10.0161C48.7758 9.2622 48.8172 8.49753 48.812 7.73824C48.812 7.40436 48.8172 7.07588 48.8172 6.72047ZM50.6869 6.73124C50.6869 7.72747 50.6869 8.70754 50.6869 9.68762C50.6869 9.77378 50.6921 9.85994 50.7077 9.9461C51.0081 12.1109 52.8001 13.5756 54.8978 13.3764C56.7002 13.2094 58.2125 11.6047 58.2954 9.7307C58.3369 8.76678 58.311 7.79747 58.3161 6.82817C58.3161 6.79586 58.311 6.76355 58.3006 6.72047C55.7679 6.73124 53.2352 6.73124 50.6869 6.73124Z" fill="#6D6E70"/>
<path d="M54.6491 10.4577C54.3021 10.28 53.9551 10.0969 53.6029 9.91383C53.432 9.82228 53.2559 9.74151 53.0849 9.64457C52.7068 9.43456 52.6343 8.98222 52.9296 8.6645C53.3076 8.26062 53.6909 7.86213 54.0794 7.46902C54.328 7.21593 54.6491 7.21593 54.8925 7.45825C55.1411 7.70596 55.1515 8.05061 54.9029 8.31447C54.7164 8.5191 54.5144 8.70219 54.2917 8.9176C54.6439 9.10069 54.9547 9.26224 55.2654 9.42379C55.4778 9.53687 55.6953 9.63919 55.9025 9.75766C56.2806 9.96768 56.3531 10.4146 56.0579 10.7377C55.6798 11.1416 55.2965 11.5401 54.9081 11.9332C54.6543 12.1917 54.3228 12.1809 54.0794 11.9278C53.8411 11.6747 53.8463 11.3409 54.0949 11.0716C54.2762 10.8777 54.4575 10.6893 54.6387 10.4954C54.6491 10.4954 54.6439 10.4846 54.6491 10.4577Z" fill="#6D6E70"/>
</g>
<defs>
<clipPath id="clip0_21662_43103">
<rect width="19.2361" height="20" fill="white" transform="translate(0.789062 0.350098)"/>
</clipPath>
<clipPath id="clip1_21662_43103">
<rect width="19.2361" height="20" fill="white" transform="translate(88.9663 0.350098)"/>
</clipPath>
<clipPath id="clip2_21662_43103">
<rect width="19.2361" height="20" fill="white" transform="translate(135.352 0.350098)"/>
</clipPath>
<clipPath id="clip3_21662_43103">
<rect width="19.2361" height="20" fill="white" transform="translate(181.737 0.350098)"/>
</clipPath>
<clipPath id="clip4_21662_43103">
<rect width="14.642" height="20" fill="white" transform="translate(47.1753 0.350098)"/>
</clipPath>
</defs>
</svg>
