<svg width="19" height="18" viewBox="0 0 19 18" fill="none" xmlns="http://www.w3.org/2000/svg">
<path d="M9.67741 3.99839C10.175 3.99839 10.5067 3.66668 10.5067 3.16912V1.67644C10.5067 1.17888 10.175 0.847168 9.67741 0.847168C9.17985 0.847168 8.84814 1.17888 8.84814 1.67644V3.16912C8.84814 3.58376 9.17985 3.99839 9.67741 3.99839Z" fill="#6D6E70"/>
<path d="M3.37525 6.07138C3.54111 6.23723 3.78989 6.32016 3.95574 6.32016C4.12159 6.32016 4.37037 6.23723 4.53623 6.07138C4.86794 5.73968 4.86794 5.24212 4.53623 4.91041L3.54111 3.91528C3.2094 3.58358 2.71184 3.58358 2.38013 3.91528C2.04842 4.24699 2.04842 4.74455 2.38013 5.07626L3.37525 6.07138Z" fill="#6D6E70"/>
<path d="M15.3166 6.32056C15.5654 6.32056 15.7312 6.23764 15.8971 6.07178L16.9751 4.99374C17.3068 4.66203 17.3068 4.16447 16.9751 3.83277C16.6434 3.50106 16.1458 3.50106 15.8141 3.83277L14.7361 4.91082C14.4044 5.24252 14.4044 5.74008 14.7361 6.07178C14.9019 6.23764 15.1507 6.32056 15.3166 6.32056Z" fill="#6D6E70"/>
<path d="M17.9703 10.3838H15.6484C15.3996 7.31552 12.8289 4.91064 9.67763 4.91064C6.5264 4.91064 3.95567 7.31552 3.70689 10.3838H1.38493C0.887372 10.3838 0.555664 10.7155 0.555664 11.2131C0.555664 11.7106 0.887372 12.0424 1.38493 12.0424H17.9703C18.4679 12.0424 18.7996 11.7106 18.7996 11.2131C18.7996 10.7155 18.4679 10.3838 17.9703 10.3838ZM9.67763 6.48625C11.9167 6.48625 13.741 8.14479 13.9898 10.3009H5.36543C5.61421 8.22771 7.4386 6.48625 9.67763 6.48625Z" fill="#6D6E70"/>
<path fill-rule="evenodd" clip-rule="evenodd" d="M13.2271 13.4683C13.47 13.7112 13.47 14.105 13.2271 14.3478L9.91004 17.6649C9.66715 17.9078 9.27341 17.9078 9.03052 17.6649L5.71341 14.3478C5.47053 14.105 5.47053 13.7112 5.71341 13.4683C5.9563 13.2254 6.3501 13.2254 6.59299 13.4683L9.47028 16.3456L12.3476 13.4683C12.5905 13.2254 12.9842 13.2254 13.2271 13.4683Z" fill="#6D6E70"/>
</svg>
