<svg width="25" height="25" viewBox="0 0 25 25" fill="none" xmlns="http://www.w3.org/2000/svg">
<mask id="mask0_21774_11272" style="mask-type:alpha" maskUnits="userSpaceOnUse" x="0" y="0" width="25" height="25">
<rect x="0.922852" y="0.281738" width="24" height="24" fill="#D9D9D9"/>
</mask>
<g mask="url(#mask0_21774_11272)">
<path d="M18.4536 7.20798L16.1193 8.5557L9.68614 4.3364C9.31128 4.10796 8.88169 3.98472 8.44252 3.97964C8.00336 3.97457 7.57085 4.08784 7.19046 4.30756L7.06199 4.38173C6.77367 4.54766 6.52789 4.77835 6.3441 5.05555C6.16031 5.33275 6.04355 5.64885 6.00306 5.97884C5.96257 6.30883 5.99946 6.64365 6.11081 6.95681C6.22216 7.26996 6.40492 7.55286 6.64462 7.78312L10.7088 11.6795L9.02595 12.651C8.74808 12.8124 8.441 12.9172 8.12246 12.9592C7.80392 13.0013 7.48025 12.9798 7.17018 12.8959L5.59137 12.4713C5.18839 12.3637 4.76152 12.3873 4.37265 12.5386C3.98379 12.6899 3.65316 12.961 3.42873 13.3127C3.28938 13.5295 3.19585 13.7725 3.15388 14.0266C3.11191 14.2808 3.12239 14.5409 3.18467 14.7908C3.24946 15.06 3.36802 15.3134 3.53323 15.5357C3.69844 15.758 3.90691 15.9446 4.14611 16.0843L6.43565 17.4189C7.05626 17.7795 7.76116 17.9702 8.47928 17.9716C9.19739 17.973 9.90334 17.7852 10.5259 17.427L13.1454 15.9146L13.7787 19.7306C13.8353 20.0719 13.9738 20.3945 14.1823 20.6705C14.3909 20.9466 14.6633 21.1679 14.9763 21.3156C15.2893 21.4634 15.6334 21.533 15.9794 21.5187C16.3253 21.5044 16.6626 21.4065 16.9626 21.2333C17.3376 21.0195 17.6487 20.7094 17.8636 20.3351C18.0786 19.9609 18.1897 19.5361 18.1853 19.1047L18.4007 12.8805L20.8967 11.4394C21.4583 11.1152 21.8682 10.5813 22.0363 9.95523C22.2043 9.32917 22.1167 8.66221 21.7928 8.10109C21.4688 7.53996 20.935 7.13063 20.3088 6.96314C19.6826 6.79565 19.0153 6.88372 18.4536 7.20798ZM7.77705 6.60649C7.7197 6.55138 7.67596 6.48369 7.64929 6.40876C7.62262 6.33383 7.61375 6.25372 7.62338 6.17474C7.63301 6.09577 7.66088 6.0201 7.70477 5.95372C7.74867 5.88733 7.8074 5.83204 7.87633 5.79221L8.0048 5.71804C8.12727 5.64593 8.26661 5.60744 8.4087 5.60649C8.55079 5.60553 8.69058 5.64214 8.81389 5.71261L14.5395 9.46777L12.1784 10.831L7.77705 6.60649ZM20.0823 10.0289L17.1946 11.6962C17.0748 11.7654 16.9747 11.864 16.9035 11.9825C16.8323 12.1011 16.7925 12.2358 16.7878 12.3739L16.5558 19.0976C16.5593 19.2439 16.5233 19.3885 16.4516 19.5161C16.3798 19.6437 16.275 19.7497 16.1482 19.8229C16.0765 19.8644 15.9958 19.8878 15.913 19.8913C15.8303 19.8947 15.7479 19.878 15.673 19.8426C15.5982 19.8072 15.533 19.7542 15.4832 19.6881C15.4334 19.622 15.4004 19.5447 15.3871 19.463L14.5601 14.4867C14.5384 14.3569 14.4855 14.2344 14.4061 14.1296C14.3267 14.0247 14.2231 13.9407 14.104 13.8847C13.985 13.8286 13.8542 13.8022 13.7227 13.8078C13.5912 13.8133 13.4629 13.8506 13.349 13.9164L9.71159 16.0165C9.33845 16.2311 8.91532 16.3435 8.48497 16.3423C8.05461 16.3411 7.63229 16.2264 7.26067 16.0098L4.96719 14.6765C4.91874 14.6479 4.87647 14.6099 4.84282 14.5647C4.80917 14.5196 4.78481 14.4682 4.77115 14.4136C4.76018 14.3783 4.75679 14.341 4.76121 14.3043C4.76562 14.2676 4.77774 14.2322 4.79676 14.2004C4.82694 14.1522 4.86823 14.1119 4.91717 14.0829C4.99323 14.0397 5.08306 14.0276 5.1678 14.0492L6.74499 14.471C7.26222 14.6108 7.80213 14.6465 8.33345 14.5762C8.86476 14.5059 9.37693 14.331 9.8403 14.0615L19.268 8.61846C19.4552 8.51037 19.6776 8.48102 19.8864 8.53685C20.0951 8.59268 20.273 8.72912 20.381 8.91616C20.489 9.1032 20.5182 9.32552 20.4622 9.53421C20.4062 9.7429 20.2695 9.92086 20.0823 10.0289Z" fill="#2A2A2A"/>
</g>
</svg>
