<svg width="25" height="25" viewBox="0 0 25 25" fill="none" xmlns="http://www.w3.org/2000/svg">
<mask id="mask0_21662_42471" style="mask-type:alpha" maskUnits="userSpaceOnUse" x="0" y="0" width="25" height="25">
<rect x="0.922852" y="0.281738" width="24" height="24" fill="#D9D9D9"/>
</mask>
<g mask="url(#mask0_21662_42471)">
</g>
<path d="M16.4229 5.28174H18.1729C18.637 5.28174 19.0821 5.46611 19.4103 5.7943C19.7385 6.12249 19.9229 6.56761 19.9229 7.03174V19.2817C19.9229 19.7459 19.7385 20.191 19.4103 20.5192C19.0821 20.8474 18.637 21.0317 18.1729 21.0317H7.67285C7.20872 21.0317 6.7636 20.8474 6.43541 20.5192C6.10723 20.191 5.92285 19.7459 5.92285 19.2817V7.03174C5.92285 6.56761 6.10723 6.12249 6.43541 5.7943C6.7636 5.46611 7.20872 5.28174 7.67285 5.28174H9.42285" stroke="#2A2A2A" stroke-width="1.5" stroke-linecap="round" stroke-linejoin="round"/>
<path d="M15.5479 3.53174H10.2979C9.8146 3.53174 9.42285 3.92349 9.42285 4.40674V6.15674C9.42285 6.63999 9.8146 7.03174 10.2979 7.03174H15.5479C16.0311 7.03174 16.4229 6.63999 16.4229 6.15674V4.40674C16.4229 3.92349 16.0311 3.53174 15.5479 3.53174Z" stroke="#2A2A2A" stroke-width="1.5" stroke-linecap="round" stroke-linejoin="round"/>
</svg>
