<svg width="25" height="25" viewBox="0 0 25 25" fill="none" xmlns="http://www.w3.org/2000/svg">
<mask id="mask0_21662_42434" style="mask-type:alpha" maskUnits="userSpaceOnUse" x="0" y="0" width="25" height="25">
<rect x="0.922852" y="0.281738" width="24" height="24" fill="#D9D9D9"/>
</mask>
<g mask="url(#mask0_21662_42434)">
</g>
<g clip-path="url(#clip0_21662_42434)">
<path d="M12.2708 7.83407L12.9246 7.73415L13.5783 7.83407C15.2613 8.09128 16.9116 9.33459 18.1638 11.0843C19.4109 12.8269 20.1729 14.9504 20.1729 16.7817C20.1729 18.8714 18.5301 20.5317 16.5589 20.5317H9.2868C7.31556 20.5317 5.67285 18.8714 5.67285 16.7817C5.67285 14.9506 6.43556 12.8272 7.68349 11.0845C8.93654 9.33472 10.5877 8.09129 12.2708 7.83407ZM12.9246 6.79101L12.6787 6.55337C11.9782 5.87646 11.0992 4.89846 10.7606 4.03174H15.0885C14.7495 4.89581 13.8699 5.87744 13.1705 6.55337L12.9246 6.79101Z" stroke="#2A2A2A" stroke-width="1.5"/>
<path d="M11.5132 14.7249C11.4961 14.7249 11.4825 14.7249 11.4688 14.7249C11.1961 14.7249 10.9233 14.7249 10.6506 14.7249C10.6335 14.7249 10.6165 14.7179 10.6029 14.7038C10.3301 14.412 10.0574 14.1167 9.78462 13.8249C9.78122 13.8179 9.7744 13.8144 9.76758 13.8038C10.354 13.8038 10.9302 13.8038 11.5132 13.8038C11.5132 13.7898 11.5132 13.7792 11.5132 13.7687C11.5132 13.171 11.5132 12.5769 11.5132 11.9792C11.5132 11.8105 11.4688 11.6558 11.3495 11.5327C11.2609 11.4449 11.1518 11.3956 11.0358 11.3605C10.8927 11.3148 10.7495 11.3148 10.6063 11.3534C10.5585 11.3675 10.5142 11.3921 10.4631 11.4132C10.4392 11.371 10.4119 11.3253 10.3881 11.2726C10.3097 11.0968 10.2278 10.9245 10.1631 10.7452C10.129 10.6538 10.1494 10.5554 10.2006 10.4675C10.2619 10.3656 10.354 10.2988 10.4563 10.246C10.6506 10.1441 10.8552 10.0667 11.0734 10.0456C11.4722 10.0034 11.7995 10.137 12.045 10.4745C12.253 10.7593 12.3621 11.0827 12.4132 11.4308C12.4371 11.596 12.4473 11.7648 12.4473 11.9335C12.4473 12.5417 12.4473 13.1464 12.4473 13.7546C12.4473 13.7687 12.4473 13.7863 12.4473 13.8003C12.4644 13.8003 12.4746 13.8003 12.4848 13.8003C12.6382 13.8003 12.7882 13.8003 12.9417 13.8003C12.9553 13.8003 12.9724 13.8074 12.9826 13.8179C13.2656 14.1132 13.5451 14.4085 13.8247 14.7038C13.8281 14.7074 13.8315 14.7109 13.8383 14.7214C13.3712 14.7214 12.911 14.7214 12.4473 14.7214C12.4473 14.7355 12.4439 14.7495 12.4439 14.7601C12.4439 15.6144 12.4439 16.4687 12.4439 17.323C12.4439 17.6077 12.5632 17.8292 12.7848 17.9945C12.8973 18.0753 13.0269 18.107 13.1633 18.1281C13.5588 18.1878 13.9133 18.0753 14.2372 17.8503C14.6634 17.555 15.018 17.1824 15.2805 16.7253C15.4134 16.4933 15.5055 16.2437 15.5396 15.9765C15.5464 15.9308 15.5498 15.8816 15.5532 15.8359C15.5532 15.8324 15.5532 15.8288 15.5532 15.8183C15.5089 15.8218 15.4612 15.8253 15.4168 15.8288C15.1884 15.8464 14.9634 15.8218 14.752 15.7304C14.5134 15.6284 14.3429 15.4491 14.2509 15.1995C14.1349 14.8831 14.1008 14.5527 14.1793 14.2222C14.2372 13.9726 14.3634 13.7616 14.5645 13.607C14.6975 13.505 14.8543 13.4523 15.018 13.4241C15.243 13.3855 15.4646 13.382 15.6862 13.4347C15.9282 13.4945 16.1396 13.6175 16.3169 13.7968C16.6647 14.1449 16.8794 14.5667 16.9545 15.0589C17.0465 15.6671 16.9545 16.2507 16.709 16.8097C16.5249 17.2281 16.2692 17.5972 15.9692 17.9382C15.7646 18.1738 15.543 18.3882 15.2941 18.571C14.9361 18.8312 14.5475 19.0175 14.1179 19.1159C13.8792 19.1722 13.6372 19.1968 13.3917 19.1968C13.1599 19.1968 12.9383 19.137 12.7303 19.0351C12.3246 18.8382 11.9871 18.5534 11.7177 18.1808C11.6325 18.0613 11.5643 17.9312 11.5268 17.787C11.52 17.7659 11.5166 17.7413 11.5166 17.7167C11.5166 16.7324 11.5166 15.748 11.5166 14.7636C11.5132 14.7601 11.5132 14.746 11.5132 14.7249Z" fill="#2A2A2A"/>
</g>
<defs>
<clipPath id="clip0_21662_42434">
<rect width="16" height="18" fill="white" transform="translate(4.92285 3.28174)"/>
</clipPath>
</defs>
</svg>
