<svg width="25" height="25" viewBox="0 0 25 25" fill="none" xmlns="http://www.w3.org/2000/svg">
<mask id="mask0_21774_11305" style="mask-type:alpha" maskUnits="userSpaceOnUse" x="0" y="0" width="25" height="25">
<rect x="0.422852" y="0.281738" width="24" height="24" fill="#D9D9D9"/>
</mask>
<g mask="url(#mask0_21774_11305)">
<mask id="mask1_21774_11305" style="mask-type:alpha" maskUnits="userSpaceOnUse" x="2" y="2" width="21" height="21">
<rect x="2.42285" y="2.28174" width="20" height="20" fill="#D9D9D9"/>
</mask>
<g mask="url(#mask1_21774_11305)">
</g>
<g clip-path="url(#clip0_21774_11305)">
<path d="M2.42285 6.36014C2.51247 6.17085 2.64441 6.03387 2.87094 6.0513C4.08575 6.13847 5.30305 6.23561 6.47554 6.59676C6.68962 6.66401 6.89624 6.76114 7.09788 6.86575C7.34682 6.99278 7.45137 7.19701 7.38914 7.48095C7.3742 7.5482 7.37171 7.62043 7.36175 7.71756C7.44141 7.71756 7.50365 7.71756 7.56588 7.71756C8.5442 7.71756 9.52501 7.72005 10.5033 7.71258C10.6104 7.71258 10.7324 7.66775 10.8195 7.60299C11.4344 7.15467 12.099 6.86824 12.8807 6.94794C13.3785 6.99776 13.8366 7.1721 14.2897 7.36389C14.9817 7.6553 15.6787 7.93923 16.3733 8.22566C16.4305 8.25057 16.4927 8.26551 16.5575 8.28544C16.545 7.9218 16.6197 7.8147 16.9607 7.68269C18.076 7.25181 19.241 7.04508 20.4284 6.94794C20.8989 6.91058 21.3744 6.89564 21.8474 6.88069C22.1909 6.87073 22.3552 7.03263 22.3552 7.37136C22.3552 9.81222 22.3552 12.2531 22.3552 14.6939C22.3552 15.0352 22.1984 15.1921 21.8548 15.1946C21.0956 15.1971 20.3363 15.1971 19.5771 15.1946C19.2261 15.1946 19.114 15.1099 19.0145 14.7811C18.9896 14.7014 18.9672 14.6242 18.9348 14.5146C18.7232 14.6566 18.529 14.7811 18.3423 14.9156C18.3125 14.938 18.295 15.0053 18.3 15.0476C18.3921 15.7973 17.7897 16.4947 17.0006 16.5595C16.9383 16.5644 16.8587 16.6167 16.8263 16.6691C16.4703 17.2494 15.9426 17.486 15.2829 17.4486C15.1759 17.4437 15.1261 17.4586 15.0688 17.5532C14.7004 18.1659 13.9785 18.4623 13.4084 18.2681C13.3711 18.2556 13.3163 18.2581 13.284 18.278C12.7861 18.5919 12.2633 18.5545 11.7281 18.4001C11.2203 18.2531 10.7896 17.9667 10.3789 17.6479C9.34827 16.8409 8.30522 16.0464 7.29454 15.212C6.77675 14.7836 6.31871 14.283 5.81586 13.8023C5.78847 13.8845 5.76109 13.9716 5.73122 14.0588C5.66401 14.2506 5.53207 14.3602 5.32545 14.3602C4.50147 14.3602 3.67749 14.3577 2.85351 14.3627C2.64192 14.3627 2.5274 14.2357 2.42534 14.0787C2.42285 11.5009 2.42285 8.93052 2.42285 6.36014ZM14.4465 17.0427C14.3867 16.9804 14.3618 16.953 14.3345 16.9256C13.747 16.3278 13.162 15.7326 12.5745 15.1348C12.5371 15.0974 12.5023 15.0601 12.4724 15.0177C12.3455 14.8384 12.3679 14.6142 12.5247 14.4698C12.679 14.3278 12.9105 14.3228 13.0748 14.4623C13.1445 14.5221 13.2018 14.5918 13.2665 14.6566C13.8615 15.2543 14.4515 15.8571 15.0564 16.4449C15.3227 16.7039 15.7285 16.6691 15.9949 16.4075C16.1119 16.293 16.1243 16.2083 15.9899 16.0738C15.2481 15.339 14.5162 14.5943 13.7843 13.8471C13.5877 13.6454 13.5901 13.3963 13.7694 13.2269C13.9461 13.0626 14.1801 13.075 14.3743 13.2693C14.5759 13.471 14.7701 13.6802 14.9717 13.882C15.5294 14.4424 16.087 15.0053 16.6546 15.5582C16.7392 15.6404 16.8786 15.7101 16.9881 15.7076C17.3391 15.6977 17.5632 15.3291 17.4263 15.0053C17.3665 14.8633 17.2819 14.7263 17.1798 14.6118C16.9085 14.3154 16.6421 14.0115 16.3359 13.75C15.1584 12.7437 13.966 11.75 12.7761 10.7587C12.7363 10.7238 12.6467 10.7213 12.5919 10.7388C12.3903 10.806 12.1961 10.9031 11.992 10.9604C11.8476 11.0003 11.743 11.0675 11.646 11.1796C11.0734 11.8371 10.3689 12.1086 9.5051 11.8894C8.82052 11.7151 8.50188 11.207 8.6388 10.5121C8.76824 9.85705 9.11924 9.31409 9.53248 8.80848C9.59969 8.72629 9.66939 8.64907 9.75403 8.55194C8.89022 8.55194 8.06375 8.55194 7.22982 8.55194C7.17754 8.79353 7.13771 9.02766 7.07548 9.25929C6.77177 10.4125 6.45811 11.5632 6.1569 12.7139C6.13947 12.7836 6.13947 12.8957 6.18179 12.938C6.6722 13.4461 7.13522 13.9916 7.6779 14.4374C8.85288 15.4063 10.0652 16.3328 11.28 17.2519C11.524 17.4387 11.8451 17.5308 12.1388 17.6404C12.2608 17.6852 12.4052 17.6703 12.5396 17.6828C12.3131 17.4013 12.0791 17.1697 11.8476 16.9306C11.514 16.5869 11.1779 16.2407 10.8518 15.8895C10.6801 15.7052 10.6975 15.4561 10.8693 15.2967C11.0336 15.1448 11.2725 15.1547 11.4468 15.3166C11.5041 15.3689 11.5538 15.4287 11.6086 15.4835C12.2334 16.1062 12.8558 16.7313 13.4881 17.3465C13.6698 17.5234 13.8441 17.5408 14.0532 17.4038C14.1975 17.3116 14.3121 17.1697 14.4465 17.0427ZM17.9192 14.1908C18.1457 14.0389 18.3623 13.8994 18.5714 13.7475C18.6112 13.7176 18.6436 13.623 18.6261 13.5781C18.1357 12.2132 17.6379 10.8508 17.1375 9.48843C17.1151 9.43115 17.0553 9.36888 16.9981 9.34646C15.8654 8.88569 14.7303 8.4274 13.5951 7.97161C12.9105 7.69764 12.231 7.6553 11.5887 8.08618C10.9041 8.54447 10.2917 9.08494 9.84614 9.78482C9.67437 10.0538 9.55737 10.3627 9.45531 10.6665C9.37316 10.9081 9.45282 11.0177 9.69927 11.075C9.86107 11.1124 10.0328 11.1373 10.1971 11.1223C10.6253 11.0825 10.9016 10.801 11.1506 10.4797C11.2277 10.3801 11.3248 10.273 11.4344 10.2307C11.8252 10.0812 12.2285 9.96415 12.6243 9.82467C12.8184 9.75743 12.9728 9.79977 13.1246 9.93177C13.742 10.4648 14.3618 10.9978 14.9892 11.5233C15.9974 12.3677 17.0553 13.1572 17.9192 14.1908ZM17.5582 8.34521C17.6578 8.57934 17.7598 8.78855 17.8395 9.00524C18.4643 10.7288 19.0842 12.4548 19.699 14.1809C19.7463 14.3154 19.8011 14.3627 19.9405 14.3577C20.284 14.3477 20.6276 14.3552 20.9711 14.3552C21.1503 14.3552 21.3296 14.3552 21.5138 14.3552C21.5138 12.1285 21.5138 9.93177 21.5138 7.71756C20.1621 7.75243 18.8477 7.92678 17.5582 8.34521ZM3.26177 13.5183C3.85922 13.5183 4.44173 13.5183 5.02673 13.5183C5.11634 13.2344 5.20596 12.9579 5.28811 12.6765C5.77354 11.0302 6.26145 9.38382 6.52781 7.68269C6.55271 7.5208 6.51288 7.45106 6.3685 7.42117C5.79843 7.30162 5.23335 7.16463 4.6583 7.0675C4.20026 6.98779 3.73475 6.95542 3.25928 6.90062C3.26177 9.11732 3.26177 11.3091 3.26177 13.5183Z" fill="#2A2A2A"/>
</g>
</g>
<defs>
<clipPath id="clip0_21774_11305">
<rect width="19.9323" height="12.4658" fill="white" transform="translate(2.42285 6.04883)"/>
</clipPath>
</defs>
</svg>
