<svg width="25" height="25" viewBox="0 0 25 25" fill="none" xmlns="http://www.w3.org/2000/svg">
<mask id="mask0_21662_42465" style="mask-type:alpha" maskUnits="userSpaceOnUse" x="0" y="0" width="25" height="25">
<rect x="0.922852" y="0.281738" width="24" height="24" fill="#D9D9D9"/>
</mask>
<g mask="url(#mask0_21662_42465)">
</g>
<g clip-path="url(#clip0_21662_42465)">
<path d="M6.92285 18.9324C6.74604 18.9324 6.57647 18.8622 6.45145 18.7371C6.32642 18.6121 6.25618 18.4425 6.25618 18.2657V4.28174H4.92285V18.2657C4.92285 18.7962 5.13357 19.3049 5.50864 19.68C5.88371 20.055 6.39242 20.2657 6.92285 20.2657H20.9229V18.9324H6.92285Z" fill="#2A2A2A"/>
<path d="M9.58968 12.2817H8.25635V16.9484H9.58968V12.2817Z" fill="#2A2A2A"/>
<path d="M12.9227 10.9482H11.5894V16.9482H12.9227V10.9482Z" fill="#2A2A2A"/>
<path d="M16.2562 12.9482H14.9229V16.9482H16.2562V12.9482Z" fill="#2A2A2A"/>
<path d="M19.5897 10.2817H18.2563V16.9484H19.5897V10.2817Z" fill="#2A2A2A"/>
<path d="M12.2563 7.22438L15.5897 10.5577L20.7277 5.41972L19.785 4.47705L15.5897 8.67238L12.2563 5.33905L8.45166 9.14372L9.39433 10.0864L12.2563 7.22438Z" fill="#2A2A2A"/>
</g>
<defs>
<clipPath id="clip0_21662_42465">
<rect width="16" height="16" fill="white" transform="translate(4.92285 4.28174)"/>
</clipPath>
</defs>
</svg>
