<svg width="24" height="25" viewBox="0 0 24 25" fill="none" xmlns="http://www.w3.org/2000/svg">
<g clip-path="url(#clip0_21662_42837)">
<path d="M6.80965 21.2055C6.8787 21.113 6.94776 21.0205 7.01681 20.928C7.47717 20.1419 7.27001 18.9858 6.46438 18.1766C6.3493 18.0609 6.23421 17.9685 6.11912 17.876C6.67154 18.639 6.78663 19.587 6.37231 20.2806C6.30326 20.3731 6.23421 20.4656 6.16515 20.5581C6.00403 20.7661 5.79687 20.9974 5.58971 21.2055C4.13959 22.6621 1.60764 24.0031 0.387695 23.6332C0.433731 23.795 0.502784 23.9338 0.617873 24.0494C1.5616 24.9974 4.59995 23.5176 6.23421 21.8529C6.44137 21.6448 6.62551 21.4367 6.80965 21.2055Z" fill="#EB564F"/>
<path d="M5.58956 21.1824C5.79672 20.9743 5.98086 20.7662 6.165 20.535C6.23406 20.4425 6.30311 20.35 6.37216 20.2576C6.76347 19.587 6.6714 18.6391 6.11897 17.8529C5.35938 17.298 4.43867 17.2055 3.74814 17.5755C3.63305 17.6448 3.54098 17.7373 3.42589 17.8298C3.21873 17.9917 3.01157 18.1766 2.82743 18.3847C1.35429 19.8645 0.0192628 22.3847 0.387547 23.6333C1.60749 23.9801 4.11642 22.6391 5.58956 21.1824Z" fill="#EB564F"/>
<path d="M5.6354 21.113C4.62262 22.1304 2.41292 23.402 1.81446 22.824C1.23901 22.246 2.50499 20.0032 3.54079 18.9858C3.65588 18.8702 3.79398 18.7546 3.90907 18.6621C3.97813 18.6159 4.04718 18.5697 4.11623 18.5003C4.5996 18.2228 5.29014 18.3616 5.79653 18.8471C6.30292 19.3558 6.41801 20.0494 6.14179 20.535C6.09576 20.5812 6.04972 20.6506 6.02671 20.6968C5.8886 20.8587 5.77351 20.9974 5.6354 21.113Z" fill="#FBBA00"/>
<path d="M10.8609 23.3559C10.7228 23.4946 10.5846 23.6102 10.4465 23.7258C10.3775 23.7258 10.3084 23.7258 10.2394 23.7258C10.0552 23.6102 10.0322 23.4484 10.0092 23.2634C9.84808 22.1767 9.66394 21.1131 9.50282 20.0264C9.4798 19.8645 9.4798 19.7027 9.4798 19.564C9.50281 19.2634 9.6179 19.0091 9.80205 18.7547C9.96317 18.5466 9.96317 18.4541 9.77903 18.2692L9.59489 18.0842C8.42098 16.905 7.24707 15.7258 6.07317 14.5466C5.88903 14.3617 5.81997 14.3617 5.61281 14.5235C5.35962 14.7316 5.06039 14.8472 4.73814 14.8703C4.66908 14.8703 4.57701 14.8703 4.50796 14.8472C3.33405 14.6854 2.18317 14.5004 1.00926 14.2923C0.894172 14.2692 0.710029 14.1767 0.687012 14.0611C0.687012 13.9917 0.779083 13.8299 0.848136 13.7143C0.986243 13.5293 1.17038 13.3906 1.33151 13.2287C2.75861 11.7952 4.16269 10.3848 5.58979 8.95125C5.9811 8.55819 6.44145 8.41946 6.97086 8.55819C7.31613 8.65068 7.66139 8.72004 8.00666 8.81252C8.30589 8.88189 8.53607 8.83565 8.76625 8.62755C8.95039 8.4657 9.13453 8.28073 9.34169 8.11888C12.4951 4.32698 17.1447 0.419462 22.8761 0.350098C23.1984 0.350098 23.5206 0.350098 23.8429 0.373219C23.8429 2.84721 23.8659 7.95703 17.7202 13.6449C17.3979 13.9455 17.0757 14.2461 16.7764 14.5004C16.4081 14.9628 16.0399 15.4021 15.6255 15.8183C15.4874 15.9802 15.4414 16.142 15.4874 16.3501C15.5795 16.6969 15.6486 17.0437 15.7406 17.3906C15.8787 17.9455 15.7406 18.431 15.3263 18.8241C13.8532 20.327 12.357 21.8299 10.8609 23.3559Z" fill="#EB564F"/>
<path d="M17.7428 13.6449C13.1853 17.853 10.5382 19.1478 9.50244 19.564C9.52546 19.2634 9.64055 19.0091 9.82469 18.7547C9.98581 18.5466 9.98581 18.4541 9.80167 18.2692L9.61753 18.0842C11.0216 17.3443 13.3464 15.8183 16.7761 12.6738C22.2313 7.63334 22.8297 3.0553 22.8758 0.350098C23.198 0.350098 23.5203 0.350098 23.8425 0.373219C23.8655 2.87033 23.8885 7.95703 17.7428 13.6449Z" fill="#EB564F"/>
<path d="M16.776 12.6738C13.3694 15.8414 11.0216 17.3443 9.61749 18.0842C8.44358 16.905 7.26968 15.7258 6.09577 14.5466C5.91163 14.3617 5.84258 14.3617 5.63542 14.5235C5.38222 14.7316 5.08299 14.8472 4.76074 14.8703C6.09577 12.3963 12.817 0.465705 22.8757 0.350098C22.8297 3.0553 22.2312 7.63334 16.776 12.6738Z" fill="#E5E8EB"/>
<path d="M9.50261 19.5638C9.45657 19.587 9.43355 19.587 9.38752 19.6101C9.3645 19.6332 9.31846 19.6332 9.29545 19.6332C9.22639 19.6563 9.18036 19.6795 9.13432 19.6795C9.01923 19.7026 8.90414 19.6795 8.81207 19.587L4.71491 15.4945C4.69189 15.4714 4.69189 15.4714 4.69189 15.4482L7.86835 18.6159C7.96042 18.7084 8.07551 18.7315 8.19059 18.7084C8.42077 18.639 8.90414 18.4771 9.64071 18.0841L9.82485 18.2691C10.009 18.454 10.009 18.5465 9.84787 18.7546C9.64071 18.9858 9.52562 19.2633 9.50261 19.5638Z" fill="#222F3E"/>
<path d="M23.29 5.18247L22.3232 4.21137C22.7606 2.70848 22.8527 1.39056 22.8757 0.350098C23.1979 0.350098 23.5202 0.350098 23.8424 0.373219C23.8654 1.50617 23.8654 3.17091 23.29 5.18247Z" fill="#EB564F"/>
<path d="M17.7428 13.6448C13.1853 17.8529 10.5382 19.1477 9.50244 19.5639C9.52546 19.2633 9.64055 19.0089 9.82469 18.7546C9.98581 18.5465 9.98581 18.454 9.80167 18.2691L9.61753 18.0841C11.0216 17.3442 13.3464 15.8182 16.7761 12.6737C20.1366 9.57542 21.6328 6.66212 22.3233 4.23438L23.2901 5.20547C22.5995 7.6101 21.1034 10.5465 17.7428 13.6448Z" fill="#7CA8DB"/>
<path d="M9.64048 18.0844C8.90391 18.4775 8.44356 18.6394 8.19036 18.7087C8.07528 18.7318 7.96019 18.7087 7.86812 18.6162L4.69167 15.4486C4.62261 15.3561 4.59959 15.2174 4.66865 15.1018C4.69166 15.0324 4.7377 14.963 4.78374 14.8937C5.10598 14.8706 5.3822 14.755 5.65841 14.5469C5.86557 14.385 5.95764 14.385 6.11877 14.57C7.29267 15.7261 8.46658 16.9052 9.64048 18.0844Z" fill="#576574"/>
<path d="M22.3236 4.23449L19.0781 0.974375C20.2981 0.581312 21.564 0.373219 22.8761 0.350098C22.853 1.39056 22.761 2.70848 22.3236 4.23449Z" fill="#EB564F"/>
<path d="M16.776 12.6737C13.3694 15.8413 11.0216 17.3442 9.61749 18.0841C8.44358 16.9049 7.26968 15.7257 6.09577 14.5465C5.91163 14.3616 5.84258 14.3616 5.63542 14.5234C5.38222 14.7315 5.08299 14.8471 4.76074 14.8702C5.91163 12.72 11.1136 3.42516 19.0548 0.951172L22.3003 4.21129C21.6558 6.66216 20.1366 9.57545 16.776 12.6737Z" fill="#ADCAE7"/>
<path d="M19.0781 7.33277C19.0781 8.32698 18.2725 9.13623 17.2828 9.13623C16.5462 9.13623 15.9017 8.69693 15.6255 8.04953C15.5334 7.81831 15.4644 7.5871 15.4644 7.33277C15.4644 6.33855 16.27 5.5293 17.2597 5.5293C17.5129 5.5293 17.7661 5.57554 17.9733 5.69115C18.6178 5.94548 19.0781 6.56976 19.0781 7.33277Z" fill="#EB564F"/>
<path d="M14.7046 11.4485C14.7046 12.4427 13.899 13.252 12.9092 13.252C12.1727 13.252 11.5282 12.8126 11.2519 12.1653C11.1599 11.934 11.0908 11.7028 11.0908 11.4485C11.0908 10.4543 11.8964 9.64502 12.8862 9.64502C13.1394 9.64502 13.3926 9.69126 13.5998 9.78375C14.2443 10.0612 14.7046 10.7086 14.7046 11.4485Z" fill="#EB564F"/>
<path d="M18.1344 6.38496C18.1344 7.37918 17.3288 8.18843 16.339 8.18843C16.0858 8.18843 15.8326 8.14219 15.6255 8.02658C15.5334 7.79537 15.4644 7.56415 15.4644 7.30982C15.4644 6.3156 16.27 5.50635 17.2597 5.50635C17.5129 5.50635 17.7661 5.55259 17.9733 5.6682C18.0884 5.87629 18.1344 6.13063 18.1344 6.38496Z" fill="#EB564F"/>
<path d="M13.7609 10.5236C13.7609 11.5179 12.9553 12.3271 11.9655 12.3271C11.7123 12.3271 11.4591 12.2809 11.2519 12.1653C11.1599 11.934 11.0908 11.7028 11.0908 11.4485C11.0908 10.4543 11.8964 9.64502 12.8862 9.64502C13.1394 9.64502 13.3926 9.69126 13.5998 9.78375C13.7148 10.015 13.7609 10.2462 13.7609 10.5236Z" fill="#EB564F"/>
</g>
<defs>
<clipPath id="clip0_21662_42837">
<rect width="23.5472" height="24" fill="white" transform="translate(0.318359 0.350098)"/>
</clipPath>
</defs>
</svg>
