<svg width="32" height="32" viewBox="0 0 32 32" fill="none" xmlns="http://www.w3.org/2000/svg">
<g clip-path="url(#clip0_21662_5886)">
<path d="M15.6415 31.6113C24.2795 31.6113 31.2819 24.6088 31.2819 15.9708C31.2819 7.3328 24.2795 0.330322 15.6415 0.330322C7.00346 0.330322 0.000976562 7.3328 0.000976562 15.9708C0.000976562 24.6088 7.00346 31.6113 15.6415 31.6113Z" fill="white"/>
<path d="M25.2213 11.5708C24.551 11.868 23.83 12.069 23.0739 12.1588C23.8459 11.6962 24.4384 10.9644 24.718 10.0909C23.9956 10.5194 23.1952 10.8303 22.344 10.9978C21.662 10.2715 20.6904 9.81763 19.6145 9.81763C17.5502 9.81763 15.8759 11.4919 15.8759 13.5561C15.8759 13.8492 15.9091 14.1344 15.9732 14.4082C12.8662 14.2523 10.1113 12.7641 8.26731 10.5015C7.94557 11.0536 7.761 11.6962 7.761 12.3813C7.761 13.678 8.42149 14.8228 9.42408 15.493C8.81154 15.4738 8.23469 15.3057 7.73089 15.0249C7.73061 15.0408 7.73061 15.0567 7.73061 15.0723C7.73061 16.8837 9.01981 18.3945 10.7297 18.7378C10.4164 18.8236 10.0854 18.8691 9.74499 18.8691C9.50354 18.8691 9.26962 18.8459 9.04156 18.8024C9.5172 20.2874 10.8976 21.3683 12.5339 21.3987C11.2542 22.4016 9.64239 22.999 7.89037 22.999C7.58926 22.999 7.29093 22.9815 6.99902 22.9466C8.65262 24.0078 10.6182 24.6264 12.7293 24.6264C19.6058 24.6264 23.3664 18.9299 23.3664 13.9891C23.3664 13.8271 23.3627 13.6657 23.3555 13.5057C24.0865 12.9787 24.7202 12.3205 25.2213 11.5708Z" fill="#393E46"/>
</g>
<defs>
<clipPath id="clip0_21662_5886">
<rect width="31.2812" height="31.2812" fill="white" transform="translate(0 0.330322)"/>
</clipPath>
</defs>
</svg>
