<svg width="19" height="19" viewBox="0 0 19 19" fill="none" xmlns="http://www.w3.org/2000/svg">
<g clip-path="url(#clip0_21662_42372)">
<path d="M3.47461 9.86963H5.72461V11.3696H3.47461V9.86963ZM7.22461 11.3696H9.47461V9.86963H7.22461V11.3696ZM3.47461 14.3696H5.72461V12.8696H3.47461V14.3696ZM7.22461 14.3696H9.47461V12.8696H7.22461V14.3696ZM3.47461 5.36963H5.72461V3.86963H3.47461V5.36963ZM7.22461 5.36963H9.47461V3.86963H7.22461V5.36963ZM3.47461 8.36963H5.72461V6.86963H3.47461V8.36963ZM7.22461 8.36963H9.47461V6.86963H7.22461V8.36963ZM18.4746 6.11963V18.1196H0.474609V2.36963C0.474609 1.77289 0.711662 1.2006 1.13362 0.778639C1.55558 0.356682 2.12787 0.119629 2.72461 0.119629L10.2246 0.119629C10.8213 0.119629 11.3936 0.356682 11.8156 0.778639C12.2376 1.2006 12.4746 1.77289 12.4746 2.36963V3.86963H16.2246C16.8213 3.86963 17.3936 4.10668 17.8156 4.52864C18.2376 4.9506 18.4746 5.52289 18.4746 6.11963ZM10.9746 2.36963C10.9746 2.17072 10.8956 1.97995 10.7549 1.8393C10.6143 1.69865 10.4235 1.61963 10.2246 1.61963H2.72461C2.5257 1.61963 2.33493 1.69865 2.19428 1.8393C2.05363 1.97995 1.97461 2.17072 1.97461 2.36963V16.6196H10.9746V2.36963ZM16.9746 6.11963C16.9746 5.92072 16.8956 5.72995 16.7549 5.5893C16.6143 5.44865 16.4235 5.36963 16.2246 5.36963H12.4746V16.6196H16.9746V6.11963ZM13.9746 11.3696H15.4746V9.86963H13.9746V11.3696ZM13.9746 14.3696H15.4746V12.8696H13.9746V14.3696ZM13.9746 8.36963H15.4746V6.86963H13.9746V8.36963Z" fill="#2A2A2A"/>
</g>
<defs>
<clipPath id="clip0_21662_42372">
<rect width="18" height="18" fill="white" transform="translate(0.474609 0.119629)"/>
</clipPath>
</defs>
</svg>
