<svg width="19" height="19" viewBox="0 0 19 19" fill="none" xmlns="http://www.w3.org/2000/svg">
<g clip-path="url(#clip0_21662_42377)">
<path d="M17.4746 7.62002V4.93502C17.4746 4.75959 17.4646 4.58431 17.4446 4.41002C17.3444 3.49257 16.9614 2.62897 16.3487 1.93883C15.7359 1.24868 14.9237 0.766137 14.0246 0.558017C11.3559 -0.0232451 8.59333 -0.0232451 5.92461 0.558017C5.02553 0.766239 4.21341 1.24881 3.60068 1.93894C2.98795 2.62907 2.60492 3.4926 2.50461 4.41002C2.48466 4.58431 2.47465 4.75959 2.47461 4.93502V7.62002C2.07678 7.62002 1.69525 7.77805 1.41395 8.05936C1.13264 8.34066 0.974609 8.72219 0.974609 9.12002L0.974609 9.87002C0.974609 10.2678 1.13264 10.6494 1.41395 10.9307C1.69525 11.212 2.07678 11.37 2.47461 11.37V12.87C2.47426 13.4522 2.60965 14.0265 2.87003 14.5473C3.13041 15.0681 3.50862 15.521 3.97461 15.87V16.245C3.97414 16.71 4.14646 17.1586 4.45812 17.5036C4.76978 17.8487 5.19855 18.0657 5.66117 18.1124C6.1238 18.1591 6.58729 18.0323 6.96166 17.7565C7.33603 17.4807 7.59458 17.0757 7.68711 16.62H12.2621C12.3546 17.0757 12.6132 17.4807 12.9876 17.7565C13.3619 18.0323 13.8254 18.1591 14.288 18.1124C14.7507 18.0657 15.1794 17.8487 15.4911 17.5036C15.8028 17.1586 15.9751 16.71 15.9746 16.245V15.87C16.4406 15.521 16.8188 15.0681 17.0792 14.5473C17.3396 14.0265 17.475 13.4522 17.4746 12.87V11.37C17.8724 11.37 18.254 11.212 18.5353 10.9307C18.8166 10.6494 18.9746 10.2678 18.9746 9.87002V9.12002C18.9746 8.72219 18.8166 8.34066 18.5353 8.05936C18.254 7.77805 17.8724 7.62002 17.4746 7.62002ZM3.97461 9.87002V5.37002H15.9746V9.87002H3.97461ZM6.26361 2.01902C8.71 1.48684 11.2422 1.48684 13.6886 2.01902C14.1639 2.12978 14.6042 2.35692 14.97 2.68001C15.3358 3.0031 15.6155 3.41202 15.7841 3.87002H12.9746C12.9746 3.6711 12.8956 3.48034 12.7549 3.33969C12.6143 3.19903 12.4235 3.12002 12.2246 3.12002H7.72461C7.5257 3.12002 7.33493 3.19903 7.19428 3.33969C7.05363 3.48034 6.97461 3.6711 6.97461 3.87002H4.16511C4.33397 3.41167 4.61418 3.00251 4.9805 2.67939C5.34683 2.35627 5.78776 2.12933 6.26361 2.01902ZM13.7246 15.12H6.22461C5.62787 15.12 5.05558 14.883 4.63362 14.461C4.21166 14.0391 3.97461 13.4668 3.97461 12.87V11.37H5.47461V12.12C5.47461 12.3189 5.55363 12.5097 5.69428 12.6503C5.83493 12.791 6.0257 12.87 6.22461 12.87C6.42352 12.87 6.61429 12.791 6.75494 12.6503C6.89559 12.5097 6.97461 12.3189 6.97461 12.12V11.37H12.9746V12.12C12.9746 12.3189 13.0536 12.5097 13.1943 12.6503C13.3349 12.791 13.5257 12.87 13.7246 12.87C13.9235 12.87 14.1143 12.791 14.2549 12.6503C14.3956 12.5097 14.4746 12.3189 14.4746 12.12V11.37H15.9746V12.87C15.9746 13.4668 15.7376 14.0391 15.3156 14.461C14.8936 14.883 14.3213 15.12 13.7246 15.12Z" fill="#2A2A2A"/>
</g>
<defs>
<clipPath id="clip0_21662_42377">
<rect width="18" height="18" fill="white" transform="translate(0.974609 0.119629)"/>
</clipPath>
</defs>
</svg>
