<svg width="21" height="21" viewBox="0 0 21 21" fill="none" xmlns="http://www.w3.org/2000/svg">
<g clip-path="url(#clip0_21662_42381)">
<path d="M18.3913 4.19563C18.0978 3.39247 17.5648 2.69879 16.8643 2.20832C16.1639 1.71785 15.3297 1.45424 14.4746 1.45312H7.47461C6.61951 1.45424 5.78537 1.71785 5.08491 2.20832C4.38445 2.69879 3.85146 3.39247 3.55795 4.19563L1.30795 10.3848C1.08665 10.9944 0.973839 11.638 0.974613 12.2865V13.1198C0.9761 13.7638 1.12747 14.3986 1.41675 14.974C1.70603 15.5493 2.12527 16.0495 2.64128 16.4348C2.64128 16.4415 2.64128 16.4465 2.64128 16.4531V18.1198C2.64128 18.7828 2.90467 19.4187 3.37351 19.8876C3.84235 20.3564 4.47824 20.6198 5.14128 20.6198C5.80432 20.6198 6.44021 20.3564 6.90905 19.8876C7.37789 19.4187 7.64128 18.7828 7.64128 18.1198V17.2865H14.3079V18.1198C14.3079 18.7828 14.5713 19.4187 15.0402 19.8876C15.509 20.3564 16.1449 20.6198 16.8079 20.6198C17.471 20.6198 18.1069 20.3564 18.5757 19.8876C19.0446 19.4187 19.3079 18.7828 19.3079 18.1198V16.4531C19.3079 16.4465 19.3079 16.4415 19.3079 16.4348C19.824 16.0495 20.2432 15.5493 20.5325 14.974C20.8218 14.3986 20.9731 13.7638 20.9746 13.1198V12.2865C20.9755 11.6382 20.8626 10.9949 20.6413 10.3856L18.3913 4.19563ZM5.12628 4.76562C5.30248 4.2841 5.62206 3.86816 6.04195 3.57388C6.46185 3.2796 6.96187 3.12111 7.47461 3.11979H14.4746C14.9876 3.12077 15.488 3.2791 15.9083 3.57341C16.3285 3.86771 16.6483 4.28383 16.8246 4.76562L18.6479 9.78646H3.30045L5.12628 4.76562ZM5.97461 18.1198C5.97461 18.3408 5.88682 18.5528 5.73054 18.709C5.57426 18.8653 5.36229 18.9531 5.14128 18.9531C4.92027 18.9531 4.70831 18.8653 4.55202 18.709C4.39574 18.5528 4.30795 18.3408 4.30795 18.1198V17.2031C4.58222 17.2588 4.86141 17.2867 5.14128 17.2865H5.97461V18.1198ZM17.6413 18.1198C17.6413 18.3408 17.5535 18.5528 17.3972 18.709C17.2409 18.8653 17.029 18.9531 16.8079 18.9531C16.5869 18.9531 16.375 18.8653 16.2187 18.709C16.0624 18.5528 15.9746 18.3408 15.9746 18.1198V17.2865H16.8079C17.0878 17.2867 17.367 17.2588 17.6413 17.2031V18.1198ZM19.3079 13.1198C19.3079 13.7828 19.0446 14.4187 18.5757 14.8876C18.1069 15.3564 17.471 15.6198 16.8079 15.6198H5.14128C4.47824 15.6198 3.84235 15.3564 3.37351 14.8876C2.90467 14.4187 2.64128 13.7828 2.64128 13.1198V12.2865C2.64468 12.0059 2.67848 11.7264 2.74211 11.4531H4.30795V12.2865C4.30795 12.5075 4.39574 12.7194 4.55202 12.8757C4.70831 13.032 4.92027 13.1198 5.14128 13.1198C5.36229 13.1198 5.57426 13.032 5.73054 12.8757C5.88682 12.7194 5.97461 12.5075 5.97461 12.2865V11.4531H15.9746V12.2865C15.9746 12.5075 16.0624 12.7194 16.2187 12.8757C16.375 13.032 16.5869 13.1198 16.8079 13.1198C17.029 13.1198 17.2409 13.032 17.3972 12.8757C17.5535 12.7194 17.6413 12.5075 17.6413 12.2865V11.4531H19.2071C19.2708 11.7264 19.3046 12.0058 19.3079 12.2865V13.1198Z" fill="#2A2A2A"/>
</g>
<defs>
<clipPath id="clip0_21662_42381">
<rect width="20" height="20" fill="white" transform="translate(0.974609 0.619629)"/>
</clipPath>
</defs>
</svg>
