<svg width="32" height="32" viewBox="0 0 32 32" fill="none" xmlns="http://www.w3.org/2000/svg">
<circle cx="16" cy="16.3303" r="13" fill="#393E46"/>
<path d="M20.3027 8.65283H10.9792C9.49102 8.65283 8.28027 9.86358 8.28027 11.3517V20.6752C8.28027 22.1634 9.49102 23.3745 10.9792 23.3745H20.3027C21.7908 23.3745 23.0019 22.1637 23.0019 20.6752V11.3517C23.0019 9.86358 21.7912 8.65283 20.3027 8.65283ZM15.6409 20.8599C12.9689 20.8599 10.7948 18.6859 10.7948 16.0135C10.7948 13.3414 12.9689 11.1674 15.6409 11.1674C18.3133 11.1674 20.4874 13.3414 20.4874 16.0135C20.4874 18.6856 18.313 20.8599 15.6409 20.8599ZM20.6432 12.1694C20.0106 12.1694 19.4962 11.6549 19.4962 11.0227C19.4962 10.3905 20.0106 9.87612 20.6432 9.87612C21.2754 9.87612 21.7898 10.3905 21.7898 11.0227C21.7898 11.6549 21.2754 12.1694 20.6432 12.1694Z" fill="white"/>
<path d="M15.6409 13.2153C14.0983 13.2153 12.8423 14.4707 12.8423 16.0132C12.8423 17.5564 14.0983 18.8121 15.6409 18.8121C17.1841 18.8121 18.4391 17.5564 18.4391 16.0132C18.4391 14.471 17.1837 13.2153 15.6409 13.2153Z" fill="white"/>
<path d="M15.641 0.330322C7.00308 0.330322 0 7.3334 0 15.9714C0 24.6093 7.00308 31.6124 15.641 31.6124C24.279 31.6124 31.2821 24.6093 31.2821 15.9714C31.2821 7.3334 24.279 0.330322 15.641 0.330322ZM25.0496 20.6753C25.0496 23.293 22.9205 25.4221 20.3028 25.4221H10.9793C8.36194 25.4221 6.23251 23.293 6.23251 20.6753V11.3518C6.23251 8.73443 8.36194 6.605 10.9793 6.605H20.3028C22.9205 6.605 25.0496 8.73443 25.0496 11.3518V20.6753Z" fill="white"/>
</svg>
