<svg width="11" height="9" viewBox="0 0 11 9" fill="none" xmlns="http://www.w3.org/2000/svg">
<g clip-path="url(#clip0_21662_43186)">
<path d="M3.33231 7.16948C4.04233 6.37784 4.73446 5.61408 5.42062 4.85032C6.53637 3.60711 7.65212 2.3639 8.76787 1.12627C9.05427 0.802929 9.4958 0.75833 9.81202 1.0092C10.1163 1.2545 10.1402 1.66147 9.85976 1.97924C7.89675 4.1646 5.92778 6.35554 3.9588 8.54091C3.58887 8.95345 3.15331 8.95903 2.76549 8.56321C1.93016 7.70467 1.10081 6.84056 0.271451 5.97645C-0.0268779 5.66425 -0.00897815 5.25728 0.295318 5.00084C0.593647 4.74997 1.02324 4.77784 1.30964 5.07331C1.91226 5.69213 2.50295 6.31094 3.09961 6.93533C3.17121 7.00781 3.24281 7.07471 3.33231 7.16948Z" fill="white"/>
</g>
<defs>
<clipPath id="clip0_21662_43186">
<rect width="10" height="8" fill="white" transform="translate(0.0566406 0.847168)"/>
</clipPath>
</defs>
</svg>
