<svg width="1920" height="124" viewBox="0 0 1920 124" fill="none" xmlns="http://www.w3.org/2000/svg">
<g filter="url(#filter0_d_21662_42326)">
<rect width="1920" height="110" fill="white"/>
</g>
<path d="M128.595 56.6475C129.678 57.1122 131.223 58.0599 131.223 59.6762V65.2044C132.851 64.7267 134.532 64.4479 136.217 64.2826V58.3826C136.217 58.2199 136.426 58.0883 136.684 58.0883H140.838C141.625 58.1141 142.42 58.1554 143.187 58.2251C147.119 58.5969 150.469 59.5032 153.175 60.9285L153.191 60.9208C155.352 62.0801 157.59 63.8824 158.828 66.5161C159.739 66.7175 160.628 66.906 161.403 67.0712L162.084 67.2158C162.924 67.394 163.769 67.5282 164.622 67.616C163.933 64.9436 162.002 61.84 156.844 59.2786L156.856 59.2734C156.45 59.072 156.036 58.8835 155.614 58.7028C155.569 58.6821 155.524 58.6615 155.475 58.6408C155.471 58.6408 155.466 58.6382 155.462 58.6357C152.072 57.2155 148.074 56.4383 143.531 56.3196C140.387 56.2369 137.193 56.2576 134.097 56.2782C133.798 56.2808 133.495 56.2808 133.195 56.2834H128.776C128.464 56.286 128.337 56.5364 128.595 56.6475Z" fill="#CD113B"/>
<path d="M174.453 67.761C174.207 67.8229 173.94 67.8875 173.678 67.9469C173.678 67.9469 173.678 67.9469 173.674 67.9494C173.645 67.9546 173.62 67.9598 173.592 67.9675C169.574 68.928 165.535 68.9874 161.587 68.1483L160.906 68.0037C159.41 67.6861 157.864 67.3582 156.372 66.9967C150.423 65.5507 145.408 64.9259 140.583 65.0266C136.61 65.1118 132.444 65.4423 128.861 67.2781C124.732 69.3954 122.649 71.9955 122.666 75.0114C122.682 79.0471 125.745 82.1559 131.53 84.0072C134.949 85.102 138.426 85.6494 141.936 85.6494C145.367 85.6494 148.836 85.1253 152.304 84.0769C160.062 81.735 164.309 77.769 164.928 72.2925C164.932 72.2692 164.936 72.2486 164.936 72.2253C164.945 72.1711 164.953 72.1195 164.957 72.073C164.957 72.0446 164.961 72.0136 164.965 71.9852C164.965 71.962 164.969 71.9413 164.969 71.9181C164.973 71.8948 164.973 71.8742 164.973 71.8509C164.977 71.7554 164.977 71.6883 164.973 71.6521C164.969 71.6263 164.969 71.6134 164.969 71.6134C164.969 71.6134 165.133 71.5824 165.392 71.5411C165.445 71.5308 165.51 71.523 165.572 71.5153L165.691 71.4972C166.868 71.3216 168.085 71.1434 169.217 70.8517C170.898 70.4179 172.353 69.8059 173.62 68.9874C173.993 68.7473 174.354 68.4891 174.699 68.2102L174.826 68.107C174.842 68.0915 174.858 68.0811 174.871 68.0682C174.912 68.0321 174.928 68.0037 174.936 67.9779C174.949 67.8281 174.711 67.6964 174.453 67.761ZM150.008 82.9357C146.778 84.0356 144.699 84.3197 139.877 84.3197C134.49 84.2577 129.521 82.2927 126.585 79.0626C124.064 76.2869 124.064 73.4182 126.585 70.7613C128.492 68.7602 131.493 67.7042 135.511 67.6267C135.749 67.6215 135.986 67.6189 136.22 67.6189C140.779 67.6189 145.076 68.471 149.094 69.3541C151.148 69.8034 153.252 70.2217 155.289 70.627C156.564 70.8801 157.876 71.1383 159.168 71.4068C159.233 71.4223 159.299 71.4352 159.369 71.4481C159.492 71.4739 159.615 71.4998 159.738 71.5256V72.042C159.742 72.0962 159.742 72.153 159.742 72.2072C159.738 76.9247 156.224 80.8158 150.008 82.9357Z" fill="#CD113B"/>
<path d="M135.562 68.6098C133.89 68.6408 132.451 68.8551 131.225 69.2605V81.1353C132.709 81.9668 134.406 82.5813 136.218 82.9479V82.5374V68.6021C136.001 68.6021 135.78 68.6046 135.562 68.6098Z" fill="#CD113B"/>
<path d="M190.374 75.7027C189.55 74.9745 188.419 74.6104 186.988 74.6104C185.446 74.6104 184.261 74.9564 183.437 75.651C182.613 76.3456 182.199 77.2984 182.199 78.5119V85.6384H176.582V69.5109C176.582 68.5349 177.841 67.7422 179.391 67.7422C180.161 67.7422 180.821 67.9152 181.371 68.2612C181.92 68.6072 182.195 69.0255 182.195 69.5109V73.6215C183.187 72.581 184.589 71.9225 186.406 71.6437C188.222 71.3674 189.956 71.4345 191.608 71.8528C193.15 72.2685 194.446 72.9269 195.491 73.8307C196.537 74.7318 197.061 75.9815 197.061 77.5772V85.641H191.526V78.4629C191.526 77.9439 191.457 77.4662 191.321 77.0324C191.186 76.596 190.87 76.1519 190.374 75.7027Z" fill="#CD113B"/>
<path d="M213.244 84.8043C212.087 85.1865 210.862 85.4188 209.566 85.5066C208.27 85.5918 207.131 85.6357 206.138 85.6357C204.154 85.6357 202.42 85.2975 200.935 84.621C199.451 83.9445 198.705 82.8265 198.705 81.2669C198.705 79.8106 199.377 78.7701 200.73 78.1452C202.079 77.5203 203.801 77.1046 205.892 76.8981C206.167 76.8981 206.499 76.8722 206.885 76.8206C207.27 76.769 207.709 76.7251 208.205 76.6915C210.628 76.4824 211.837 76.0331 211.837 75.3385C211.837 74.8195 211.411 74.4813 210.558 74.3238C209.705 74.1688 208.918 74.0888 208.205 74.0888C207.434 74.0888 206.745 74.1585 206.138 74.2979C205.532 74.4374 205.093 74.6982 204.818 75.0777H199.283C199.505 74.0036 200.275 73.1179 201.596 72.426C203.084 71.6281 205.204 71.2305 207.955 71.2305C211.038 71.2305 213.35 71.561 214.892 72.2194C216.487 72.914 217.286 73.8848 217.286 75.1319V79.8648C217.286 81.2514 216.889 82.3359 216.089 83.1157C215.294 83.8954 214.342 84.4583 213.244 84.8043ZM211.919 78.406C211.149 78.6487 210.074 78.8733 208.697 79.0825L206.798 79.3433C205.806 79.5163 205.093 79.7435 204.65 80.0198C204.265 80.4019 204.072 80.7841 204.072 81.1636C204.072 81.6826 204.318 82.1009 204.814 82.4107C205.31 82.6896 206.024 82.8265 206.962 82.8265C208.504 82.8265 209.714 82.5502 210.595 81.995C211.477 81.4399 211.915 80.6782 211.915 79.7073V78.406H211.919Z" fill="#CD113B"/>
<path d="M248.505 72.6712C246.467 71.8734 244.241 71.4757 241.814 71.4757C240.604 71.5093 239.432 71.6229 238.304 71.8114C237.177 72.005 236.201 72.3226 235.373 72.7719C234.38 72.2555 233.282 71.9069 232.068 71.7339C230.858 71.5584 229.616 71.4731 228.349 71.4731C225.984 71.5429 223.823 71.9741 221.867 72.7719C219.907 73.5698 218.932 75.15 218.932 77.5048V81.9459V85.6228H221.912C222.736 85.6228 223.413 85.4575 223.938 85.1296C224.458 84.8017 224.721 84.3731 224.721 83.8541V81.9434V76.7767C224.721 75.9427 225.102 75.3385 225.877 74.9537C226.648 74.5742 227.533 74.3805 228.517 74.3805C229.514 74.3805 230.407 74.5742 231.207 74.9537C232.002 75.3385 232.4 75.9427 232.4 76.7767V85.6176H238.099V76.7767C238.099 75.9427 238.501 75.3385 239.296 74.9537C240.092 74.5742 240.99 74.3805 241.982 74.3805C242.974 74.3805 243.868 74.5742 244.663 74.9537C245.459 75.3385 245.864 75.9427 245.864 76.7767V83.8541C245.864 84.3705 246.127 84.7991 246.643 85.127C247.168 85.455 247.845 85.6176 248.665 85.6176H251.559V77.5022C251.559 75.0829 250.538 73.4691 248.505 72.6712Z" fill="#CD113B"/>
<path d="M267.732 84.8043C266.576 85.1865 265.35 85.4188 264.054 85.5066C262.759 85.5918 261.619 85.6357 260.627 85.6357C258.646 85.6357 256.908 85.2975 255.424 84.621C253.935 83.9445 253.193 82.8265 253.193 81.2669C253.193 79.8106 253.866 78.7701 255.219 78.1452C256.568 77.5203 258.29 77.1046 260.381 76.8981C260.655 76.8981 260.987 76.8722 261.373 76.8206C261.758 76.769 262.197 76.7251 262.693 76.6915C265.116 76.4824 266.326 76.0331 266.326 75.3385C266.326 74.8195 265.899 74.4813 265.046 74.3238C264.194 74.1688 263.406 74.0888 262.693 74.0888C261.922 74.0888 261.233 74.1585 260.627 74.2979C260.02 74.4374 259.581 74.6982 259.306 75.0777H253.771C253.993 74.0036 254.764 73.1179 256.084 72.426C257.572 71.6281 259.688 71.2305 262.443 71.2305C265.526 71.2305 267.839 71.561 269.38 72.2194C270.975 72.914 271.774 73.8848 271.774 75.1319V79.8648C271.774 81.2514 271.373 82.3359 270.577 83.1157C269.782 83.8954 268.835 84.4583 267.732 84.8043ZM266.412 78.406C265.641 78.6487 264.567 78.8733 263.189 79.0825L261.291 79.3433C260.299 79.5163 259.585 79.7435 259.142 80.0198C258.757 80.4019 258.564 80.7841 258.564 81.1636C258.564 81.6826 258.81 82.1009 259.306 82.4107C259.803 82.6896 260.516 82.8265 261.455 82.8265C262.996 82.8265 264.206 82.5502 265.087 81.995C265.969 81.4399 266.408 80.6782 266.408 79.7073V78.406H266.412Z" fill="#CD113B"/>
<path d="M279.201 71.801V76.898L286.22 71.801H293.157L285.314 77.1072L293.243 85.6382H286.306L282.259 80.957C281.435 80.0197 280.718 79.6221 280.111 79.7615C279.504 79.9009 279.201 80.1075 279.201 80.3864V82.31V85.6382H273.42V69.6166C273.42 68.5812 274.752 67.7446 276.392 67.7446C277.163 67.7446 277.823 67.9176 278.373 68.2636C278.922 68.6096 279.197 69.0098 279.197 69.4591V71.801H279.201Z" fill="#CD113B"/>
<path d="M306.982 84.8043C305.826 85.1865 304.6 85.4188 303.304 85.5066C302.009 85.5918 300.869 85.6357 299.877 85.6357C297.896 85.6357 296.158 85.2975 294.674 84.621C293.185 83.9445 292.443 82.8265 292.443 81.2669C292.443 79.8106 293.116 78.7701 294.469 78.1452C295.818 77.5203 297.54 77.1046 299.631 76.8981C299.905 76.8981 300.237 76.8722 300.623 76.8206C301.008 76.769 301.447 76.7251 301.943 76.6915C304.366 76.4824 305.576 76.0331 305.576 75.3385C305.576 74.8195 305.149 74.4813 304.296 74.3238C303.444 74.1688 302.656 74.0888 301.943 74.0888C301.172 74.0888 300.483 74.1585 299.877 74.2979C299.27 74.4374 298.831 74.6982 298.556 75.0777H293.021C293.243 74.0036 294.014 73.1179 295.334 72.426C296.822 71.6281 298.938 71.2305 301.693 71.2305C304.776 71.2305 307.088 71.561 308.63 72.2194C310.225 72.914 311.024 73.8848 311.024 75.1319V79.8648C311.024 81.2514 310.623 82.3359 309.827 83.1157C309.032 83.8954 308.081 84.4583 306.982 84.8043ZM305.662 78.406C304.891 78.6487 303.817 78.8733 302.439 79.0825L300.541 79.3433C299.549 79.5163 298.835 79.7435 298.392 80.0198C298.007 80.4019 297.814 80.7841 297.814 81.1636C297.814 81.6826 298.06 82.1009 298.556 82.4107C299.053 82.6896 299.766 82.8265 300.705 82.8265C302.246 82.8265 303.456 82.5502 304.337 81.995C305.219 81.4399 305.658 80.6782 305.658 79.7073V78.406H305.662Z" fill="#CD113B"/>
<g filter="url(#filter1_d_21662_42326)">
<rect y="39.4653" width="1920" height="70.5344" fill="white"/>
</g>
<rect width="1920" height="38.626" fill="white"/>
<path d="M0 38.2061L1920 38.2062" stroke="white"/>
<defs>
<filter id="filter0_d_21662_42326" x="-10" y="-6" width="1940" height="130" filterUnits="userSpaceOnUse" color-interpolation-filters="sRGB">
<feFlood flood-opacity="0" result="BackgroundImageFix"/>
<feColorMatrix in="SourceAlpha" type="matrix" values="0 0 0 0 0 0 0 0 0 0 0 0 0 0 0 0 0 0 127 0" result="hardAlpha"/>
<feOffset dy="4"/>
<feGaussianBlur stdDeviation="5"/>
<feColorMatrix type="matrix" values="0 0 0 0 0.766667 0 0 0 0 0.766667 0 0 0 0 0.766667 0 0 0 0.1 0"/>
<feBlend mode="normal" in2="BackgroundImageFix" result="effect1_dropShadow_21662_42326"/>
<feBlend mode="normal" in="SourceGraphic" in2="effect1_dropShadow_21662_42326" result="shape"/>
</filter>
<filter id="filter1_d_21662_42326" x="-10" y="33.4653" width="1940" height="90.5342" filterUnits="userSpaceOnUse" color-interpolation-filters="sRGB">
<feFlood flood-opacity="0" result="BackgroundImageFix"/>
<feColorMatrix in="SourceAlpha" type="matrix" values="0 0 0 0 0 0 0 0 0 0 0 0 0 0 0 0 0 0 127 0" result="hardAlpha"/>
<feOffset dy="4"/>
<feGaussianBlur stdDeviation="5"/>
<feColorMatrix type="matrix" values="0 0 0 0 0.766667 0 0 0 0 0.766667 0 0 0 0 0.766667 0 0 0 0.1 0"/>
<feBlend mode="normal" in2="BackgroundImageFix" result="effect1_dropShadow_21662_42326"/>
<feBlend mode="normal" in="SourceGraphic" in2="effect1_dropShadow_21662_42326" result="shape"/>
</filter>
</defs>
</svg>
