<svg width="18" height="19" viewBox="0 0 18 19" fill="none" xmlns="http://www.w3.org/2000/svg">
<g clip-path="url(#clip0_21662_42498)">
<path d="M11.2876 3.86963C12.0201 4.01255 12.6934 4.37082 13.2211 4.89858C13.7489 5.42634 14.1072 6.09958 14.2501 6.83213M11.2876 0.869629C12.8095 1.03871 14.2288 1.72026 15.3123 2.80238C16.3957 3.88451 17.0791 5.30289 17.2501 6.82463M16.5001 12.8096V15.0596C16.5009 15.2685 16.4581 15.4753 16.3745 15.6666C16.2908 15.858 16.168 16.0298 16.0141 16.171C15.8602 16.3122 15.6785 16.4197 15.4806 16.4867C15.2828 16.5536 15.0731 16.5784 14.8651 16.5596C12.5572 16.3089 10.3403 15.5202 8.39257 14.2571C6.58044 13.1056 5.04407 11.5693 3.89257 9.75713C2.62506 7.80053 1.83625 5.57288 1.59007 3.25463C1.57133 3.04723 1.59598 2.8382 1.66245 2.64085C1.72892 2.4435 1.83575 2.26215 1.97615 2.10834C2.11654 1.95454 2.28743 1.83166 2.47792 1.74752C2.6684 1.66338 2.87433 1.61983 3.08257 1.61963H5.33257C5.69655 1.61605 6.04942 1.74494 6.32539 1.98228C6.60137 2.21962 6.78163 2.54921 6.83257 2.90963C6.92754 3.62968 7.10366 4.33667 7.35757 5.01713C7.45848 5.28557 7.48032 5.57732 7.4205 5.85779C7.36069 6.13826 7.22172 6.39571 7.02007 6.59963L6.06757 7.55213C7.13524 9.42979 8.68991 10.9845 10.5676 12.0521L11.5201 11.0996C11.724 10.898 11.9814 10.759 12.2619 10.6992C12.5424 10.6394 12.8341 10.6612 13.1026 10.7621C13.783 11.016 14.49 11.1922 15.2101 11.2871C15.5744 11.3385 15.9071 11.522 16.145 11.8028C16.3828 12.0835 16.5092 12.4418 16.5001 12.8096Z" stroke="#2A2A2A" stroke-linecap="round" stroke-linejoin="round"/>
</g>
<defs>
<clipPath id="clip0_21662_42498">
<rect width="18" height="18" fill="white" transform="translate(0 0.119629)"/>
</clipPath>
</defs>
</svg>
