<svg width="201" height="21" viewBox="0 0 201 21" fill="none" xmlns="http://www.w3.org/2000/svg">
<g clip-path="url(#clip0_21662_43062)">
<path d="M4.02197 10.8083C5.6062 9.43635 7.60279 8.68506 9.66458 8.68506C11.7264 8.68506 13.723 9.43635 15.3072 10.8083" stroke="#6D6E70" stroke-width="2" stroke-linecap="round" stroke-linejoin="round"/>
<path d="M1.15283 7.85017C3.49517 5.70347 6.51034 4.51904 9.63277 4.51904C12.7552 4.51904 15.7704 5.70347 18.1127 7.85017" stroke="#6D6E70" stroke-width="2" stroke-linecap="round" stroke-linejoin="round"/>
<path d="M6.85156 13.775C7.66525 13.174 8.63866 12.8511 9.6368 12.8511C10.6349 12.8511 11.6083 13.174 12.422 13.775" stroke="#6D6E70" stroke-width="2" stroke-linecap="round" stroke-linejoin="round"/>
<path d="M9.63281 17.0166H9.64083" stroke="#6D6E70" stroke-width="2" stroke-linecap="round" stroke-linejoin="round"/>
</g>
<g clip-path="url(#clip1_21662_43062)">
<path d="M106.258 5.70026C106.162 5.30477 105.968 4.9424 105.695 4.64977C105.422 4.35713 105.08 4.14458 104.703 4.03359C103.324 3.68359 97.8097 3.68359 97.8097 3.68359C97.8097 3.68359 92.2953 3.68359 90.9168 4.06693C90.5394 4.17791 90.197 4.39046 89.924 4.6831C89.6509 4.97574 89.457 5.3381 89.3618 5.73359C89.1095 7.18822 88.9861 8.66385 88.9931 10.1419C88.9841 11.6311 89.1076 13.118 89.3618 14.5836C89.4668 14.9668 89.665 15.3154 89.9374 15.5957C90.2098 15.8759 90.5471 16.0784 90.9168 16.1836C92.2953 16.5669 97.8097 16.5669 97.8097 16.5669C97.8097 16.5669 103.324 16.5669 104.703 16.1836C105.08 16.0726 105.422 15.8601 105.695 15.5674C105.968 15.2748 106.162 14.9124 106.258 14.5169C106.508 13.0733 106.631 11.6089 106.626 10.1419C106.635 8.65272 106.512 7.16584 106.258 5.70026V5.70026Z" stroke="#CDCFD3" stroke-width="2" stroke-linecap="round" stroke-linejoin="round"/>
<path d="M96.0059 12.867L100.615 10.142L96.0059 7.41699V12.867Z" stroke="#CDCFD3" stroke-width="2" stroke-linecap="round" stroke-linejoin="round"/>
</g>
<g clip-path="url(#clip2_21662_43062)">
<path d="M149.005 7.0166H149.807C150.657 7.0166 151.473 7.36779 152.074 7.99291C152.675 8.61803 153.013 9.46588 153.013 10.3499C153.013 11.234 152.675 12.0818 152.074 12.707C151.473 13.3321 150.657 13.6833 149.807 13.6833H149.005" stroke="#CDCFD3" stroke-width="2" stroke-linecap="round" stroke-linejoin="round"/>
<path d="M136.181 7.0166H149.005V14.5166C149.005 15.4007 148.667 16.2485 148.066 16.8736C147.465 17.4987 146.65 17.8499 145.799 17.8499H139.387C138.537 17.8499 137.721 17.4987 137.12 16.8736C136.519 16.2485 136.181 15.4007 136.181 14.5166V7.0166Z" stroke="#CDCFD3" stroke-width="2" stroke-linecap="round" stroke-linejoin="round"/>
<path d="M139.387 1.18359V3.68359" stroke="#CDCFD3" stroke-width="2" stroke-linecap="round" stroke-linejoin="round"/>
<path d="M142.593 1.18359V3.68359" stroke="#CDCFD3" stroke-width="2" stroke-linecap="round" stroke-linejoin="round"/>
<path d="M145.799 1.18359V3.68359" stroke="#CDCFD3" stroke-width="2" stroke-linecap="round" stroke-linejoin="round"/>
</g>
<g clip-path="url(#clip3_21662_43062)">
<path d="M198.597 8.68343C198.561 10.2671 198.182 11.822 197.488 13.2324C196.794 14.6427 195.803 15.8722 194.589 16.8293V19.5168C194.589 19.7378 194.505 19.9497 194.354 20.106C194.204 20.2623 194 20.3501 193.788 20.3501C193.575 20.3501 193.371 20.2623 193.221 20.106C193.07 19.9497 192.986 19.7378 192.986 19.5168V2.01676C192.979 1.70365 193.061 1.39535 193.222 1.13087C193.384 0.86639 193.617 0.657607 193.892 0.530931C194.209 0.397069 194.556 0.361956 194.891 0.429884C195.227 0.497813 195.536 0.66584 195.781 0.913431C197.64 3.03423 198.647 5.81451 198.597 8.68343ZM189.78 0.350098C189.567 0.350098 189.364 0.437895 189.213 0.594175C189.063 0.750456 188.978 0.962417 188.978 1.18343V6.18343C188.976 6.69865 188.821 7.20062 188.534 7.62068C188.247 8.04074 187.843 8.35836 187.375 8.5301V1.18343C187.375 0.962417 187.291 0.750456 187.141 0.594175C186.99 0.437895 186.787 0.350098 186.574 0.350098C186.361 0.350098 186.158 0.437895 186.007 0.594175C185.857 0.750456 185.772 0.962417 185.772 1.18343V8.5301C185.305 8.35836 184.9 8.04074 184.614 7.62068C184.327 7.20062 184.171 6.69865 184.169 6.18343V1.18343C184.169 0.962417 184.085 0.750456 183.935 0.594175C183.784 0.437895 183.58 0.350098 183.368 0.350098C183.155 0.350098 182.951 0.437895 182.801 0.594175C182.651 0.750456 182.566 0.962417 182.566 1.18343V6.18343C182.568 7.1436 182.887 8.074 183.471 8.81781C184.055 9.56161 184.868 10.0733 185.772 10.2668V19.5168C185.772 19.7378 185.857 19.9497 186.007 20.106C186.158 20.2623 186.361 20.3501 186.574 20.3501C186.787 20.3501 186.99 20.2623 187.141 20.106C187.291 19.9497 187.375 19.7378 187.375 19.5168V10.2668C188.28 10.0733 189.093 9.56161 189.677 8.81781C190.261 8.074 190.58 7.1436 190.581 6.18343V1.18343C190.581 0.962417 190.497 0.750456 190.347 0.594175C190.196 0.437895 189.993 0.350098 189.78 0.350098V0.350098Z" fill="#CDCFD3"/>
</g>
<g clip-path="url(#clip4_21662_43062)">
<path d="M48.0418 6.72047C47.7984 6.72047 47.5808 6.72585 47.3581 6.72047C46.8143 6.7097 46.3948 6.28428 46.3999 5.74578C46.4051 5.20189 46.8195 4.78724 47.3685 4.78724C48.0107 4.78724 48.6478 4.78724 49.29 4.78724C49.3574 4.78724 49.4299 4.78724 49.5179 4.78724C49.5179 4.68493 49.5179 4.60953 49.5179 4.52876C49.5179 3.47329 49.5127 2.41783 49.5179 1.36236C49.5231 0.764623 49.9323 0.339206 50.4709 0.349976C50.9215 0.360746 51.2996 0.710773 51.3566 1.17927C51.367 1.2762 51.3721 1.37852 51.3721 1.48083C51.3721 2.49322 51.3721 3.51099 51.3721 4.52337C51.3721 4.60415 51.3721 4.67954 51.3721 4.77109C52.9415 4.77109 54.4849 4.77109 56.0543 4.77109C56.0543 4.68492 56.0543 4.60415 56.0543 4.52337C56.0543 3.47329 56.0491 2.4286 56.0543 1.37852C56.0543 0.807703 56.4168 0.382286 56.9141 0.349976C57.4734 0.312281 57.9085 0.737698 57.9085 1.35698C57.9137 2.34244 57.9085 3.33328 57.9085 4.31874C57.9085 4.46414 57.9085 4.60953 57.9085 4.78186C57.9965 4.78186 58.0639 4.78186 58.1364 4.78186C58.7786 4.78186 59.4157 4.78186 60.0579 4.78186C60.607 4.78186 61.0213 5.1965 61.0317 5.74039C61.0368 6.28428 60.6173 6.7097 60.0579 6.72047C59.8456 6.72047 59.6332 6.72047 59.3898 6.72047C59.3898 6.81201 59.3898 6.89279 59.3898 6.96818C59.3846 7.8944 59.4105 8.82601 59.3743 9.74685C59.2707 12.2347 57.6081 14.3995 55.3085 15.0942C55.1479 15.1427 54.9873 15.1965 54.8216 15.218C54.6662 15.2342 54.6403 15.3042 54.6403 15.4496C54.6455 16.7528 54.6455 18.056 54.6403 19.3591C54.6403 20.0376 54.0447 20.5008 53.4335 20.3069C53.0347 20.183 52.7809 19.8061 52.7809 19.343C52.7809 18.0506 52.7757 16.7635 52.7861 15.4711C52.7861 15.3096 52.755 15.2504 52.5893 15.2127C50.1395 14.6903 48.2904 12.5794 48.0677 10.0161C48.0004 9.2622 48.0418 8.49753 48.0366 7.73824C48.0366 7.40436 48.0418 7.07588 48.0418 6.72047ZM49.9116 6.73124C49.9116 7.72747 49.9116 8.70754 49.9116 9.68762C49.9116 9.77378 49.9167 9.85994 49.9323 9.9461C50.2327 12.1109 52.0247 13.5756 54.1224 13.3764C55.9248 13.2094 57.4372 11.6047 57.52 9.7307C57.5615 8.76678 57.5356 7.79747 57.5408 6.82817C57.5408 6.79586 57.5356 6.76355 57.5252 6.72047C54.9925 6.73124 52.4598 6.73124 49.9116 6.73124Z" fill="#6D6E70"/>
<path d="M53.8737 10.4577C53.5267 10.28 53.1797 10.0969 52.8275 9.91383C52.6566 9.82228 52.4805 9.74151 52.3095 9.64457C51.9315 9.43456 51.8589 8.98222 52.1542 8.6645C52.5323 8.26062 52.9155 7.86213 53.304 7.46902C53.5526 7.21593 53.8737 7.21593 54.1171 7.45825C54.3658 7.70596 54.3761 8.05061 54.1275 8.31447C53.941 8.5191 53.7391 8.70219 53.5163 8.9176C53.8685 9.10069 54.1793 9.26224 54.4901 9.42379C54.7024 9.53687 54.9199 9.63919 55.1271 9.75766C55.5052 9.96768 55.5777 10.4146 55.2825 10.7377C54.9044 11.1416 54.5211 11.5401 54.1327 11.9332C53.8789 12.1917 53.5474 12.1809 53.304 11.9278C53.0657 11.6747 53.0709 11.3409 53.3195 11.0716C53.5008 10.8777 53.6821 10.6893 53.8634 10.4954C53.8737 10.4954 53.8685 10.4846 53.8737 10.4577Z" fill="#6D6E70"/>
</g>
<defs>
<clipPath id="clip0_21662_43062">
<rect width="19.2362" height="20" fill="white" transform="translate(0.0146484 0.350098)"/>
</clipPath>
<clipPath id="clip1_21662_43062">
<rect width="19.2362" height="20" fill="white" transform="translate(88.1914 0.350098)"/>
</clipPath>
<clipPath id="clip2_21662_43062">
<rect width="19.2362" height="20" fill="white" transform="translate(134.578 0.350098)"/>
</clipPath>
<clipPath id="clip3_21662_43062">
<rect width="19.2362" height="20" fill="white" transform="translate(180.963 0.350098)"/>
</clipPath>
<clipPath id="clip4_21662_43062">
<rect width="14.6421" height="20" fill="white" transform="translate(46.3999 0.350098)"/>
</clipPath>
</defs>
</svg>
