<svg width="24" height="19" viewBox="0 0 24 19" fill="none" xmlns="http://www.w3.org/2000/svg">
<path d="M19.4661 3.54834C19.7737 3.6856 19.8873 3.92698 19.8589 4.25829C19.8447 4.39081 19.8589 4.52807 19.8542 4.66532C19.84 4.95403 19.6081 5.17648 19.3288 5.17648C19.059 5.17648 18.8177 4.9635 18.7987 4.68425C18.7845 4.46654 18.7845 4.24882 18.7987 4.0311C18.8129 3.78499 18.9833 3.65247 19.1821 3.54834C19.2768 3.54834 19.3714 3.54834 19.4661 3.54834Z" fill="#2A2A2A"/>
<path d="M21.1089 7.83617C21.1041 8.8301 20.3042 9.62051 19.3151 9.61577C18.3306 9.61104 17.5449 8.8159 17.5449 7.83144C17.5449 6.84225 18.3495 6.04238 19.3387 6.05184C20.3232 6.06131 21.1089 6.85171 21.1089 7.83617ZM19.3198 8.55085C19.7221 8.55559 20.0439 8.24321 20.0487 7.84091C20.0534 7.4386 19.741 7.11676 19.3387 7.11676C18.9364 7.11203 18.6146 7.4244 18.6146 7.82671C18.6051 8.22901 18.9128 8.54612 19.3198 8.55085Z" fill="#2A2A2A"/>
<path d="M21.624 6.10845C21.359 6.09898 21.1933 5.99959 21.1034 5.81027C21.0088 5.61148 21.0277 5.4127 21.1697 5.24704C21.3164 5.07666 21.4773 4.92047 21.643 4.77375C21.8465 4.59389 22.1399 4.61282 22.3387 4.79268C22.528 4.9678 22.5754 5.26124 22.4145 5.46949C22.2535 5.66828 22.0595 5.84813 21.8654 6.01852C21.7944 6.08005 21.6761 6.08951 21.624 6.10845Z" fill="#2A2A2A"/>
<path d="M17.5971 10.0608C17.5971 10.4158 17.0055 11.0216 16.6742 11.0169C16.4706 11.0169 16.3097 10.9222 16.2103 10.7424C16.1062 10.5578 16.1015 10.3543 16.2387 10.1933C16.3996 9.99929 16.5795 9.81471 16.7736 9.65378C16.9345 9.52126 17.138 9.52126 17.3226 9.62065C17.5024 9.72005 17.5924 9.88097 17.5971 10.0608Z" fill="#2A2A2A"/>
<path d="M17.5971 5.52209C17.5924 5.79187 17.4977 5.95279 17.3037 6.04745C17.1049 6.14211 16.9061 6.13264 16.7404 5.98592C16.5653 5.83446 16.3997 5.67354 16.253 5.49842C16.0778 5.29491 16.1015 4.99673 16.2861 4.80268C16.4659 4.61809 16.7546 4.57549 16.9629 4.74115C17.157 4.89733 17.3321 5.08665 17.4977 5.27597C17.5687 5.35643 17.5829 5.47476 17.5971 5.52209Z" fill="#2A2A2A"/>
<path d="M21.0527 10.1464C21.0575 9.87189 21.1569 9.70624 21.3604 9.61158C21.5592 9.52165 21.7579 9.54058 21.9236 9.6873C22.0893 9.82929 22.2454 9.98548 22.3874 10.1511C22.5673 10.3594 22.5578 10.6481 22.378 10.8469C22.2028 11.0457 21.8999 11.093 21.6917 10.9273C21.4976 10.7712 21.3225 10.5818 21.1569 10.3925C21.0859 10.3121 21.0717 10.1937 21.0527 10.1464Z" fill="#2A2A2A"/>
<path d="M15.8695 7.30142C15.9642 7.30142 16.0588 7.29669 16.1535 7.30142C16.4469 7.31562 16.6694 7.53334 16.6741 7.82205C16.6788 8.11076 16.4659 8.34741 16.1724 8.36161C15.9642 8.37107 15.7607 8.37107 15.5524 8.36161C15.2684 8.34741 15.0412 8.10129 15.046 7.82678C15.0507 7.54753 15.2779 7.32035 15.5666 7.30615C15.666 7.30142 15.7701 7.30142 15.8695 7.30142Z" fill="#2A2A2A"/>
<path d="M19.8542 11.3011C19.8542 11.4005 19.8589 11.4999 19.8542 11.604C19.84 11.8927 19.6081 12.1199 19.3288 12.1199C19.059 12.1199 18.8129 11.9069 18.7987 11.6277C18.7845 11.4147 18.7845 11.2017 18.7987 10.9887C18.8129 10.7 19.059 10.487 19.343 10.4918C19.6175 10.5012 19.84 10.719 19.8589 10.9982C19.8589 11.1023 19.8542 11.2017 19.8542 11.3011Z" fill="#2A2A2A"/>
<path d="M22.7936 7.30142C22.893 7.30142 22.9923 7.29669 23.0965 7.30142C23.3852 7.31562 23.6076 7.54753 23.6076 7.83151C23.6076 8.10603 23.3947 8.34268 23.1154 8.36161C22.9024 8.37581 22.6894 8.37581 22.4765 8.36161C22.1972 8.34741 21.9795 8.10603 21.9795 7.83625C21.9795 7.557 22.2019 7.32035 22.4907 7.30615C22.5948 7.30142 22.6942 7.30142 22.7936 7.30142Z" fill="#2A2A2A"/>
<path d="M0.486684 8.27523C0.571202 7.84911 0.619499 7.41707 0.74024 7.00279C1.40432 4.72424 2.85321 3.12037 5.08693 2.20303C5.13523 2.18528 5.18352 2.1616 5.24389 2.13201C5.1473 1.75916 5.04467 1.39814 4.94808 1.03712C4.83337 0.605086 5.02052 0.249987 5.41293 0.143457C5.78723 0.0428454 6.13738 0.267742 6.25209 0.687943C6.34868 1.03712 6.44527 1.3863 6.54186 1.73549C6.5479 1.74732 6.55998 1.75916 6.52979 1.71773C7.16972 1.71773 7.76739 1.68814 8.36506 1.72365C11.3534 1.88936 14.1244 4.16792 14.8247 7.01463C14.8911 7.28687 14.8187 7.51177 14.6074 7.68932C14.3901 7.86687 14.1425 7.89646 13.889 7.78401C13.5026 7.61238 13.1102 7.47626 12.6755 7.47626C11.7881 7.47034 11.0878 7.83136 10.5807 8.53564C10.2366 9.01502 10.0011 9.08012 9.45777 8.82563C9.10762 8.65992 8.70917 8.57707 8.41939 8.61258C9.08951 11.0687 9.75962 13.5248 10.4358 15.9927C11.2085 15.7856 11.9571 15.5903 12.7118 15.3891C14.1365 15.0103 15.5612 14.6552 17.0343 14.5013C19.3163 14.2646 21.4474 14.6256 23.3068 16.0342C23.5483 16.2176 23.669 16.4484 23.5966 16.7503C23.5241 17.0403 23.331 17.2356 23.0291 17.2415C22.842 17.2474 22.6186 17.1823 22.4677 17.0758C21.5078 16.3774 20.4392 15.9631 19.2559 15.827C18.2176 15.7086 17.1731 15.756 16.1589 15.9809C14.4504 16.3597 12.754 16.7858 11.0576 17.2119C9.62077 17.5729 8.18395 17.9103 6.69883 18.0523C4.74885 18.2417 2.85321 18.0464 1.03606 17.277C0.770426 17.1645 0.57724 17.0048 0.474609 16.7443C0.474609 16.6437 0.474609 16.5372 0.474609 16.4366C0.764389 15.9217 1.04209 15.8329 1.60354 16.0697C2.48495 16.4425 3.41466 16.6615 4.36852 16.7443C5.63027 16.8568 6.87994 16.7266 8.11754 16.5135C8.44354 16.4543 8.76954 16.3833 9.10762 16.3123C8.43147 13.8385 7.76739 11.4001 7.09727 8.96176C6.79542 9.09788 6.52375 9.35237 6.28227 9.70155C5.99249 10.1217 5.70875 10.1987 5.24389 9.97971C4.03044 9.41747 2.75058 9.75481 2.00803 10.8438C1.82088 11.116 1.58543 11.264 1.25339 11.2048C0.921353 11.1397 0.764389 10.9148 0.704018 10.607C0.625536 10.2046 0.553091 9.79624 0.474609 9.39379C0.486684 9.01502 0.486684 8.64217 0.486684 8.27523ZM9.02914 7.29871C8.54617 5.73627 7.67683 4.48159 6.3366 3.52874C5.66045 5.02607 5.55178 6.52933 5.92608 8.11544C6.84975 7.41116 7.86398 7.13891 9.02914 7.29871ZM4.59793 8.3936C4.2357 6.85483 4.27796 5.3575 4.74885 3.86016C3.08262 4.59403 1.51902 7.44667 1.87521 9.0742C2.69021 8.52972 3.5837 8.29299 4.59793 8.3936ZM13.0257 6.15055C12.3978 4.49342 9.3491 2.66466 7.89417 3.05527C9.06536 4.10873 9.85622 5.38709 10.3271 6.89034C11.1421 6.31627 12.0296 6.07361 13.0257 6.15055Z" fill="#2A2A2A"/>
</svg>
