<svg width="32" height="32" viewBox="0 0 32 32" fill="none" xmlns="http://www.w3.org/2000/svg">
<g clip-path="url(#clip0_21662_5897)">
<path d="M15.6405 31.6103C24.2785 31.6103 31.281 24.6078 31.281 15.9698C31.281 7.33183 24.2785 0.329346 15.6405 0.329346C7.00248 0.329346 0 7.33183 0 15.9698C0 24.6078 7.00248 31.6103 15.6405 31.6103Z" fill="white"/>
<path d="M24.9857 17.229V23.6772H21.2471V17.6611C21.2471 16.1505 20.7074 15.119 19.3538 15.119C18.3208 15.119 17.7071 15.8135 17.4361 16.4859C17.3377 16.7263 17.3123 17.06 17.3123 17.3971V23.6769H13.5736C13.5736 23.6769 13.6237 13.4877 13.5736 12.4329H17.3126V14.0263C17.3051 14.0389 17.2945 14.0511 17.2878 14.0631H17.3126V14.0263C17.8095 13.2618 18.6955 12.1689 20.682 12.1689C23.1416 12.1689 24.9857 13.7759 24.9857 17.229ZM9.66246 7.01294C8.38357 7.01294 7.54688 7.85243 7.54688 8.95538C7.54688 10.0349 8.35932 10.8987 9.61339 10.8987H9.63764C10.9416 10.8987 11.7524 10.0349 11.7524 8.95538C11.7276 7.85243 10.9416 7.01294 9.66246 7.01294ZM7.76908 23.6772H11.5065V12.4329H7.76908V23.6772Z" fill="#393E46"/>
</g>
<defs>
<clipPath id="clip0_21662_5897">
<rect width="31.281" height="31.281" fill="white" transform="translate(0 0.330322)"/>
</clipPath>
</defs>
</svg>
