<svg width="25" height="25" viewBox="0 0 25 25" fill="none" xmlns="http://www.w3.org/2000/svg">
<mask id="mask0_21774_11266" style="mask-type:alpha" maskUnits="userSpaceOnUse" x="0" y="0" width="25" height="25">
<rect x="0.922852" y="0.281738" width="24" height="24" fill="#D9D9D9"/>
</mask>
<g mask="url(#mask0_21774_11266)">
</g>
<g clip-path="url(#clip0_21774_11266)">
<path d="M12.9229 14.6567C14.2345 14.6567 15.2979 13.5934 15.2979 12.2817C15.2979 10.9701 14.2345 9.90674 12.9229 9.90674C11.6112 9.90674 10.5479 10.9701 10.5479 12.2817C10.5479 13.5934 11.6112 14.6567 12.9229 14.6567Z" stroke="#2A2A2A" stroke-width="1.5" stroke-linecap="round" stroke-linejoin="round"/>
<path d="M18.781 14.6566C18.6756 14.8954 18.6442 15.1602 18.6908 15.417C18.7373 15.6739 18.8598 15.9108 19.0423 16.0974L19.0898 16.1449C19.237 16.292 19.3538 16.4666 19.4335 16.6588C19.5131 16.851 19.5541 17.057 19.5541 17.2651C19.5541 17.4732 19.5131 17.6792 19.4335 17.8714C19.3538 18.0637 19.237 18.2383 19.0898 18.3853C18.9427 18.5325 18.7681 18.6493 18.5759 18.729C18.3837 18.8087 18.1776 18.8497 17.9696 18.8497C17.7615 18.8497 17.5555 18.8087 17.3632 18.729C17.171 18.6493 16.9964 18.5325 16.8494 18.3853L16.8019 18.3378C16.6153 18.1553 16.3783 18.0329 16.1215 17.9863C15.8647 17.9398 15.5998 17.9712 15.361 18.0766C15.1269 18.1769 14.9272 18.3436 14.7865 18.556C14.6459 18.7684 14.5704 19.0172 14.5694 19.272V19.4066C14.5694 19.8265 14.4025 20.2292 14.1056 20.5262C13.8087 20.8231 13.4059 20.9899 12.986 20.9899C12.5661 20.9899 12.1634 20.8231 11.8664 20.5262C11.5695 20.2292 11.4027 19.8265 11.4027 19.4066V19.3353C11.3966 19.0733 11.3117 18.8192 11.1593 18.606C11.0068 18.3928 10.7937 18.2304 10.5477 18.1399C10.3089 18.0345 10.044 18.0031 9.78722 18.0497C9.53041 18.0962 9.29344 18.2187 9.10686 18.4012L9.05936 18.4487C8.91231 18.5959 8.73768 18.7127 8.54547 18.7923C8.35326 18.872 8.14722 18.913 7.93915 18.913C7.73107 18.913 7.52504 18.872 7.33283 18.7923C7.14061 18.7127 6.96599 18.5959 6.81894 18.4487C6.67173 18.3016 6.55494 18.127 6.47526 17.9348C6.39558 17.7426 6.35457 17.5365 6.35457 17.3285C6.35457 17.1204 6.39558 16.9143 6.47526 16.7221C6.55494 16.5299 6.67173 16.3553 6.81894 16.2082L6.86644 16.1607C7.04895 15.9742 7.17138 15.7372 7.21794 15.4804C7.26451 15.2236 7.23307 14.9587 7.12769 14.7199C7.02734 14.4858 6.8607 14.2861 6.64831 14.1454C6.43591 14.0047 6.18702 13.9293 5.93227 13.9282H5.79769C5.37776 13.9282 4.97504 13.7614 4.6781 13.4645C4.38117 13.1676 4.21436 12.7648 4.21436 12.3449C4.21436 11.925 4.38117 11.5223 4.6781 11.2253C4.97504 10.9284 5.37776 10.7616 5.79769 10.7616H5.86894C6.13098 10.7554 6.38511 10.6706 6.5983 10.5181C6.81149 10.3657 6.97388 10.1526 7.06436 9.90658C7.16974 9.6678 7.20117 9.40292 7.15461 9.14611C7.10804 8.8893 6.98561 8.65232 6.80311 8.46574L6.75561 8.41824C6.60839 8.27119 6.49161 8.09657 6.41193 7.90436C6.33225 7.71214 6.29124 7.50611 6.29124 7.29803C6.29124 7.08996 6.33225 6.88393 6.41193 6.69171C6.49161 6.4995 6.60839 6.32487 6.75561 6.17783C6.90265 6.03061 7.07728 5.91383 7.26949 5.83415C7.46171 5.75447 7.66774 5.71346 7.87581 5.71346C8.08389 5.71346 8.28992 5.75447 8.48214 5.83415C8.67435 5.91383 8.84897 6.03061 8.99602 6.17783L9.04352 6.22533C9.2301 6.40783 9.46708 6.53026 9.72389 6.57683C9.9807 6.62339 10.2456 6.59196 10.4844 6.48658H10.5477C10.7818 6.38622 10.9815 6.21959 11.1222 6.00719C11.2629 5.7948 11.3383 5.54591 11.3394 5.29116V5.15658C11.3394 4.73665 11.5062 4.33392 11.8031 4.03699C12.1 3.74006 12.5028 3.57324 12.9227 3.57324C13.3426 3.57324 13.7453 3.74006 14.0423 4.03699C14.3392 4.33392 14.506 4.73665 14.506 5.15658V5.22783C14.507 5.48257 14.5825 5.73146 14.7232 5.94386C14.8638 6.15626 15.0635 6.32289 15.2977 6.42324C15.5365 6.52863 15.8013 6.56006 16.0582 6.5135C16.315 6.46693 16.5519 6.3445 16.7385 6.16199L16.786 6.11449C16.9331 5.96728 17.1077 5.85049 17.2999 5.77081C17.4921 5.69113 17.6982 5.65012 17.9062 5.65012C18.1143 5.65012 18.3203 5.69113 18.5126 5.77081C18.7048 5.85049 18.8794 5.96728 19.0264 6.11449C19.1737 6.26154 19.2904 6.43617 19.3701 6.62838C19.4498 6.82059 19.4908 7.02663 19.4908 7.2347C19.4908 7.44278 19.4498 7.64881 19.3701 7.84102C19.2904 8.03324 19.1737 8.20786 19.0264 8.35491L18.9789 8.40241C18.7964 8.58899 18.674 8.82596 18.6274 9.08278C18.5809 9.33959 18.6123 9.60446 18.7177 9.84324V9.90658C18.818 10.1407 18.9847 10.3404 19.1971 10.4811C19.4095 10.6217 19.6584 10.6972 19.9131 10.6982H20.0477C20.4676 10.6982 20.8703 10.8651 21.1673 11.162C21.4642 11.4589 21.631 11.8617 21.631 12.2816C21.631 12.7015 21.4642 13.1042 21.1673 13.4012C20.8703 13.6981 20.4676 13.8649 20.0477 13.8649H19.9764C19.7217 13.8659 19.4728 13.9414 19.2604 14.0821C19.048 14.2227 18.8814 14.4224 18.781 14.6566V14.6566Z" stroke="#2A2A2A" stroke-width="1.5" stroke-linecap="round" stroke-linejoin="round"/>
</g>
<defs>
<clipPath id="clip0_21774_11266">
<rect width="19" height="19" fill="white" transform="translate(3.42285 2.78174)"/>
</clipPath>
</defs>
</svg>
