<svg width="25" height="25" viewBox="0 0 25 25" fill="none" xmlns="http://www.w3.org/2000/svg">
<mask id="mask0_21774_11287" style="mask-type:alpha" maskUnits="userSpaceOnUse" x="0" y="0" width="25" height="25">
<rect x="0.922852" y="0.281738" width="24" height="24" fill="#D9D9D9"/>
</mask>
<g mask="url(#mask0_21774_11287)">
</g>
<g clip-path="url(#clip0_21774_11287)">
<path d="M21.4227 15.7267C21.3917 15.82 21.3695 15.9176 21.334 16.0064C21.0769 16.6901 20.5669 17.0364 19.8398 17.0986C19.822 17.2317 19.8132 17.3694 19.7866 17.5025C19.6048 18.4748 18.7313 19.2073 17.738 19.2162C16.8601 19.2251 15.9777 19.2206 15.0998 19.2162C14.9934 19.2162 14.9402 19.2428 14.8914 19.3494C14.5988 19.9532 14.1155 20.2684 13.4415 20.2817C13.1843 20.2861 12.9183 20.295 12.6655 20.255C11.8408 20.1263 11.2688 19.3849 11.3353 18.5591C11.4018 17.7467 12.0802 17.1074 12.9094 17.0941C13.1533 17.0897 13.3972 17.0764 13.6366 17.1074C14.2263 17.1785 14.6475 17.5025 14.9003 18.0353C14.9402 18.1241 14.9801 18.1596 15.0821 18.1596C15.9556 18.1552 16.8291 18.1596 17.7026 18.1552C18.2391 18.1507 18.6648 17.7822 18.7534 17.2539C18.7623 17.2051 18.7579 17.1563 18.7623 17.1296C18.5849 17.0719 18.4165 17.0408 18.2657 16.9609C17.9065 16.77 17.707 16.4548 17.707 16.0464C17.7026 14.6169 17.7026 13.1873 17.707 11.7578C17.707 11.2562 18.0573 10.8433 18.545 10.7367C18.616 10.7234 18.6825 10.7101 18.7534 10.7012C18.9707 8.15293 17.3612 6.12852 15.2328 5.5647C14.8293 5.45815 14.4037 5.41375 13.9869 5.40044C13.2819 5.3738 12.5724 5.39156 11.863 5.396C9.45532 5.40931 7.46001 7.15404 7.12746 9.53806C7.07425 9.91986 7.08312 10.3105 7.06538 10.6923C7.19397 10.719 7.30039 10.7323 7.39793 10.7634C7.83247 10.8966 8.13841 11.2961 8.14285 11.7578C8.14728 13.1873 8.14728 14.6169 8.14285 16.0464C8.13841 16.628 7.67728 17.0897 7.09642 17.0941C6.64415 17.0986 6.18745 17.1163 5.73961 17.0586C5.01687 16.9654 4.44488 16.3083 4.43601 15.5758C4.42271 14.4615 4.41828 13.3472 4.43601 12.2373C4.44488 11.5003 5.03017 10.7634 6.02339 10.7101C6.02339 10.5503 6.02339 10.386 6.02339 10.2217C6.02339 9.15626 6.2717 8.15737 6.82151 7.24283C7.85464 5.52474 9.36663 4.53029 11.3575 4.36159C12.5015 4.26836 13.6632 4.23284 14.8027 4.39267C16.7626 4.66792 18.2125 5.72896 19.1569 7.46481C19.6181 8.30388 19.822 9.21842 19.8265 10.1774C19.8265 10.3461 19.8265 10.5192 19.8265 10.6879C19.9994 10.7234 20.1679 10.7367 20.3186 10.79C20.8862 10.9853 21.2365 11.3849 21.3828 11.9665C21.3917 12.002 21.405 12.0375 21.4183 12.073C21.4227 13.2894 21.4227 14.5059 21.4227 15.7267ZM18.7756 16.0242C19.1525 16.0242 19.5117 16.0331 19.8708 16.0197C20.1413 16.0109 20.3586 15.7845 20.363 15.5092C20.3674 14.4348 20.3674 13.3605 20.363 12.2861C20.363 12.0375 20.1812 11.8022 19.9373 11.7845C19.556 11.7578 19.1702 11.78 18.78 11.78C18.7756 13.1962 18.7756 14.5991 18.7756 16.0242ZM7.07869 11.7711C6.70179 11.7711 6.34264 11.7623 5.98348 11.7756C5.71301 11.7845 5.49574 12.0109 5.49131 12.2861C5.48688 13.3605 5.48688 14.4348 5.49131 15.5092C5.49131 15.7578 5.6731 15.9931 5.91697 16.0064C6.2983 16.0331 6.68406 16.0109 7.07425 16.0109C7.07869 14.5991 7.07869 13.1962 7.07869 11.7711ZM13.1932 19.2162C13.2863 19.2162 13.3794 19.2206 13.477 19.2162C13.7652 19.2029 13.9869 18.972 13.9913 18.6879C13.9913 18.4038 13.7696 18.1685 13.4858 18.1552C13.2907 18.1463 13.1001 18.1463 12.905 18.1552C12.6256 18.1685 12.4039 18.3993 12.3995 18.6746C12.3951 18.9587 12.6123 19.1984 12.9005 19.2162C12.9937 19.2206 13.0956 19.2162 13.1932 19.2162Z" fill="#2A2A2A"/>
<path d="M11.3263 11.2383C11.3263 10.8742 11.3263 10.5324 11.3263 10.1728C11.2598 10.1728 11.2022 10.1728 11.1445 10.1728C10.679 10.1728 10.2178 10.1772 9.75224 10.1728C9.44186 10.1683 9.2113 9.93304 9.2113 9.64003C9.2113 9.34258 9.4463 9.11617 9.75668 9.11173C10.2888 9.10729 10.8164 9.10729 11.3485 9.11173C11.9293 9.12061 12.386 9.57788 12.3949 10.1595C12.3993 10.5235 12.3993 10.892 12.3949 11.256C12.386 11.8287 11.9293 12.286 11.3574 12.2993C11.1756 12.3037 10.9938 12.2993 10.812 12.2993C10.5016 12.3037 10.2799 12.5257 10.2755 12.8365C10.271 13.0052 10.2755 13.1783 10.2755 13.3648C10.6967 13.3648 11.1046 13.3648 11.5125 13.3648C11.6411 13.3648 11.7653 13.3603 11.8939 13.3648C12.1821 13.3781 12.3993 13.6178 12.3993 13.902C12.3949 14.1772 12.1776 14.4214 11.8983 14.4258C11.1667 14.4347 10.4395 14.4347 9.7079 14.4258C9.45517 14.4214 9.2246 14.2172 9.22016 13.9686C9.2113 13.498 9.18913 13.0229 9.24677 12.5612C9.33988 11.8198 10.0005 11.2649 10.7499 11.2427C10.9361 11.2338 11.1224 11.2383 11.3263 11.2383Z" fill="#2A2A2A"/>
<path d="M15.5829 12.3039C15.2282 12.3039 14.8956 12.3039 14.5675 12.3039C13.9157 12.2994 13.4634 11.8466 13.459 11.194C13.459 10.6968 13.459 10.1951 13.459 9.69789C13.459 9.34717 13.6807 9.10744 13.9955 9.11188C14.3014 9.11632 14.5187 9.35605 14.5187 9.69789C14.5187 10.204 14.5187 10.7145 14.5187 11.2295C14.8734 11.2295 15.2149 11.2295 15.5829 11.2295C15.5829 11.1718 15.5829 11.1141 15.5829 11.0564C15.5829 10.6036 15.5829 10.1463 15.5829 9.69345C15.5829 9.35161 15.8001 9.11188 16.1061 9.11188C16.4209 9.10744 16.6426 9.35161 16.6426 9.69789C16.6426 11.0786 16.6426 12.4548 16.6426 13.8355C16.6426 14.1862 16.4253 14.4304 16.1105 14.426C15.7957 14.426 15.5829 14.1818 15.5829 13.8311C15.5829 13.3294 15.5829 12.8277 15.5829 12.3039Z" fill="#2A2A2A"/>
</g>
<defs>
<clipPath id="clip0_21774_11287">
<rect width="17" height="16" fill="white" transform="translate(4.42285 4.28174)"/>
</clipPath>
</defs>
</svg>
