<svg width="23" height="25" viewBox="0 0 23 25" fill="none" xmlns="http://www.w3.org/2000/svg">
<g clip-path="url(#clip0_21662_42833)">
<path d="M22.0297 18.3501C22.0297 21.6595 19.3391 24.3501 16.0297 24.3501H6.03125C2.72187 24.3501 0.03125 21.6595 0.03125 18.3501C0.03125 12.9688 4.60156 6.22822 9.97812 5.43135C9.00781 4.52197 7.63437 3.07354 7.08594 1.68604C6.82812 1.04385 7.34375 0.350098 8.03281 0.350098H14.0328C14.7219 0.350098 15.2328 1.04385 14.9797 1.68604C14.4312 3.06885 13.0578 4.52197 12.0875 5.43135C17.4641 6.22822 22.0297 12.9688 22.0297 18.3501Z" fill="#8A4545"/>
<path d="M9.09238 15.608C9.06895 15.608 9.05019 15.608 9.03145 15.608C8.65645 15.608 8.28145 15.608 7.90645 15.608C7.88301 15.608 7.85957 15.5986 7.84082 15.5799C7.46582 15.1908 7.09082 14.7971 6.71582 14.408C6.71113 14.3986 6.70176 14.3939 6.69238 14.3799C7.49863 14.3799 8.29082 14.3799 9.09238 14.3799C9.09238 14.3611 9.09238 14.3471 9.09238 14.333C9.09238 13.5361 9.09238 12.7439 9.09238 11.9471C9.09238 11.7221 9.03145 11.5158 8.86738 11.3518C8.74551 11.2346 8.59551 11.1689 8.43613 11.1221C8.23926 11.0611 8.04238 11.0611 7.84551 11.1127C7.77988 11.1314 7.71895 11.1643 7.64863 11.1924C7.61582 11.1361 7.57832 11.0752 7.54551 11.0049C7.4377 10.7705 7.32519 10.5408 7.23613 10.3018C7.18926 10.1799 7.21738 10.0486 7.2877 9.93145C7.37207 9.79551 7.49863 9.70645 7.63926 9.63614C7.90645 9.5002 8.18769 9.39707 8.48769 9.36895C9.03613 9.3127 9.48613 9.49082 9.82363 9.94082C10.1096 10.3205 10.2596 10.7518 10.3299 11.2158C10.3627 11.4361 10.3768 11.6611 10.3768 11.8861C10.3768 12.6971 10.3768 13.5033 10.3768 14.3143C10.3768 14.333 10.3768 14.3564 10.3768 14.3752C10.4002 14.3752 10.4143 14.3752 10.4283 14.3752C10.6393 14.3752 10.8455 14.3752 11.0564 14.3752C11.0752 14.3752 11.0986 14.3846 11.1127 14.3986C11.5018 14.7924 11.8861 15.1861 12.2705 15.5799C12.2752 15.5846 12.2799 15.5893 12.2893 15.6033C11.6471 15.6033 11.0143 15.6033 10.3768 15.6033C10.3768 15.6221 10.3721 15.6408 10.3721 15.6549C10.3721 16.7939 10.3721 17.933 10.3721 19.0721C10.3721 19.4518 10.5361 19.7471 10.8408 19.9674C10.9955 20.0752 11.1736 20.1174 11.3611 20.1455C11.9049 20.2252 12.3924 20.0752 12.8377 19.7752C13.4236 19.3814 13.9111 18.8846 14.2721 18.2752C14.4549 17.9658 14.5814 17.633 14.6283 17.2768C14.6377 17.2158 14.6424 17.1502 14.6471 17.0893C14.6471 17.0846 14.6471 17.0799 14.6471 17.0658C14.5861 17.0705 14.5205 17.0752 14.4596 17.0799C14.1455 17.1033 13.8361 17.0705 13.5455 16.9486C13.2174 16.8127 12.983 16.5736 12.8564 16.2408C12.6971 15.8189 12.6502 15.3783 12.758 14.9377C12.8377 14.6049 13.0111 14.3236 13.2877 14.1174C13.4705 13.9814 13.6861 13.9111 13.9111 13.8736C14.2205 13.8221 14.5252 13.8174 14.8299 13.8877C15.1627 13.9674 15.4533 14.1314 15.6971 14.3705C16.1752 14.8346 16.4705 15.3971 16.5736 16.0533C16.7002 16.8643 16.5736 17.6424 16.2361 18.3877C15.983 18.9455 15.6314 19.4377 15.2189 19.8924C14.9377 20.2064 14.633 20.4924 14.2908 20.7361C13.7986 21.083 13.2643 21.3314 12.6736 21.4627C12.3455 21.5377 12.0127 21.5705 11.6752 21.5705C11.3564 21.5705 11.0518 21.4908 10.7658 21.3549C10.208 21.0924 9.74395 20.7127 9.37363 20.2158C9.25645 20.0564 9.16269 19.883 9.11113 19.6908C9.10176 19.6627 9.09707 19.6299 9.09707 19.5971C9.09707 18.2846 9.09707 16.9721 9.09707 15.6596C9.09238 15.6549 9.09238 15.6361 9.09238 15.608Z" fill="white"/>
<path d="M16.6204 23.164C16.4236 23.164 16.2361 23.0374 16.1751 22.8359C16.0954 22.5874 16.2314 22.3249 16.4798 22.2452C17.6892 21.8609 18.5986 21.1296 19.1892 20.0749C19.6345 19.2734 19.7189 18.5702 19.7189 18.5609C19.747 18.303 19.9814 18.1202 20.2345 18.1484C20.4923 18.1765 20.6751 18.4062 20.647 18.664C20.6423 18.6968 20.5486 19.5312 20.0236 20.4921C19.5408 21.378 18.5798 22.5593 16.7611 23.1405C16.7189 23.1593 16.6673 23.164 16.6204 23.164Z" fill="white"/>
</g>
<defs>
<clipPath id="clip0_21662_42833">
<rect width="21.9984" height="24" fill="white" transform="translate(0.03125 0.350098)"/>
</clipPath>
</defs>
</svg>
