<svg width="25" height="25" viewBox="0 0 25 25" fill="none" xmlns="http://www.w3.org/2000/svg">
<path d="M18.3965 8.11963C18.3965 6.52833 17.7643 5.00221 16.6391 3.87699C15.5139 2.75177 13.9878 2.11963 12.3965 2.11963C10.8052 2.11963 9.27906 2.75177 8.15384 3.87699C7.02863 5.00221 6.39648 6.52833 6.39648 8.11963C6.39648 15.1196 3.39648 17.1196 3.39648 17.1196H21.3965C21.3965 17.1196 18.3965 15.1196 18.3965 8.11963Z" stroke="#2A2A2A" stroke-width="2" stroke-linecap="round" stroke-linejoin="round"/>
<path d="M14.1265 21.1196C13.9507 21.4227 13.6983 21.6743 13.3947 21.8492C13.0911 22.024 12.7469 22.1161 12.3965 22.1161C12.0461 22.1161 11.7019 22.024 11.3983 21.8492C11.0947 21.6743 10.8423 21.4227 10.6665 21.1196" stroke="#2A2A2A" stroke-width="2" stroke-linecap="round" stroke-linejoin="round"/>
</svg>
