<svg width="17" height="21" viewBox="0 0 17 21" fill="none" xmlns="http://www.w3.org/2000/svg">
<path d="M16.0543 20.1196C15.9512 20.1196 15.848 20.1196 15.7405 20.1196C15.3666 20.0208 15.1732 19.7242 15.0098 19.4147C14.9454 19.2901 14.8637 19.2471 14.7218 19.2471C10.819 19.2514 6.92043 19.2514 3.01757 19.2471C2.87573 19.2471 2.78976 19.2858 2.72529 19.4104C2.55765 19.7414 2.34703 20.0337 1.95159 20.1196C1.83554 20.1196 1.71518 20.1196 1.59913 20.1196C1.30685 19.9864 1.06614 19.8059 0.99307 19.462C0.937192 19.1955 1.01456 18.9634 1.13921 18.7313C2.04186 17.0635 2.9488 15.3915 3.85144 13.7238C3.88583 13.6593 3.92021 13.5905 3.9503 13.5346C3.73539 13.4401 3.52477 13.3799 3.34424 13.2724C2.75537 12.9114 2.52327 12.3655 2.52327 11.6907C2.52756 9.14606 2.52327 6.60147 2.52756 4.05687C2.52756 3.82906 2.54476 3.60125 2.57914 3.37774C2.80265 1.79167 4.09215 0.463493 5.67392 0.1927C5.92752 0.149717 6.18972 0.123927 6.44762 0.123927C8.05948 0.119629 9.67564 0.119629 11.2875 0.119629C12.4652 0.119629 13.4581 0.549459 14.2361 1.43921C14.8852 2.18281 15.1689 3.05537 15.1689 4.03968C15.1646 6.58428 15.1689 9.12887 15.1689 11.6735C15.1689 11.7379 15.1646 11.8024 15.1646 11.8669C15.1345 12.4429 14.8809 12.9071 14.4038 13.2252C14.2103 13.3541 13.9782 13.4315 13.7547 13.5389C13.7805 13.5905 13.8106 13.655 13.845 13.7152C14.3952 14.7167 14.9454 15.7182 15.4998 16.724C15.8738 17.4074 16.252 18.0908 16.626 18.7743C16.8538 19.1955 16.8065 19.6339 16.4884 19.8961C16.3638 19.9993 16.2005 20.0466 16.0543 20.1196ZM8.88905 7.38376C10.1656 7.38376 11.4379 7.38376 12.7145 7.38376C13.3507 7.38376 13.6774 7.05709 13.6817 6.42524C13.6817 5.85786 13.6817 5.29478 13.6817 4.72741C13.6817 4.52539 13.6903 4.31907 13.6602 4.12565C13.4538 2.85765 12.448 2.00229 11.1586 2.00229C9.62406 1.99799 8.08527 1.99799 6.55077 2.00229C6.35735 2.00229 6.15963 2.01948 5.9705 2.06246C4.82286 2.32036 4.05776 3.30037 4.06206 4.4996C4.06636 5.13145 4.10934 5.7633 4.09215 6.39085C4.07495 7.027 4.47469 7.40955 5.12374 7.39665C6.37454 7.36657 7.62965 7.38376 8.88905 7.38376ZM3.53766 17.9189C7.10955 17.9189 10.6385 17.9189 14.1889 17.9189C14.1717 17.8802 14.1674 17.8587 14.1545 17.8372C13.8708 17.3343 13.5914 16.8271 13.2991 16.3285C13.2647 16.2684 13.1573 16.2254 13.0799 16.2254C10.2731 16.2211 7.46631 16.2211 4.66382 16.2168C4.54777 16.2168 4.47469 16.2469 4.41882 16.3543C4.30276 16.5778 4.17381 16.797 4.04916 17.0163C3.87723 17.3128 3.71389 17.6051 3.53766 17.9189ZM12.5383 14.9058C12.2933 14.4588 12.0698 14.0418 11.8334 13.6292C11.8076 13.5862 11.7302 13.5561 11.6744 13.5561C9.80029 13.5518 7.92623 13.5518 6.05217 13.5561C5.99199 13.5561 5.90603 13.6077 5.87594 13.6636C5.75129 13.8699 5.63953 14.0805 5.52348 14.2954C5.41602 14.4932 5.30857 14.6866 5.18821 14.9058C7.65544 14.9058 10.0797 14.9058 12.5383 14.9058ZM5.29997 11.9314C5.9877 11.9486 6.56367 11.3941 6.58946 10.6892C6.61525 10.01 6.04357 9.42115 5.34295 9.40396C4.65522 9.38677 4.07925 9.93695 4.05776 10.629C4.04057 11.3339 4.58645 11.9142 5.29997 11.9314ZM13.6774 10.7063C13.6774 10.01 13.11 9.44694 12.4094 9.44694C11.713 9.44694 11.1414 10.0186 11.1414 10.7106C11.1414 11.3984 11.7216 11.9786 12.4094 11.9786C13.0885 11.9786 13.6774 11.3855 13.6774 10.7063Z" fill="#2A2A2A"/>
</svg>
