<svg width="18" height="18" viewBox="0 0 18 18" fill="none" xmlns="http://www.w3.org/2000/svg">
<path d="M9.31026 17.8472C7.01817 17.8472 4.81097 16.9982 3.11313 15.3004C-0.282542 11.9047 -0.282542 6.55656 3.02824 3.24578C4.21673 1.9724 5.82968 1.12348 7.61242 0.868801C7.95199 0.783909 8.29156 0.953693 8.46134 1.29326C8.63112 1.63283 8.63112 1.9724 8.37645 2.22707C6.50881 4.34937 6.6786 7.66014 8.71601 9.69754C10.7534 11.735 13.9793 11.9047 16.1016 10.0371C16.3563 9.78244 16.7807 9.78244 17.0354 9.95222C17.375 10.122 17.5448 10.4616 17.4599 10.8011C17.2052 12.5839 16.3563 14.1119 15.1678 15.3853C13.5549 16.9982 11.4326 17.8472 9.31026 17.8472ZM5.82967 3.16088C5.23543 3.50045 4.64118 3.84002 4.13183 4.34937C1.50018 6.981 1.58508 11.3105 4.21673 14.027C6.93327 16.7436 11.2628 16.7436 13.8944 14.1119C14.4038 13.6026 14.8282 13.0932 15.0829 12.4141C12.5362 13.4328 9.48004 12.8385 7.35773 10.7162C5.4901 8.84863 4.89586 5.79253 5.82967 3.16088Z" fill="#6D6E70"/>
</svg>
