<svg width="19" height="17" viewBox="0 0 19 17" fill="none" xmlns="http://www.w3.org/2000/svg">
<path d="M15.062 3.44687L12.9121 4.68811L6.98723 0.802187C6.64198 0.591793 6.24634 0.478294 5.84187 0.473621C5.43741 0.468947 5.03908 0.573271 4.68873 0.775627L4.57042 0.843939C4.30488 0.996757 4.07852 1.20922 3.90925 1.46452C3.73998 1.71982 3.63245 2.01094 3.59516 2.31486C3.55787 2.61877 3.59184 2.92714 3.6944 3.21555C3.79695 3.50396 3.96527 3.76451 4.18603 3.97657L7.92905 7.56507L6.3792 8.45987C6.12329 8.60852 5.84047 8.70499 5.5471 8.7437C5.25373 8.78242 4.95563 8.7626 4.67006 8.68541L3.21599 8.2943C2.84486 8.19523 2.45171 8.21695 2.09357 8.35629C1.73544 8.49564 1.43093 8.74537 1.22423 9.06926C1.0959 9.26892 1.00976 9.49268 0.971103 9.72677C0.932449 9.96087 0.942099 10.2004 0.99946 10.4305C1.05913 10.6785 1.16832 10.9119 1.32048 11.1166C1.47264 11.3214 1.66463 11.4932 1.88493 11.6219L3.99357 12.851C4.56514 13.1831 5.21435 13.3587 5.87572 13.36C6.5371 13.3613 7.18726 13.1883 7.76066 12.8584L10.1732 11.4656L10.7564 14.98C10.8085 15.2944 10.9361 15.5914 11.1282 15.8457C11.3202 16.0999 11.5711 16.3038 11.8594 16.4398C12.1476 16.5759 12.4646 16.6401 12.7832 16.6269C13.1018 16.6137 13.4125 16.5235 13.6887 16.3641C14.0341 16.1671 14.3206 15.8815 14.5186 15.5368C14.7166 15.1921 14.8189 14.8009 14.8149 14.4036L15.0132 8.67117L17.312 7.34398C17.8292 7.04534 18.2068 6.55365 18.3615 5.97705C18.5163 5.40046 18.4356 4.78621 18.1373 4.26942C17.8389 3.75263 17.3473 3.37564 16.7706 3.22138C16.1938 3.06713 15.5792 3.14824 15.062 3.44687ZM5.22898 2.89292C5.17616 2.84216 5.13588 2.77982 5.11132 2.71081C5.08675 2.6418 5.07859 2.56801 5.08745 2.49528C5.09632 2.42255 5.12198 2.35286 5.16241 2.29172C5.20284 2.23057 5.25694 2.17965 5.32042 2.14297L5.43873 2.07466C5.55152 2.00824 5.67986 1.9728 5.81072 1.97192C5.94158 1.97104 6.07033 2.00476 6.1839 2.06966L11.4572 5.52812L9.28256 6.78362L5.22898 2.89292ZM16.562 6.04495L13.9024 7.58045C13.7921 7.64421 13.6999 7.73497 13.6343 7.84417C13.5688 7.95337 13.5321 8.07742 13.5277 8.20466L13.3141 14.3971C13.3173 14.5318 13.2842 14.6649 13.2181 14.7825C13.152 14.9 13.0555 14.9976 12.9387 15.065C12.8727 15.1032 12.7983 15.1249 12.7221 15.128C12.6459 15.1312 12.57 15.1158 12.5011 15.0832C12.4321 15.0506 12.3721 15.0018 12.3263 14.9409C12.2804 14.88 12.25 14.8089 12.2377 14.7336L11.476 10.1504C11.4561 10.031 11.4074 9.91812 11.3343 9.82157C11.2611 9.72502 11.1657 9.64763 11.0561 9.59602C10.9464 9.5444 10.8259 9.52011 10.7048 9.5252C10.5837 9.5303 10.4656 9.56464 10.3606 9.62528L7.01066 11.5594C6.66701 11.757 6.27731 11.8606 5.88096 11.8595C5.48461 11.8584 5.09565 11.7527 4.7534 11.5532L2.64114 10.3253C2.59651 10.2989 2.55758 10.2639 2.52659 10.2223C2.4956 10.1808 2.47316 10.1335 2.46058 10.0832C2.45048 10.0506 2.44736 10.0163 2.45143 9.98249C2.45549 9.94866 2.46665 9.91606 2.48417 9.88681C2.51197 9.84242 2.55 9.80532 2.59507 9.77862C2.66512 9.73882 2.74785 9.72768 2.8259 9.74754L4.27847 10.1361C4.75483 10.2647 5.25208 10.2977 5.74141 10.2329C6.23075 10.1682 6.70245 10.0071 7.1292 9.75891L15.812 4.74591C15.9844 4.64636 16.1893 4.61933 16.3815 4.67075C16.5737 4.72217 16.7376 4.84783 16.8371 5.02009C16.9365 5.19235 16.9634 5.3971 16.9118 5.5893C16.8602 5.7815 16.7344 5.9454 16.562 6.04495Z" fill="#047E94"/>
</svg>
